SplineFontDB: 3.2
FontName: MSSansSerif
FullName: MS Sans Serif
FamilyName: MS Sans Serif
Weight: Medium
Copyright: Copyright (c) 1985 Xiphias, Los Angeles, Ca.
Version: 1.0
ItalicAngle: 0
UnderlinePosition: -150
UnderlineWidth: 100
Ascent: 1000
Descent: 300
InvalidEm: 0
sfntRevision: 0x00010000
LayerCount: 2
Layer: 0 1 "Back" 1
Layer: 1 1 "Fore" 0
XUID: [1021 61 934012909 2502]
StyleMap: 0x0040
FSType: 0
OS2Version: 4
OS2_WeightWidthSlopeOnly: 0
OS2_UseTypoMetrics: 1
CreationTime: 1777217008
ModificationTime: 1777212844
PfmFamily: 33
TTFWeight: 500
TTFWidth: 5
LineGap: 0
VLineGap: 0
Panose: 2 0 0 0 0 0 0 0 0 0
OS2TypoAscent: 1000
OS2TypoAOffset: 0
OS2TypoDescent: -300
OS2TypoDOffset: 0
OS2TypoLinegap: 0
OS2WinAscent: 1300
OS2WinAOffset: 0
OS2WinDescent: 300
OS2WinDOffset: 0
HheadAscent: 1000
HheadAOffset: 0
HheadDescent: -300
HheadDOffset: 0
OS2SubXSize: 1300
OS2SubYSize: 1300
OS2SubXOff: 0
OS2SubYOff: 650
OS2SupXSize: 1300
OS2SupYSize: 1300
OS2SupXOff: 0
OS2SupYOff: 650
OS2StrikeYSize: 100
OS2StrikeYPos: 500
OS2CapHeight: 1000
OS2XHeight: 700
OS2Vendor: 'KBnP'
OS2CodePages: 00000001.00000000
OS2UnicodeRanges: 8000002f.0000000a.00000000.00000000
MarkAttachClasses: 1
DEI: 91125
ShortTable: maxp 16
  1
  0
  227
  66
  16
  0
  0
  2
  0
  0
  0
  0
  0
  0
  0
  0
EndShort
LangName: 1033 "" "" "Normal" "BitsNPicas: MSSansSerif: 2026" "" "Version 1.0" "" "" "Made with Bits'n'Picas by Kreative Software" "" "" "http://www.kreativekorp.com/software/bitsnpicas/"
Encoding: UnicodeBmp
Compacted: 1
UnicodeInterp: none
NameList: AGL For New Fonts
DisplaySize: -24
AntiAlias: 1
FitToEm: 0
WinInfo: 0 32 14
BeginPrivate: 0
EndPrivate
BeginChars: 65564 442

StartChar: exclam
Encoding: 33 33 1
Width: 300
GlyphClass: 1
Flags: W
LayerCount: 2
Fore
SplineSet
100 0 m 1,0,-1
 100 100 l 1,1,-1
 200 100 l 1,2,-1
 200 0 l 1,3,-1
 100 0 l 1,0,-1
100 200 m 1,4,-1
 100 1000 l 1,5,-1
 200 1000 l 1,6,-1
 200 200 l 1,7,-1
 100 200 l 1,4,-1
EndSplineSet
EndChar

StartChar: quotedbl
Encoding: 34 34 2
Width: 500
GlyphClass: 1
Flags: W
LayerCount: 2
Fore
SplineSet
400 600 m 1,0,-1
 300 600 l 1,1,-1
 300 1000 l 1,2,-1
 400 1000 l 1,3,-1
 400 600 l 1,0,-1
100 600 m 1,4,-1
 100 1000 l 1,5,-1
 200 1000 l 1,6,-1
 200 600 l 1,7,-1
 100 600 l 1,4,-1
EndSplineSet
EndChar

StartChar: numbersign
Encoding: 35 35 3
Width: 700
GlyphClass: 1
Flags: W
LayerCount: 2
Fore
SplineSet
0 300 m 1,0,-1
 0 400 l 1,1,-1
 200 400 l 1,2,-1
 200 600 l 1,3,-1
 100 600 l 1,4,-1
 100 700 l 1,5,-1
 300 700 l 1,6,-1
 300 1000 l 1,7,-1
 400 1000 l 1,8,-1
 400 700 l 1,9,-1
 500 700 l 1,10,-1
 500 1000 l 1,11,-1
 600 1000 l 1,12,-1
 600 700 l 1,13,-1
 700 700 l 1,14,-1
 700 600 l 1,15,-1
 500 600 l 1,16,-1
 500 400 l 1,17,-1
 600 400 l 1,18,-1
 600 300 l 1,19,-1
 400 300 l 1,20,-1
 400 0 l 1,21,-1
 300 0 l 1,22,-1
 300 300 l 1,23,-1
 200 300 l 1,24,-1
 200 0 l 1,25,-1
 100 0 l 1,26,-1
 100 300 l 1,27,-1
 0 300 l 1,0,-1
400 400 m 1,28,-1
 400 600 l 1,29,-1
 300 600 l 1,30,-1
 300 400 l 1,31,-1
 400 400 l 1,28,-1
EndSplineSet
EndChar

StartChar: dollar
Encoding: 36 36 4
Width: 700
GlyphClass: 1
Flags: W
LayerCount: 2
Fore
SplineSet
200 200 m 1,0,-1
 200 100 l 1,1,-1
 100 100 l 1,2,-1
 100 200 l 1,3,-1
 200 200 l 1,0,-1
200 100 m 1,4,-1
 300 100 l 1,5,-1
 300 400 l 1,6,-1
 200 400 l 1,7,-1
 200 500 l 1,8,-1
 300 500 l 1,9,-1
 300 800 l 1,10,-1
 200 800 l 1,11,-1
 200 900 l 1,12,-1
 300 900 l 1,13,-1
 300 1000 l 1,14,-1
 400 1000 l 1,15,-1
 400 900 l 1,16,-1
 500 900 l 1,17,-1
 500 800 l 1,18,-1
 400 800 l 1,19,-1
 400 500 l 1,20,-1
 500 500 l 1,21,-1
 500 400 l 1,22,-1
 400 400 l 1,23,-1
 400 100 l 1,24,-1
 500 100 l 1,25,-1
 500 0 l 1,26,-1
 400 0 l 1,27,-1
 400 -100 l 1,28,-1
 300 -100 l 1,29,-1
 300 0 l 1,30,-1
 200 0 l 1,31,-1
 200 100 l 1,4,-1
200 500 m 1,32,-1
 100 500 l 1,33,-1
 100 800 l 1,34,-1
 200 800 l 1,35,-1
 200 500 l 1,32,-1
600 100 m 1,36,-1
 500 100 l 1,37,-1
 500 400 l 1,38,-1
 600 400 l 1,39,-1
 600 100 l 1,36,-1
600 600 m 1,40,-1
 500 600 l 1,41,-1
 500 800 l 1,42,-1
 600 800 l 1,43,-1
 600 600 l 1,40,-1
EndSplineSet
EndChar

StartChar: percent
Encoding: 37 37 5
Width: 1200
GlyphClass: 1
Flags: W
LayerCount: 2
Fore
SplineSet
900 700 m 1,0,-1
 800 700 l 1,1,-1
 800 800 l 1,2,-1
 900 800 l 1,3,-1
 900 700 l 1,0,-1
900 800 m 1,4,-1
 900 900 l 1,5,-1
 1000 900 l 1,6,-1
 1000 800 l 1,7,-1
 900 800 l 1,4,-1
400 200 m 1,8,-1
 300 200 l 1,9,-1
 300 300 l 1,10,-1
 400 300 l 1,11,-1
 400 200 l 1,8,-1
400 300 m 1,12,-1
 400 400 l 1,13,-1
 500 400 l 1,14,-1
 500 300 l 1,15,-1
 400 300 l 1,12,-1
400 700 m 1,16,-1
 400 600 l 1,17,-1
 200 600 l 1,18,-1
 200 700 l 1,19,-1
 400 700 l 1,16,-1
400 1000 m 1,20,-1
 400 900 l 1,21,-1
 200 900 l 1,22,-1
 200 1000 l 1,23,-1
 400 1000 l 1,20,-1
400 900 m 1,24,-1
 500 900 l 1,25,-1
 500 700 l 1,26,-1
 400 700 l 1,27,-1
 400 900 l 1,24,-1
800 100 m 1,28,-1
 1000 100 l 1,29,-1
 1000 0 l 1,30,-1
 800 0 l 1,31,-1
 800 100 l 1,28,-1
800 300 m 1,32,-1
 800 100 l 1,33,-1
 700 100 l 1,34,-1
 700 300 l 1,35,-1
 800 300 l 1,32,-1
800 400 m 1,36,-1
 1000 400 l 1,37,-1
 1000 300 l 1,38,-1
 800 300 l 1,39,-1
 800 400 l 1,36,-1
800 700 m 1,40,-1
 800 600 l 1,41,-1
 700 600 l 1,42,-1
 700 700 l 1,43,-1
 800 700 l 1,40,-1
300 200 m 1,44,-1
 300 100 l 1,45,-1
 200 100 l 1,46,-1
 200 200 l 1,47,-1
 300 200 l 1,44,-1
700 500 m 1,48,-1
 600 500 l 1,49,-1
 600 600 l 1,50,-1
 700 600 l 1,51,-1
 700 500 l 1,48,-1
200 700 m 1,52,-1
 100 700 l 1,53,-1
 100 900 l 1,54,-1
 200 900 l 1,55,-1
 200 700 l 1,52,-1
1100 100 m 1,56,-1
 1000 100 l 1,57,-1
 1000 300 l 1,58,-1
 1100 300 l 1,59,-1
 1100 100 l 1,56,-1
600 500 m 1,60,-1
 600 400 l 1,61,-1
 500 400 l 1,62,-1
 500 500 l 1,63,-1
 600 500 l 1,60,-1
EndSplineSet
EndChar

StartChar: ampersand
Encoding: 38 38 6
Width: 900
GlyphClass: 1
Flags: W
LayerCount: 2
Fore
SplineSet
200 100 m 1,0,-1
 100 100 l 1,1,-1
 100 400 l 1,2,-1
 200 400 l 1,3,-1
 200 100 l 1,0,-1
200 0 m 1,4,-1
 200 100 l 1,5,-1
 600 100 l 1,6,-1
 600 0 l 1,7,-1
 200 0 l 1,4,-1
200 400 m 1,8,-1
 200 500 l 1,9,-1
 300 500 l 1,10,-1
 300 400 l 1,11,-1
 200 400 l 1,8,-1
200 600 m 1,12,-1
 200 900 l 1,13,-1
 300 900 l 1,14,-1
 300 600 l 1,15,-1
 200 600 l 1,12,-1
400 500 m 1,16,-1
 300 500 l 1,17,-1
 300 600 l 1,18,-1
 500 600 l 1,19,-1
 500 400 l 1,20,-1
 400 400 l 1,21,-1
 400 500 l 1,16,-1
600 200 m 1,22,-1
 500 200 l 1,23,-1
 500 400 l 1,24,-1
 600 400 l 1,25,-1
 600 200 l 1,22,-1
600 100 m 1,26,-1
 600 200 l 1,27,-1
 700 200 l 1,28,-1
 700 100 l 1,29,-1
 600 100 l 1,26,-1
600 600 m 1,30,-1
 500 600 l 1,31,-1
 500 900 l 1,32,-1
 600 900 l 1,33,-1
 600 600 l 1,30,-1
800 200 m 1,34,-1
 700 200 l 1,35,-1
 700 300 l 1,36,-1
 800 300 l 1,37,-1
 800 200 l 1,34,-1
800 100 m 1,38,-1
 800 0 l 1,39,-1
 700 0 l 1,40,-1
 700 100 l 1,41,-1
 800 100 l 1,38,-1
300 900 m 1,42,-1
 300 1000 l 1,43,-1
 500 1000 l 1,44,-1
 500 900 l 1,45,-1
 300 900 l 1,42,-1
EndSplineSet
EndChar

StartChar: quotesingle
Encoding: 39 39 7
Width: 300
GlyphClass: 1
Flags: W
LayerCount: 2
Fore
SplineSet
100 600 m 1,0,-1
 100 1000 l 1,1,-1
 200 1000 l 1,2,-1
 200 600 l 1,3,-1
 100 600 l 1,0,-1
EndSplineSet
EndChar

StartChar: parenleft
Encoding: 40 40 8
Width: 400
GlyphClass: 1
Flags: W
LayerCount: 2
Fore
SplineSet
100 0 m 1,0,-1
 100 700 l 1,1,-1
 200 700 l 1,2,-1
 200 0 l 1,3,-1
 100 0 l 1,0,-1
200 0 m 1,4,-1
 300 0 l 1,5,-1
 300 -200 l 1,6,-1
 200 -200 l 1,7,-1
 200 0 l 1,4,-1
200 700 m 1,8,-1
 200 900 l 1,9,-1
 300 900 l 1,10,-1
 300 700 l 1,11,-1
 200 700 l 1,8,-1
300 -200 m 1,12,-1
 400 -200 l 1,13,-1
 400 -300 l 1,14,-1
 300 -300 l 1,15,-1
 300 -200 l 1,12,-1
300 900 m 1,16,-1
 300 1000 l 1,17,-1
 400 1000 l 1,18,-1
 400 900 l 1,19,-1
 300 900 l 1,16,-1
EndSplineSet
EndChar

StartChar: parenright
Encoding: 41 41 9
Width: 400
GlyphClass: 1
Flags: W
LayerCount: 2
Fore
SplineSet
0 -200 m 1,0,-1
 100 -200 l 1,1,-1
 100 -300 l 1,2,-1
 0 -300 l 1,3,-1
 0 -200 l 1,0,-1
0 900 m 1,4,-1
 0 1000 l 1,5,-1
 100 1000 l 1,6,-1
 100 900 l 1,7,-1
 0 900 l 1,4,-1
100 0 m 1,8,-1
 200 0 l 1,9,-1
 200 -200 l 1,10,-1
 100 -200 l 1,11,-1
 100 0 l 1,8,-1
100 700 m 1,12,-1
 100 900 l 1,13,-1
 200 900 l 1,14,-1
 200 700 l 1,15,-1
 100 700 l 1,12,-1
200 0 m 1,16,-1
 200 700 l 1,17,-1
 300 700 l 1,18,-1
 300 0 l 1,19,-1
 200 0 l 1,16,-1
EndSplineSet
EndChar

StartChar: asterisk
Encoding: 42 42 10
Width: 500
GlyphClass: 1
Flags: W
LayerCount: 2
Fore
SplineSet
0 600 m 1,0,-1
 0 700 l 1,1,-1
 100 700 l 1,2,-1
 100 800 l 1,3,-1
 200 800 l 1,4,-1
 200 1000 l 1,5,-1
 300 1000 l 1,6,-1
 300 800 l 1,7,-1
 400 800 l 1,8,-1
 400 700 l 1,9,-1
 500 700 l 1,10,-1
 500 600 l 1,11,-1
 300 600 l 1,12,-1
 300 700 l 1,13,-1
 200 700 l 1,14,-1
 200 600 l 1,15,-1
 0 600 l 1,0,-1
0 800 m 1,16,-1
 0 900 l 1,17,-1
 100 900 l 1,18,-1
 100 800 l 1,19,-1
 0 800 l 1,16,-1
400 800 m 1,20,-1
 400 900 l 1,21,-1
 500 900 l 1,22,-1
 500 800 l 1,23,-1
 400 800 l 1,20,-1
EndSplineSet
EndChar

StartChar: plus
Encoding: 43 43 11
Width: 700
GlyphClass: 1
Flags: W
LayerCount: 2
Fore
SplineSet
400 200 m 1,0,-1
 300 200 l 1,1,-1
 300 400 l 1,2,-1
 100 400 l 1,3,-1
 100 500 l 1,4,-1
 300 500 l 1,5,-1
 300 700 l 1,6,-1
 400 700 l 1,7,-1
 400 500 l 1,8,-1
 600 500 l 1,9,-1
 600 400 l 1,10,-1
 400 400 l 1,11,-1
 400 200 l 1,0,-1
EndSplineSet
EndChar

StartChar: comma
Encoding: 44 44 12
Width: 300
GlyphClass: 1
Flags: W
LayerCount: 2
Fore
SplineSet
0 -100 m 1,0,-1
 0 0 l 1,1,-1
 100 0 l 1,2,-1
 100 -100 l 1,3,-1
 0 -100 l 1,0,-1
100 0 m 1,4,-1
 100 100 l 1,5,-1
 200 100 l 1,6,-1
 200 0 l 1,7,-1
 100 0 l 1,4,-1
EndSplineSet
EndChar

StartChar: hyphen
Encoding: 45 45 13
Width: 400
GlyphClass: 1
Flags: W
LayerCount: 2
Fore
SplineSet
0 400 m 1,0,-1
 0 500 l 1,1,-1
 400 500 l 1,2,-1
 400 400 l 1,3,-1
 0 400 l 1,0,-1
EndSplineSet
EndChar

StartChar: period
Encoding: 46 46 14
Width: 300
GlyphClass: 1
Flags: W
LayerCount: 2
Fore
SplineSet
100 0 m 1,0,-1
 100 100 l 1,1,-1
 200 100 l 1,2,-1
 200 0 l 1,3,-1
 100 0 l 1,0,-1
EndSplineSet
EndChar

StartChar: slash
Encoding: 47 47 15
Width: 400
GlyphClass: 1
Flags: W
LayerCount: 2
Fore
SplineSet
0 100 m 1,0,-1
 100 100 l 1,1,-1
 100 -200 l 1,2,-1
 0 -200 l 1,3,-1
 0 100 l 1,0,-1
100 100 m 1,4,-1
 100 400 l 1,5,-1
 200 400 l 1,6,-1
 200 100 l 1,7,-1
 100 100 l 1,4,-1
200 400 m 1,8,-1
 200 700 l 1,9,-1
 300 700 l 1,10,-1
 300 400 l 1,11,-1
 200 400 l 1,8,-1
300 700 m 1,12,-1
 300 1000 l 1,13,-1
 400 1000 l 1,14,-1
 400 700 l 1,15,-1
 300 700 l 1,12,-1
EndSplineSet
EndChar

StartChar: zero
Encoding: 48 48 16
Width: 700
GlyphClass: 1
Flags: W
LayerCount: 2
Fore
SplineSet
100 100 m 1,0,-1
 100 900 l 1,1,-1
 200 900 l 1,2,-1
 200 100 l 1,3,-1
 100 100 l 1,0,-1
500 100 m 1,4,-1
 500 0 l 1,5,-1
 200 0 l 1,6,-1
 200 100 l 1,7,-1
 500 100 l 1,4,-1
500 1000 m 1,8,-1
 500 900 l 1,9,-1
 200 900 l 1,10,-1
 200 1000 l 1,11,-1
 500 1000 l 1,8,-1
500 900 m 1,12,-1
 600 900 l 1,13,-1
 600 100 l 1,14,-1
 500 100 l 1,15,-1
 500 900 l 1,12,-1
EndSplineSet
EndChar

StartChar: one
Encoding: 49 49 17
Width: 700
GlyphClass: 1
Flags: W
LayerCount: 2
Fore
SplineSet
400 0 m 1,0,-1
 300 0 l 1,1,-1
 300 800 l 1,2,-1
 100 800 l 1,3,-1
 100 900 l 1,4,-1
 300 900 l 1,5,-1
 300 1000 l 1,6,-1
 400 1000 l 1,7,-1
 400 0 l 1,0,-1
EndSplineSet
EndChar

StartChar: two
Encoding: 50 50 18
Width: 700
GlyphClass: 1
Flags: W
LayerCount: 2
Fore
SplineSet
100 0 m 1,0,-1
 100 300 l 1,1,-1
 200 300 l 1,2,-1
 200 100 l 1,3,-1
 600 100 l 1,4,-1
 600 0 l 1,5,-1
 100 0 l 1,0,-1
100 700 m 1,6,-1
 100 900 l 1,7,-1
 200 900 l 1,8,-1
 200 700 l 1,9,-1
 100 700 l 1,6,-1
200 300 m 1,10,-1
 200 400 l 1,11,-1
 300 400 l 1,12,-1
 300 300 l 1,13,-1
 200 300 l 1,10,-1
200 900 m 1,14,-1
 200 1000 l 1,15,-1
 500 1000 l 1,16,-1
 500 900 l 1,17,-1
 200 900 l 1,14,-1
300 400 m 1,18,-1
 300 500 l 1,19,-1
 400 500 l 1,20,-1
 400 400 l 1,21,-1
 300 400 l 1,18,-1
400 500 m 1,22,-1
 400 600 l 1,23,-1
 500 600 l 1,24,-1
 500 500 l 1,25,-1
 400 500 l 1,22,-1
500 600 m 1,26,-1
 500 900 l 1,27,-1
 600 900 l 1,28,-1
 600 600 l 1,29,-1
 500 600 l 1,26,-1
EndSplineSet
EndChar

StartChar: three
Encoding: 51 51 19
Width: 700
GlyphClass: 1
Flags: W
LayerCount: 2
Fore
SplineSet
100 100 m 1,0,-1
 100 200 l 1,1,-1
 200 200 l 1,2,-1
 200 100 l 1,3,-1
 100 100 l 1,0,-1
100 800 m 1,4,-1
 100 900 l 1,5,-1
 200 900 l 1,6,-1
 200 800 l 1,7,-1
 100 800 l 1,4,-1
200 100 m 1,8,-1
 500 100 l 1,9,-1
 500 0 l 1,10,-1
 200 0 l 1,11,-1
 200 100 l 1,8,-1
200 900 m 1,12,-1
 200 1000 l 1,13,-1
 500 1000 l 1,14,-1
 500 900 l 1,15,-1
 200 900 l 1,12,-1
300 500 m 1,16,-1
 300 600 l 1,17,-1
 500 600 l 1,18,-1
 500 500 l 1,19,-1
 300 500 l 1,16,-1
500 100 m 1,20,-1
 500 500 l 1,21,-1
 600 500 l 1,22,-1
 600 100 l 1,23,-1
 500 100 l 1,20,-1
500 600 m 1,24,-1
 500 900 l 1,25,-1
 600 900 l 1,26,-1
 600 600 l 1,27,-1
 500 600 l 1,24,-1
EndSplineSet
EndChar

StartChar: four
Encoding: 52 52 20
Width: 700
GlyphClass: 1
Flags: W
LayerCount: 2
Fore
SplineSet
100 500 m 1,0,-1
 200 500 l 1,1,-1
 200 400 l 1,2,-1
 500 400 l 1,3,-1
 500 800 l 1,4,-1
 400 800 l 1,5,-1
 400 900 l 1,6,-1
 500 900 l 1,7,-1
 500 1000 l 1,8,-1
 600 1000 l 1,9,-1
 600 0 l 1,10,-1
 500 0 l 1,11,-1
 500 300 l 1,12,-1
 100 300 l 1,13,-1
 100 500 l 1,0,-1
200 500 m 1,14,-1
 200 600 l 1,15,-1
 300 600 l 1,16,-1
 300 500 l 1,17,-1
 200 500 l 1,14,-1
300 600 m 1,18,-1
 300 800 l 1,19,-1
 400 800 l 1,20,-1
 400 600 l 1,21,-1
 300 600 l 1,18,-1
EndSplineSet
EndChar

StartChar: five
Encoding: 53 53 21
Width: 700
GlyphClass: 1
Flags: W
LayerCount: 2
Fore
SplineSet
100 100 m 1,0,-1
 100 200 l 1,1,-1
 200 200 l 1,2,-1
 200 100 l 1,3,-1
 100 100 l 1,0,-1
100 400 m 1,4,-1
 100 1000 l 1,5,-1
 600 1000 l 1,6,-1
 600 900 l 1,7,-1
 200 900 l 1,8,-1
 200 600 l 1,9,-1
 500 600 l 1,10,-1
 500 500 l 1,11,-1
 200 500 l 1,12,-1
 200 400 l 1,13,-1
 100 400 l 1,4,-1
200 100 m 1,14,-1
 500 100 l 1,15,-1
 500 0 l 1,16,-1
 200 0 l 1,17,-1
 200 100 l 1,14,-1
500 100 m 1,18,-1
 500 500 l 1,19,-1
 600 500 l 1,20,-1
 600 100 l 1,21,-1
 500 100 l 1,18,-1
EndSplineSet
EndChar

StartChar: six
Encoding: 54 54 22
Width: 700
GlyphClass: 1
Flags: W
LayerCount: 2
Fore
SplineSet
100 100 m 1,0,-1
 100 900 l 1,1,-1
 200 900 l 1,2,-1
 200 500 l 1,3,-1
 300 500 l 1,4,-1
 300 400 l 1,5,-1
 200 400 l 1,6,-1
 200 100 l 1,7,-1
 100 100 l 1,0,-1
200 100 m 1,8,-1
 500 100 l 1,9,-1
 500 0 l 1,10,-1
 200 0 l 1,11,-1
 200 100 l 1,8,-1
200 900 m 1,12,-1
 200 1000 l 1,13,-1
 500 1000 l 1,14,-1
 500 900 l 1,15,-1
 200 900 l 1,12,-1
300 500 m 1,16,-1
 300 600 l 1,17,-1
 500 600 l 1,18,-1
 500 500 l 1,19,-1
 300 500 l 1,16,-1
500 100 m 1,20,-1
 500 500 l 1,21,-1
 600 500 l 1,22,-1
 600 100 l 1,23,-1
 500 100 l 1,20,-1
500 900 m 1,24,-1
 600 900 l 1,25,-1
 600 800 l 1,26,-1
 500 800 l 1,27,-1
 500 900 l 1,24,-1
EndSplineSet
EndChar

StartChar: seven
Encoding: 55 55 23
Width: 700
GlyphClass: 1
Flags: W
LayerCount: 2
Fore
SplineSet
100 900 m 1,0,-1
 100 1000 l 1,1,-1
 600 1000 l 1,2,-1
 600 700 l 1,3,-1
 500 700 l 1,4,-1
 500 900 l 1,5,-1
 100 900 l 1,0,-1
200 0 m 1,6,-1
 200 300 l 1,7,-1
 300 300 l 1,8,-1
 300 0 l 1,9,-1
 200 0 l 1,6,-1
300 500 m 1,10,-1
 400 500 l 1,11,-1
 400 300 l 1,12,-1
 300 300 l 1,13,-1
 300 500 l 1,10,-1
400 500 m 1,14,-1
 400 700 l 1,15,-1
 500 700 l 1,16,-1
 500 500 l 1,17,-1
 400 500 l 1,14,-1
EndSplineSet
EndChar

StartChar: eight
Encoding: 56 56 24
Width: 700
GlyphClass: 1
Flags: W
LayerCount: 2
Fore
SplineSet
100 100 m 1,0,-1
 100 500 l 1,1,-1
 200 500 l 1,2,-1
 200 100 l 1,3,-1
 100 100 l 1,0,-1
100 600 m 1,4,-1
 100 900 l 1,5,-1
 200 900 l 1,6,-1
 200 600 l 1,7,-1
 100 600 l 1,4,-1
200 100 m 1,8,-1
 500 100 l 1,9,-1
 500 0 l 1,10,-1
 200 0 l 1,11,-1
 200 100 l 1,8,-1
200 500 m 1,12,-1
 200 600 l 1,13,-1
 500 600 l 1,14,-1
 500 500 l 1,15,-1
 200 500 l 1,12,-1
200 900 m 1,16,-1
 200 1000 l 1,17,-1
 500 1000 l 1,18,-1
 500 900 l 1,19,-1
 200 900 l 1,16,-1
500 100 m 1,20,-1
 500 500 l 1,21,-1
 600 500 l 1,22,-1
 600 100 l 1,23,-1
 500 100 l 1,20,-1
500 600 m 1,24,-1
 500 900 l 1,25,-1
 600 900 l 1,26,-1
 600 600 l 1,27,-1
 500 600 l 1,24,-1
EndSplineSet
EndChar

StartChar: nine
Encoding: 57 57 25
Width: 700
GlyphClass: 1
Flags: W
LayerCount: 2
Fore
SplineSet
100 100 m 1,0,-1
 100 200 l 1,1,-1
 200 200 l 1,2,-1
 200 100 l 1,3,-1
 100 100 l 1,0,-1
100 500 m 1,4,-1
 100 900 l 1,5,-1
 200 900 l 1,6,-1
 200 500 l 1,7,-1
 100 500 l 1,4,-1
200 100 m 1,8,-1
 500 100 l 1,9,-1
 500 0 l 1,10,-1
 200 0 l 1,11,-1
 200 100 l 1,8,-1
200 500 m 1,12,-1
 400 500 l 1,13,-1
 400 400 l 1,14,-1
 200 400 l 1,15,-1
 200 500 l 1,12,-1
200 900 m 1,16,-1
 200 1000 l 1,17,-1
 500 1000 l 1,18,-1
 500 900 l 1,19,-1
 200 900 l 1,16,-1
400 500 m 1,20,-1
 400 600 l 1,21,-1
 500 600 l 1,22,-1
 500 900 l 1,23,-1
 600 900 l 1,24,-1
 600 100 l 1,25,-1
 500 100 l 1,26,-1
 500 500 l 1,27,-1
 400 500 l 1,20,-1
EndSplineSet
EndChar

StartChar: colon
Encoding: 58 58 26
Width: 300
GlyphClass: 1
Flags: W
LayerCount: 2
Fore
SplineSet
100 0 m 1,0,-1
 100 100 l 1,1,-1
 200 100 l 1,2,-1
 200 0 l 1,3,-1
 100 0 l 1,0,-1
100 600 m 1,4,-1
 100 700 l 1,5,-1
 200 700 l 1,6,-1
 200 600 l 1,7,-1
 100 600 l 1,4,-1
EndSplineSet
EndChar

StartChar: semicolon
Encoding: 59 59 27
Width: 300
GlyphClass: 1
Flags: W
LayerCount: 2
Fore
SplineSet
0 -100 m 1,0,-1
 0 0 l 1,1,-1
 100 0 l 1,2,-1
 100 -100 l 1,3,-1
 0 -100 l 1,0,-1
100 0 m 1,4,-1
 100 100 l 1,5,-1
 200 100 l 1,6,-1
 200 0 l 1,7,-1
 100 0 l 1,4,-1
100 600 m 1,8,-1
 100 700 l 1,9,-1
 200 700 l 1,10,-1
 200 600 l 1,11,-1
 100 600 l 1,8,-1
EndSplineSet
EndChar

StartChar: less
Encoding: 60 60 28
Width: 700
GlyphClass: 1
Flags: W
LayerCount: 2
Fore
SplineSet
200 500 m 1,0,-1
 200 600 l 1,1,-1
 300 600 l 1,2,-1
 300 700 l 1,3,-1
 400 700 l 1,4,-1
 400 800 l 1,5,-1
 600 800 l 1,6,-1
 600 700 l 1,7,-1
 500 700 l 1,8,-1
 500 600 l 1,9,-1
 400 600 l 1,10,-1
 400 500 l 1,11,-1
 300 500 l 1,12,-1
 300 400 l 1,13,-1
 400 400 l 1,14,-1
 400 300 l 1,15,-1
 500 300 l 1,16,-1
 500 200 l 1,17,-1
 600 200 l 1,18,-1
 600 100 l 1,19,-1
 400 100 l 1,20,-1
 400 200 l 1,21,-1
 300 200 l 1,22,-1
 300 300 l 1,23,-1
 200 300 l 1,24,-1
 200 400 l 1,25,-1
 100 400 l 1,26,-1
 100 500 l 1,27,-1
 200 500 l 1,0,-1
EndSplineSet
EndChar

StartChar: equal
Encoding: 61 61 29
Width: 700
GlyphClass: 1
Flags: W
LayerCount: 2
Fore
SplineSet
100 500 m 1,0,-1
 100 600 l 1,1,-1
 600 600 l 1,2,-1
 600 500 l 1,3,-1
 100 500 l 1,0,-1
100 300 m 1,4,-1
 100 400 l 1,5,-1
 600 400 l 1,6,-1
 600 300 l 1,7,-1
 100 300 l 1,4,-1
EndSplineSet
EndChar

StartChar: greater
Encoding: 62 62 30
Width: 700
GlyphClass: 1
Flags: W
LayerCount: 2
Fore
SplineSet
200 200 m 1,0,-1
 200 300 l 1,1,-1
 300 300 l 1,2,-1
 300 400 l 1,3,-1
 400 400 l 1,4,-1
 400 500 l 1,5,-1
 300 500 l 1,6,-1
 300 600 l 1,7,-1
 200 600 l 1,8,-1
 200 700 l 1,9,-1
 100 700 l 1,10,-1
 100 800 l 1,11,-1
 300 800 l 1,12,-1
 300 700 l 1,13,-1
 400 700 l 1,14,-1
 400 600 l 1,15,-1
 500 600 l 1,16,-1
 500 500 l 1,17,-1
 600 500 l 1,18,-1
 600 400 l 1,19,-1
 500 400 l 1,20,-1
 500 300 l 1,21,-1
 400 300 l 1,22,-1
 400 200 l 1,23,-1
 300 200 l 1,24,-1
 300 100 l 1,25,-1
 100 100 l 1,26,-1
 100 200 l 1,27,-1
 200 200 l 1,0,-1
EndSplineSet
EndChar

StartChar: question
Encoding: 63 63 31
Width: 700
GlyphClass: 1
Flags: W
LayerCount: 2
Fore
SplineSet
100 700 m 1,0,-1
 100 900 l 1,1,-1
 200 900 l 1,2,-1
 200 700 l 1,3,-1
 100 700 l 1,0,-1
200 900 m 1,4,-1
 200 1000 l 1,5,-1
 500 1000 l 1,6,-1
 500 900 l 1,7,-1
 200 900 l 1,4,-1
300 0 m 1,8,-1
 300 100 l 1,9,-1
 400 100 l 1,10,-1
 400 0 l 1,11,-1
 300 0 l 1,8,-1
300 200 m 1,12,-1
 300 500 l 1,13,-1
 400 500 l 1,14,-1
 400 200 l 1,15,-1
 300 200 l 1,12,-1
400 500 m 1,16,-1
 400 600 l 1,17,-1
 500 600 l 1,18,-1
 500 500 l 1,19,-1
 400 500 l 1,16,-1
500 600 m 1,20,-1
 500 900 l 1,21,-1
 600 900 l 1,22,-1
 600 600 l 1,23,-1
 500 600 l 1,20,-1
EndSplineSet
EndChar

StartChar: at
Encoding: 64 64 32
Width: 1400
GlyphClass: 1
Flags: W
LayerCount: 2
Fore
SplineSet
900 1100 m 1,0,-1
 900 1000 l 1,1,-1
 500 1000 l 1,2,-1
 500 1100 l 1,3,-1
 900 1100 l 1,0,-1
900 200 m 1,4,-1
 900 300 l 1,5,-1
 1200 300 l 1,6,-1
 1200 200 l 1,7,-1
 900 200 l 1,4,-1
900 400 m 1,8,-1
 900 300 l 1,9,-1
 800 300 l 1,10,-1
 800 400 l 1,11,-1
 900 400 l 1,8,-1
900 600 m 1,12,-1
 600 600 l 1,13,-1
 600 700 l 1,14,-1
 1000 700 l 1,15,-1
 1000 400 l 1,16,-1
 900 400 l 1,17,-1
 900 600 l 1,12,-1
900 1000 m 1,18,-1
 1100 1000 l 1,19,-1
 1100 900 l 1,20,-1
 900 900 l 1,21,-1
 900 1000 l 1,18,-1
1300 300 m 1,22,-1
 1200 300 l 1,23,-1
 1200 700 l 1,24,-1
 1300 700 l 1,25,-1
 1300 300 l 1,22,-1
800 200 m 1,26,-1
 600 200 l 1,27,-1
 600 300 l 1,28,-1
 800 300 l 1,29,-1
 800 200 l 1,26,-1
300 100 m 1,30,-1
 500 100 l 1,31,-1
 500 0 l 1,32,-1
 300 0 l 1,33,-1
 300 100 l 1,30,-1
300 300 m 1,34,-1
 300 100 l 1,35,-1
 200 100 l 1,36,-1
 200 300 l 1,37,-1
 300 300 l 1,34,-1
300 700 m 1,38,-1
 200 700 l 1,39,-1
 200 900 l 1,40,-1
 300 900 l 1,41,-1
 300 700 l 1,38,-1
300 900 m 1,42,-1
 300 1000 l 1,43,-1
 500 1000 l 1,44,-1
 500 900 l 1,45,-1
 300 900 l 1,42,-1
1200 100 m 1,46,-1
 1200 0 l 1,47,-1
 1000 0 l 1,48,-1
 1000 100 l 1,49,-1
 1200 100 l 1,46,-1
1200 700 m 1,50,-1
 1100 700 l 1,51,-1
 1100 900 l 1,52,-1
 1200 900 l 1,53,-1
 1200 700 l 1,50,-1
200 300 m 1,54,-1
 100 300 l 1,55,-1
 100 700 l 1,56,-1
 200 700 l 1,57,-1
 200 300 l 1,54,-1
600 300 m 1,58,-1
 500 300 l 1,59,-1
 500 600 l 1,60,-1
 600 600 l 1,61,-1
 600 300 l 1,58,-1
1000 0 m 1,62,-1
 1000 -100 l 1,63,-1
 500 -100 l 1,64,-1
 500 0 l 1,65,-1
 1000 0 l 1,62,-1
EndSplineSet
EndChar

StartChar: A
Encoding: 65 65 33
Width: 900
GlyphClass: 1
Flags: W
LayerCount: 2
Fore
SplineSet
0 200 m 1,0,-1
 100 200 l 1,1,-1
 100 0 l 1,2,-1
 0 0 l 1,3,-1
 0 200 l 1,0,-1
900 0 m 1,4,-1
 800 0 l 1,5,-1
 800 200 l 1,6,-1
 900 200 l 1,7,-1
 900 0 l 1,4,-1
200 200 m 1,8,-1
 100 200 l 1,9,-1
 100 400 l 1,10,-1
 200 400 l 1,11,-1
 200 600 l 1,12,-1
 300 600 l 1,13,-1
 300 400 l 1,14,-1
 600 400 l 1,15,-1
 600 600 l 1,16,-1
 700 600 l 1,17,-1
 700 400 l 1,18,-1
 800 400 l 1,19,-1
 800 200 l 1,20,-1
 700 200 l 1,21,-1
 700 300 l 1,22,-1
 200 300 l 1,23,-1
 200 200 l 1,8,-1
400 600 m 1,24,-1
 300 600 l 1,25,-1
 300 800 l 1,26,-1
 400 800 l 1,27,-1
 400 600 l 1,24,-1
400 1000 m 1,28,-1
 500 1000 l 1,29,-1
 500 800 l 1,30,-1
 400 800 l 1,31,-1
 400 1000 l 1,28,-1
600 600 m 1,32,-1
 500 600 l 1,33,-1
 500 800 l 1,34,-1
 600 800 l 1,35,-1
 600 600 l 1,32,-1
EndSplineSet
EndChar

StartChar: B
Encoding: 66 66 34
Width: 900
GlyphClass: 1
Flags: W
LayerCount: 2
Fore
SplineSet
800 100 m 1,0,-1
 700 100 l 1,1,-1
 700 500 l 1,2,-1
 800 500 l 1,3,-1
 800 100 l 1,0,-1
800 600 m 1,4,-1
 700 600 l 1,5,-1
 700 900 l 1,6,-1
 800 900 l 1,7,-1
 800 600 l 1,4,-1
100 0 m 1,8,-1
 100 1000 l 1,9,-1
 700 1000 l 1,10,-1
 700 900 l 1,11,-1
 200 900 l 1,12,-1
 200 600 l 1,13,-1
 700 600 l 1,14,-1
 700 500 l 1,15,-1
 200 500 l 1,16,-1
 200 100 l 1,17,-1
 700 100 l 1,18,-1
 700 0 l 1,19,-1
 100 0 l 1,8,-1
EndSplineSet
EndChar

StartChar: C
Encoding: 67 67 35
Width: 900
GlyphClass: 1
Flags: W
LayerCount: 2
Fore
SplineSet
900 200 m 1,0,-1
 800 200 l 1,1,-1
 800 300 l 1,2,-1
 900 300 l 1,3,-1
 900 200 l 1,0,-1
900 700 m 1,4,-1
 800 700 l 1,5,-1
 800 800 l 1,6,-1
 900 800 l 1,7,-1
 900 700 l 1,4,-1
200 200 m 1,8,-1
 100 200 l 1,9,-1
 100 800 l 1,10,-1
 200 800 l 1,11,-1
 200 200 l 1,8,-1
200 100 m 1,12,-1
 200 200 l 1,13,-1
 300 200 l 1,14,-1
 300 100 l 1,15,-1
 200 100 l 1,12,-1
200 800 m 1,16,-1
 200 900 l 1,17,-1
 300 900 l 1,18,-1
 300 800 l 1,19,-1
 200 800 l 1,16,-1
800 200 m 1,20,-1
 800 100 l 1,21,-1
 700 100 l 1,22,-1
 700 200 l 1,23,-1
 800 200 l 1,20,-1
800 900 m 1,24,-1
 800 800 l 1,25,-1
 700 800 l 1,26,-1
 700 900 l 1,27,-1
 800 900 l 1,24,-1
300 100 m 1,28,-1
 700 100 l 1,29,-1
 700 0 l 1,30,-1
 300 0 l 1,31,-1
 300 100 l 1,28,-1
300 900 m 1,32,-1
 300 1000 l 1,33,-1
 700 1000 l 1,34,-1
 700 900 l 1,35,-1
 300 900 l 1,32,-1
EndSplineSet
EndChar

StartChar: D
Encoding: 68 68 36
Width: 1000
GlyphClass: 1
Flags: W
LayerCount: 2
Fore
SplineSet
800 200 m 1,0,-1
 800 100 l 1,1,-1
 700 100 l 1,2,-1
 700 200 l 1,3,-1
 800 200 l 1,0,-1
800 900 m 1,4,-1
 800 800 l 1,5,-1
 700 800 l 1,6,-1
 700 900 l 1,7,-1
 800 900 l 1,4,-1
800 800 m 1,8,-1
 900 800 l 1,9,-1
 900 200 l 1,10,-1
 800 200 l 1,11,-1
 800 800 l 1,8,-1
100 0 m 1,12,-1
 100 1000 l 1,13,-1
 700 1000 l 1,14,-1
 700 900 l 1,15,-1
 200 900 l 1,16,-1
 200 100 l 1,17,-1
 700 100 l 1,18,-1
 700 0 l 1,19,-1
 100 0 l 1,12,-1
EndSplineSet
EndChar

StartChar: E
Encoding: 69 69 37
Width: 900
GlyphClass: 1
Flags: W
LayerCount: 2
Fore
SplineSet
800 100 m 1,0,-1
 800 0 l 1,1,-1
 100 0 l 1,2,-1
 100 1000 l 1,3,-1
 800 1000 l 1,4,-1
 800 900 l 1,5,-1
 200 900 l 1,6,-1
 200 600 l 1,7,-1
 700 600 l 1,8,-1
 700 500 l 1,9,-1
 200 500 l 1,10,-1
 200 100 l 1,11,-1
 800 100 l 1,0,-1
EndSplineSet
EndChar

StartChar: F
Encoding: 70 70 38
Width: 800
GlyphClass: 1
Flags: W
LayerCount: 2
Fore
SplineSet
800 1000 m 1,0,-1
 800 900 l 1,1,-1
 200 900 l 1,2,-1
 200 600 l 1,3,-1
 700 600 l 1,4,-1
 700 500 l 1,5,-1
 200 500 l 1,6,-1
 200 0 l 1,7,-1
 100 0 l 1,8,-1
 100 1000 l 1,9,-1
 800 1000 l 1,0,-1
EndSplineSet
EndChar

StartChar: G
Encoding: 71 71 39
Width: 1000
GlyphClass: 1
Flags: W
LayerCount: 2
Fore
SplineSet
900 0 m 1,0,-1
 800 0 l 1,1,-1
 800 100 l 1,2,-1
 700 100 l 1,3,-1
 700 200 l 1,4,-1
 800 200 l 1,5,-1
 800 400 l 1,6,-1
 600 400 l 1,7,-1
 600 500 l 1,8,-1
 900 500 l 1,9,-1
 900 0 l 1,0,-1
900 700 m 1,10,-1
 800 700 l 1,11,-1
 800 800 l 1,12,-1
 900 800 l 1,13,-1
 900 700 l 1,10,-1
200 200 m 1,14,-1
 100 200 l 1,15,-1
 100 800 l 1,16,-1
 200 800 l 1,17,-1
 200 200 l 1,14,-1
200 100 m 1,18,-1
 200 200 l 1,19,-1
 300 200 l 1,20,-1
 300 100 l 1,21,-1
 200 100 l 1,18,-1
200 800 m 1,22,-1
 200 900 l 1,23,-1
 300 900 l 1,24,-1
 300 800 l 1,25,-1
 200 800 l 1,22,-1
800 900 m 1,26,-1
 800 800 l 1,27,-1
 700 800 l 1,28,-1
 700 900 l 1,29,-1
 800 900 l 1,26,-1
300 100 m 1,30,-1
 700 100 l 1,31,-1
 700 0 l 1,32,-1
 300 0 l 1,33,-1
 300 100 l 1,30,-1
300 900 m 1,34,-1
 300 1000 l 1,35,-1
 700 1000 l 1,36,-1
 700 900 l 1,37,-1
 300 900 l 1,34,-1
EndSplineSet
EndChar

StartChar: H
Encoding: 72 72 40
Width: 1000
GlyphClass: 1
Flags: W
LayerCount: 2
Fore
SplineSet
800 0 m 1,0,-1
 800 500 l 1,1,-1
 200 500 l 1,2,-1
 200 0 l 1,3,-1
 100 0 l 1,4,-1
 100 1000 l 1,5,-1
 200 1000 l 1,6,-1
 200 600 l 1,7,-1
 800 600 l 1,8,-1
 800 1000 l 1,9,-1
 900 1000 l 1,10,-1
 900 0 l 1,11,-1
 800 0 l 1,0,-1
EndSplineSet
EndChar

StartChar: I
Encoding: 73 73 41
Width: 300
GlyphClass: 1
Flags: W
LayerCount: 2
Fore
SplineSet
100 0 m 1,0,-1
 100 1000 l 1,1,-1
 200 1000 l 1,2,-1
 200 0 l 1,3,-1
 100 0 l 1,0,-1
EndSplineSet
EndChar

StartChar: J
Encoding: 74 74 42
Width: 700
GlyphClass: 1
Flags: W
LayerCount: 2
Fore
SplineSet
100 100 m 1,0,-1
 100 300 l 1,1,-1
 200 300 l 1,2,-1
 200 100 l 1,3,-1
 100 100 l 1,0,-1
500 100 m 1,4,-1
 500 0 l 1,5,-1
 200 0 l 1,6,-1
 200 100 l 1,7,-1
 500 100 l 1,4,-1
500 1000 m 1,8,-1
 600 1000 l 1,9,-1
 600 100 l 1,10,-1
 500 100 l 1,11,-1
 500 1000 l 1,8,-1
EndSplineSet
EndChar

StartChar: K
Encoding: 75 75 43
Width: 800
GlyphClass: 1
Flags: W
LayerCount: 2
Fore
SplineSet
200 0 m 1,0,-1
 100 0 l 1,1,-1
 100 1000 l 1,2,-1
 200 1000 l 1,3,-1
 200 600 l 1,4,-1
 300 600 l 1,5,-1
 300 500 l 1,6,-1
 200 500 l 1,7,-1
 200 0 l 1,0,-1
400 500 m 1,8,-1
 400 400 l 1,9,-1
 300 400 l 1,10,-1
 300 500 l 1,11,-1
 400 500 l 1,8,-1
400 400 m 1,12,-1
 500 400 l 1,13,-1
 500 300 l 1,14,-1
 400 300 l 1,15,-1
 400 400 l 1,12,-1
400 700 m 1,16,-1
 400 600 l 1,17,-1
 300 600 l 1,18,-1
 300 700 l 1,19,-1
 400 700 l 1,16,-1
400 800 m 1,20,-1
 500 800 l 1,21,-1
 500 700 l 1,22,-1
 400 700 l 1,23,-1
 400 800 l 1,20,-1
600 200 m 1,24,-1
 500 200 l 1,25,-1
 500 300 l 1,26,-1
 600 300 l 1,27,-1
 600 200 l 1,24,-1
600 100 m 1,28,-1
 600 200 l 1,29,-1
 700 200 l 1,30,-1
 700 100 l 1,31,-1
 600 100 l 1,28,-1
600 900 m 1,32,-1
 600 1000 l 1,33,-1
 700 1000 l 1,34,-1
 700 900 l 1,35,-1
 600 900 l 1,32,-1
600 800 m 1,36,-1
 500 800 l 1,37,-1
 500 900 l 1,38,-1
 600 900 l 1,39,-1
 600 800 l 1,36,-1
800 100 m 1,40,-1
 800 0 l 1,41,-1
 700 0 l 1,42,-1
 700 100 l 1,43,-1
 800 100 l 1,40,-1
EndSplineSet
EndChar

StartChar: L
Encoding: 76 76 44
Width: 700
GlyphClass: 1
Flags: W
LayerCount: 2
Fore
SplineSet
100 0 m 1,0,-1
 100 1000 l 1,1,-1
 200 1000 l 1,2,-1
 200 100 l 1,3,-1
 700 100 l 1,4,-1
 700 0 l 1,5,-1
 100 0 l 1,0,-1
EndSplineSet
EndChar

StartChar: M
Encoding: 77 77 45
Width: 1100
GlyphClass: 1
Flags: W
LayerCount: 2
Fore
SplineSet
900 0 m 1,0,-1
 900 600 l 1,1,-1
 800 600 l 1,2,-1
 800 800 l 1,3,-1
 900 800 l 1,4,-1
 900 1000 l 1,5,-1
 1000 1000 l 1,6,-1
 1000 0 l 1,7,-1
 900 0 l 1,0,-1
200 0 m 1,8,-1
 100 0 l 1,9,-1
 100 1000 l 1,10,-1
 200 1000 l 1,11,-1
 200 800 l 1,12,-1
 300 800 l 1,13,-1
 300 600 l 1,14,-1
 200 600 l 1,15,-1
 200 0 l 1,8,-1
400 200 m 1,16,-1
 400 400 l 1,17,-1
 500 400 l 1,18,-1
 500 200 l 1,19,-1
 400 200 l 1,16,-1
400 400 m 1,20,-1
 300 400 l 1,21,-1
 300 600 l 1,22,-1
 400 600 l 1,23,-1
 400 400 l 1,20,-1
600 200 m 1,24,-1
 600 0 l 1,25,-1
 500 0 l 1,26,-1
 500 200 l 1,27,-1
 600 200 l 1,24,-1
600 400 m 1,28,-1
 700 400 l 1,29,-1
 700 200 l 1,30,-1
 600 200 l 1,31,-1
 600 400 l 1,28,-1
800 400 m 1,32,-1
 700 400 l 1,33,-1
 700 600 l 1,34,-1
 800 600 l 1,35,-1
 800 400 l 1,32,-1
EndSplineSet
EndChar

StartChar: N
Encoding: 78 78 46
Width: 1000
GlyphClass: 1
Flags: W
LayerCount: 2
Fore
SplineSet
900 0 m 1,0,-1
 800 0 l 1,1,-1
 800 100 l 1,2,-1
 700 100 l 1,3,-1
 700 200 l 1,4,-1
 800 200 l 1,5,-1
 800 1000 l 1,6,-1
 900 1000 l 1,7,-1
 900 0 l 1,0,-1
200 0 m 1,8,-1
 100 0 l 1,9,-1
 100 1000 l 1,10,-1
 200 1000 l 1,11,-1
 200 900 l 1,12,-1
 300 900 l 1,13,-1
 300 800 l 1,14,-1
 200 800 l 1,15,-1
 200 0 l 1,8,-1
400 500 m 1,16,-1
 400 600 l 1,17,-1
 500 600 l 1,18,-1
 500 500 l 1,19,-1
 400 500 l 1,16,-1
400 600 m 1,20,-1
 300 600 l 1,21,-1
 300 800 l 1,22,-1
 400 800 l 1,23,-1
 400 600 l 1,20,-1
600 200 m 1,24,-1
 600 400 l 1,25,-1
 700 400 l 1,26,-1
 700 200 l 1,27,-1
 600 200 l 1,24,-1
600 500 m 1,28,-1
 600 400 l 1,29,-1
 500 400 l 1,30,-1
 500 500 l 1,31,-1
 600 500 l 1,28,-1
EndSplineSet
EndChar

StartChar: O
Encoding: 79 79 47
Width: 1000
GlyphClass: 1
Flags: W
LayerCount: 2
Fore
SplineSet
800 200 m 1,0,-1
 800 100 l 1,1,-1
 700 100 l 1,2,-1
 700 200 l 1,3,-1
 800 200 l 1,0,-1
800 900 m 1,4,-1
 800 800 l 1,5,-1
 700 800 l 1,6,-1
 700 900 l 1,7,-1
 800 900 l 1,4,-1
800 800 m 1,8,-1
 900 800 l 1,9,-1
 900 200 l 1,10,-1
 800 200 l 1,11,-1
 800 800 l 1,8,-1
100 200 m 1,12,-1
 100 800 l 1,13,-1
 200 800 l 1,14,-1
 200 200 l 1,15,-1
 100 200 l 1,12,-1
200 200 m 1,16,-1
 300 200 l 1,17,-1
 300 100 l 1,18,-1
 200 100 l 1,19,-1
 200 200 l 1,16,-1
200 800 m 1,20,-1
 200 900 l 1,21,-1
 300 900 l 1,22,-1
 300 800 l 1,23,-1
 200 800 l 1,20,-1
300 100 m 1,24,-1
 700 100 l 1,25,-1
 700 0 l 1,26,-1
 300 0 l 1,27,-1
 300 100 l 1,24,-1
300 900 m 1,28,-1
 300 1000 l 1,29,-1
 700 1000 l 1,30,-1
 700 900 l 1,31,-1
 300 900 l 1,28,-1
EndSplineSet
EndChar

StartChar: P
Encoding: 80 80 48
Width: 900
GlyphClass: 1
Flags: W
LayerCount: 2
Fore
SplineSet
800 500 m 1,0,-1
 700 500 l 1,1,-1
 700 600 l 1,2,-1
 800 600 l 1,3,-1
 800 500 l 1,0,-1
800 600 m 1,4,-1
 800 800 l 1,5,-1
 900 800 l 1,6,-1
 900 600 l 1,7,-1
 800 600 l 1,4,-1
800 900 m 1,8,-1
 800 800 l 1,9,-1
 700 800 l 1,10,-1
 700 900 l 1,11,-1
 800 900 l 1,8,-1
100 0 m 1,12,-1
 100 1000 l 1,13,-1
 700 1000 l 1,14,-1
 700 900 l 1,15,-1
 200 900 l 1,16,-1
 200 500 l 1,17,-1
 700 500 l 1,18,-1
 700 400 l 1,19,-1
 200 400 l 1,20,-1
 200 0 l 1,21,-1
 100 0 l 1,12,-1
EndSplineSet
EndChar

StartChar: Q
Encoding: 81 81 49
Width: 1000
GlyphClass: 1
Flags: W
LayerCount: 2
Fore
SplineSet
900 200 m 1,0,-1
 800 200 l 1,1,-1
 800 800 l 1,2,-1
 900 800 l 1,3,-1
 900 200 l 1,0,-1
900 100 m 1,4,-1
 900 0 l 1,5,-1
 800 0 l 1,6,-1
 800 100 l 1,7,-1
 900 100 l 1,4,-1
200 200 m 1,8,-1
 100 200 l 1,9,-1
 100 800 l 1,10,-1
 200 800 l 1,11,-1
 200 200 l 1,8,-1
200 100 m 1,12,-1
 200 200 l 1,13,-1
 300 200 l 1,14,-1
 300 100 l 1,15,-1
 200 100 l 1,12,-1
200 800 m 1,16,-1
 200 900 l 1,17,-1
 300 900 l 1,18,-1
 300 800 l 1,19,-1
 200 800 l 1,16,-1
600 200 m 1,20,-1
 600 300 l 1,21,-1
 700 300 l 1,22,-1
 700 200 l 1,23,-1
 600 200 l 1,20,-1
800 200 m 1,24,-1
 800 100 l 1,25,-1
 700 100 l 1,26,-1
 700 200 l 1,27,-1
 800 200 l 1,24,-1
800 900 m 1,28,-1
 800 800 l 1,29,-1
 700 800 l 1,30,-1
 700 900 l 1,31,-1
 800 900 l 1,28,-1
300 100 m 1,32,-1
 700 100 l 1,33,-1
 700 0 l 1,34,-1
 300 0 l 1,35,-1
 300 100 l 1,32,-1
300 900 m 1,36,-1
 300 1000 l 1,37,-1
 700 1000 l 1,38,-1
 700 900 l 1,39,-1
 300 900 l 1,36,-1
EndSplineSet
EndChar

StartChar: R
Encoding: 82 82 50
Width: 1000
GlyphClass: 1
Flags: W
LayerCount: 2
Fore
SplineSet
800 100 m 1,0,-1
 800 400 l 1,1,-1
 900 400 l 1,2,-1
 900 100 l 1,3,-1
 800 100 l 1,0,-1
800 400 m 1,4,-1
 200 400 l 1,5,-1
 200 0 l 1,6,-1
 100 0 l 1,7,-1
 100 1000 l 1,8,-1
 700 1000 l 1,9,-1
 700 900 l 1,10,-1
 200 900 l 1,11,-1
 200 500 l 1,12,-1
 700 500 l 1,13,-1
 700 600 l 1,14,-1
 800 600 l 1,15,-1
 800 400 l 1,4,-1
800 600 m 1,16,-1
 800 800 l 1,17,-1
 900 800 l 1,18,-1
 900 600 l 1,19,-1
 800 600 l 1,16,-1
800 900 m 1,20,-1
 800 800 l 1,21,-1
 700 800 l 1,22,-1
 700 900 l 1,23,-1
 800 900 l 1,20,-1
900 100 m 1,24,-1
 1000 100 l 1,25,-1
 1000 0 l 1,26,-1
 900 0 l 1,27,-1
 900 100 l 1,24,-1
EndSplineSet
EndChar

StartChar: S
Encoding: 83 83 51
Width: 900
GlyphClass: 1
Flags: W
LayerCount: 2
Fore
SplineSet
200 100 m 1,0,-1
 100 100 l 1,1,-1
 100 300 l 1,2,-1
 200 300 l 1,3,-1
 200 100 l 1,0,-1
200 0 m 1,4,-1
 200 100 l 1,5,-1
 700 100 l 1,6,-1
 700 0 l 1,7,-1
 200 0 l 1,4,-1
200 500 m 1,8,-1
 200 600 l 1,9,-1
 500 600 l 1,10,-1
 500 500 l 1,11,-1
 200 500 l 1,8,-1
200 600 m 1,12,-1
 100 600 l 1,13,-1
 100 900 l 1,14,-1
 200 900 l 1,15,-1
 200 600 l 1,12,-1
200 900 m 1,16,-1
 200 1000 l 1,17,-1
 700 1000 l 1,18,-1
 700 900 l 1,19,-1
 200 900 l 1,16,-1
800 100 m 1,20,-1
 700 100 l 1,21,-1
 700 400 l 1,22,-1
 800 400 l 1,23,-1
 800 100 l 1,20,-1
800 700 m 1,24,-1
 700 700 l 1,25,-1
 700 900 l 1,26,-1
 800 900 l 1,27,-1
 800 700 l 1,24,-1
500 500 m 1,28,-1
 700 500 l 1,29,-1
 700 400 l 1,30,-1
 500 400 l 1,31,-1
 500 500 l 1,28,-1
EndSplineSet
EndChar

StartChar: T
Encoding: 84 84 52
Width: 900
GlyphClass: 1
Flags: W
LayerCount: 2
Fore
SplineSet
400 0 m 1,0,-1
 400 900 l 1,1,-1
 0 900 l 1,2,-1
 0 1000 l 1,3,-1
 900 1000 l 1,4,-1
 900 900 l 1,5,-1
 500 900 l 1,6,-1
 500 0 l 1,7,-1
 400 0 l 1,0,-1
EndSplineSet
EndChar

StartChar: U
Encoding: 85 85 53
Width: 1000
GlyphClass: 1
Flags: W
LayerCount: 2
Fore
SplineSet
800 200 m 1,0,-1
 800 100 l 1,1,-1
 700 100 l 1,2,-1
 700 200 l 1,3,-1
 800 200 l 1,0,-1
800 1000 m 1,4,-1
 900 1000 l 1,5,-1
 900 200 l 1,6,-1
 800 200 l 1,7,-1
 800 1000 l 1,4,-1
100 200 m 1,8,-1
 100 1000 l 1,9,-1
 200 1000 l 1,10,-1
 200 200 l 1,11,-1
 100 200 l 1,8,-1
200 200 m 1,12,-1
 300 200 l 1,13,-1
 300 100 l 1,14,-1
 200 100 l 1,15,-1
 200 200 l 1,12,-1
300 100 m 1,16,-1
 700 100 l 1,17,-1
 700 0 l 1,18,-1
 300 0 l 1,19,-1
 300 100 l 1,16,-1
EndSplineSet
EndChar

StartChar: V
Encoding: 86 86 54
Width: 900
GlyphClass: 1
Flags: W
LayerCount: 2
Fore
SplineSet
0 1000 m 1,0,-1
 100 1000 l 1,1,-1
 100 800 l 1,2,-1
 0 800 l 1,3,-1
 0 1000 l 1,0,-1
900 800 m 1,4,-1
 800 800 l 1,5,-1
 800 1000 l 1,6,-1
 900 1000 l 1,7,-1
 900 800 l 1,4,-1
200 400 m 1,8,-1
 200 600 l 1,9,-1
 300 600 l 1,10,-1
 300 400 l 1,11,-1
 200 400 l 1,8,-1
200 600 m 1,12,-1
 100 600 l 1,13,-1
 100 800 l 1,14,-1
 200 800 l 1,15,-1
 200 600 l 1,12,-1
400 200 m 1,16,-1
 500 200 l 1,17,-1
 500 0 l 1,18,-1
 400 0 l 1,19,-1
 400 200 l 1,16,-1
400 400 m 1,20,-1
 400 200 l 1,21,-1
 300 200 l 1,22,-1
 300 400 l 1,23,-1
 400 400 l 1,20,-1
600 200 m 1,24,-1
 500 200 l 1,25,-1
 500 400 l 1,26,-1
 600 400 l 1,27,-1
 600 200 l 1,24,-1
600 400 m 1,28,-1
 600 600 l 1,29,-1
 700 600 l 1,30,-1
 700 400 l 1,31,-1
 600 400 l 1,28,-1
800 600 m 1,32,-1
 700 600 l 1,33,-1
 700 800 l 1,34,-1
 800 800 l 1,35,-1
 800 600 l 1,32,-1
EndSplineSet
EndChar

StartChar: W
Encoding: 87 87 55
Width: 1300
GlyphClass: 1
Flags: W
LayerCount: 2
Fore
SplineSet
0 700 m 1,0,-1
 0 1000 l 1,1,-1
 100 1000 l 1,2,-1
 100 700 l 1,3,-1
 0 700 l 1,0,-1
900 200 m 1,4,-1
 800 200 l 1,5,-1
 800 500 l 1,6,-1
 900 500 l 1,7,-1
 900 200 l 1,4,-1
900 0 m 1,8,-1
 900 200 l 1,9,-1
 1000 200 l 1,10,-1
 1000 0 l 1,11,-1
 900 0 l 1,8,-1
200 200 m 1,12,-1
 200 500 l 1,13,-1
 300 500 l 1,14,-1
 300 200 l 1,15,-1
 200 200 l 1,12,-1
200 500 m 1,16,-1
 100 500 l 1,17,-1
 100 700 l 1,18,-1
 200 700 l 1,19,-1
 200 500 l 1,16,-1
1100 200 m 1,20,-1
 1000 200 l 1,21,-1
 1000 500 l 1,22,-1
 1100 500 l 1,23,-1
 1100 200 l 1,20,-1
1100 500 m 1,24,-1
 1100 700 l 1,25,-1
 1200 700 l 1,26,-1
 1200 500 l 1,27,-1
 1100 500 l 1,24,-1
400 200 m 1,28,-1
 400 0 l 1,29,-1
 300 0 l 1,30,-1
 300 200 l 1,31,-1
 400 200 l 1,28,-1
400 500 m 1,32,-1
 500 500 l 1,33,-1
 500 200 l 1,34,-1
 400 200 l 1,35,-1
 400 500 l 1,32,-1
1300 700 m 1,36,-1
 1200 700 l 1,37,-1
 1200 1000 l 1,38,-1
 1300 1000 l 1,39,-1
 1300 700 l 1,36,-1
600 500 m 1,40,-1
 500 500 l 1,41,-1
 500 700 l 1,42,-1
 600 700 l 1,43,-1
 600 500 l 1,40,-1
600 700 m 1,44,-1
 600 1000 l 1,45,-1
 700 1000 l 1,46,-1
 700 700 l 1,47,-1
 600 700 l 1,44,-1
800 500 m 1,48,-1
 700 500 l 1,49,-1
 700 700 l 1,50,-1
 800 700 l 1,51,-1
 800 500 l 1,48,-1
EndSplineSet
EndChar

StartChar: X
Encoding: 88 88 56
Width: 800
GlyphClass: 1
Flags: W
LayerCount: 2
Fore
SplineSet
0 200 m 1,0,-1
 100 200 l 1,1,-1
 100 0 l 1,2,-1
 0 0 l 1,3,-1
 0 200 l 1,0,-1
0 1000 m 1,4,-1
 100 1000 l 1,5,-1
 100 800 l 1,6,-1
 0 800 l 1,7,-1
 0 1000 l 1,4,-1
200 200 m 1,8,-1
 100 200 l 1,9,-1
 100 300 l 1,10,-1
 200 300 l 1,11,-1
 200 200 l 1,8,-1
200 300 m 1,12,-1
 200 400 l 1,13,-1
 300 400 l 1,14,-1
 300 300 l 1,15,-1
 200 300 l 1,12,-1
200 700 m 1,16,-1
 100 700 l 1,17,-1
 100 800 l 1,18,-1
 200 800 l 1,19,-1
 200 700 l 1,16,-1
200 600 m 1,20,-1
 200 700 l 1,21,-1
 300 700 l 1,22,-1
 300 600 l 1,23,-1
 200 600 l 1,20,-1
600 200 m 1,24,-1
 600 300 l 1,25,-1
 700 300 l 1,26,-1
 700 200 l 1,27,-1
 600 200 l 1,24,-1
600 400 m 1,28,-1
 600 300 l 1,29,-1
 500 300 l 1,30,-1
 500 400 l 1,31,-1
 600 400 l 1,28,-1
600 700 m 1,32,-1
 600 600 l 1,33,-1
 500 600 l 1,34,-1
 500 700 l 1,35,-1
 600 700 l 1,32,-1
600 800 m 1,36,-1
 700 800 l 1,37,-1
 700 700 l 1,38,-1
 600 700 l 1,39,-1
 600 800 l 1,36,-1
800 0 m 1,40,-1
 700 0 l 1,41,-1
 700 200 l 1,42,-1
 800 200 l 1,43,-1
 800 0 l 1,40,-1
800 800 m 1,44,-1
 700 800 l 1,45,-1
 700 1000 l 1,46,-1
 800 1000 l 1,47,-1
 800 800 l 1,44,-1
300 400 m 1,48,-1
 300 600 l 1,49,-1
 500 600 l 1,50,-1
 500 400 l 1,51,-1
 300 400 l 1,48,-1
EndSplineSet
EndChar

StartChar: Y
Encoding: 89 89 57
Width: 900
GlyphClass: 1
Flags: W
LayerCount: 2
Fore
SplineSet
0 1000 m 1,0,-1
 100 1000 l 1,1,-1
 100 800 l 1,2,-1
 0 800 l 1,3,-1
 0 1000 l 1,0,-1
900 800 m 1,4,-1
 800 800 l 1,5,-1
 800 1000 l 1,6,-1
 900 1000 l 1,7,-1
 900 800 l 1,4,-1
200 700 m 1,8,-1
 100 700 l 1,9,-1
 100 800 l 1,10,-1
 200 800 l 1,11,-1
 200 700 l 1,8,-1
200 600 m 1,12,-1
 200 700 l 1,13,-1
 300 700 l 1,14,-1
 300 600 l 1,15,-1
 200 600 l 1,12,-1
400 0 m 1,16,-1
 400 500 l 1,17,-1
 500 500 l 1,18,-1
 500 0 l 1,19,-1
 400 0 l 1,16,-1
400 500 m 1,20,-1
 300 500 l 1,21,-1
 300 600 l 1,22,-1
 400 600 l 1,23,-1
 400 500 l 1,20,-1
600 500 m 1,24,-1
 500 500 l 1,25,-1
 500 600 l 1,26,-1
 600 600 l 1,27,-1
 600 500 l 1,24,-1
600 600 m 1,28,-1
 600 700 l 1,29,-1
 700 700 l 1,30,-1
 700 600 l 1,31,-1
 600 600 l 1,28,-1
800 700 m 1,32,-1
 700 700 l 1,33,-1
 700 800 l 1,34,-1
 800 800 l 1,35,-1
 800 700 l 1,32,-1
EndSplineSet
EndChar

StartChar: Z
Encoding: 90 90 58
Width: 800
GlyphClass: 1
Flags: W
LayerCount: 2
Fore
SplineSet
100 200 m 1,0,-1
 200 200 l 1,1,-1
 200 100 l 1,2,-1
 700 100 l 1,3,-1
 700 0 l 1,4,-1
 100 0 l 1,5,-1
 100 200 l 1,0,-1
100 900 m 1,6,-1
 100 1000 l 1,7,-1
 700 1000 l 1,8,-1
 700 800 l 1,9,-1
 600 800 l 1,10,-1
 600 900 l 1,11,-1
 100 900 l 1,6,-1
200 200 m 1,12,-1
 200 400 l 1,13,-1
 300 400 l 1,14,-1
 300 200 l 1,15,-1
 200 200 l 1,12,-1
300 400 m 1,16,-1
 300 500 l 1,17,-1
 400 500 l 1,18,-1
 400 400 l 1,19,-1
 300 400 l 1,16,-1
400 500 m 1,20,-1
 400 600 l 1,21,-1
 500 600 l 1,22,-1
 500 500 l 1,23,-1
 400 500 l 1,20,-1
500 600 m 1,24,-1
 500 800 l 1,25,-1
 600 800 l 1,26,-1
 600 600 l 1,27,-1
 500 600 l 1,24,-1
EndSplineSet
EndChar

StartChar: bracketleft
Encoding: 91 91 59
Width: 400
GlyphClass: 1
Flags: W
LayerCount: 2
Fore
SplineSet
400 -200 m 1,0,-1
 400 -300 l 1,1,-1
 100 -300 l 1,2,-1
 100 1000 l 1,3,-1
 400 1000 l 1,4,-1
 400 900 l 1,5,-1
 200 900 l 1,6,-1
 200 -200 l 1,7,-1
 400 -200 l 1,0,-1
EndSplineSet
EndChar

StartChar: backslash
Encoding: 92 92 60
Width: 400
GlyphClass: 1
Flags: W
LayerCount: 2
Fore
SplineSet
0 700 m 1,0,-1
 0 1000 l 1,1,-1
 100 1000 l 1,2,-1
 100 700 l 1,3,-1
 0 700 l 1,0,-1
100 400 m 1,4,-1
 100 700 l 1,5,-1
 200 700 l 1,6,-1
 200 400 l 1,7,-1
 100 400 l 1,4,-1
200 100 m 1,8,-1
 200 400 l 1,9,-1
 300 400 l 1,10,-1
 300 100 l 1,11,-1
 200 100 l 1,8,-1
300 100 m 1,12,-1
 400 100 l 1,13,-1
 400 -200 l 1,14,-1
 300 -200 l 1,15,-1
 300 100 l 1,12,-1
EndSplineSet
EndChar

StartChar: bracketright
Encoding: 93 93 61
Width: 400
GlyphClass: 1
Flags: W
LayerCount: 2
Fore
SplineSet
0 -200 m 1,0,-1
 200 -200 l 1,1,-1
 200 900 l 1,2,-1
 0 900 l 1,3,-1
 0 1000 l 1,4,-1
 300 1000 l 1,5,-1
 300 -300 l 1,6,-1
 0 -300 l 1,7,-1
 0 -200 l 1,0,-1
EndSplineSet
EndChar

StartChar: asciicircum
Encoding: 94 94 62
Width: 700
GlyphClass: 1
Flags: W
LayerCount: 2
Fore
SplineSet
100 800 m 1,0,-1
 100 900 l 1,1,-1
 200 900 l 1,2,-1
 200 800 l 1,3,-1
 100 800 l 1,0,-1
300 1100 m 1,4,-1
 400 1100 l 1,5,-1
 400 1000 l 1,6,-1
 300 1000 l 1,7,-1
 300 1100 l 1,4,-1
200 900 m 1,8,-1
 200 1000 l 1,9,-1
 300 1000 l 1,10,-1
 300 900 l 1,11,-1
 200 900 l 1,8,-1
400 1000 m 1,12,-1
 500 1000 l 1,13,-1
 500 900 l 1,14,-1
 400 900 l 1,15,-1
 400 1000 l 1,12,-1
500 900 m 1,16,-1
 600 900 l 1,17,-1
 600 800 l 1,18,-1
 500 800 l 1,19,-1
 500 900 l 1,16,-1
EndSplineSet
EndChar

StartChar: underscore
Encoding: 95 95 63
Width: 700
GlyphClass: 1
Flags: W
LayerCount: 2
Fore
SplineSet
0 -200 m 1,0,-1
 0 -100 l 1,1,-1
 700 -100 l 1,2,-1
 700 -200 l 1,3,-1
 0 -200 l 1,0,-1
EndSplineSet
EndChar

StartChar: grave
Encoding: 96 96 64
Width: 400
GlyphClass: 1
Flags: W
LayerCount: 2
Fore
SplineSet
100 900 m 1,0,-1
 100 1000 l 1,1,-1
 200 1000 l 1,2,-1
 200 900 l 1,3,-1
 100 900 l 1,0,-1
200 900 m 1,4,-1
 300 900 l 1,5,-1
 300 800 l 1,6,-1
 200 800 l 1,7,-1
 200 900 l 1,4,-1
EndSplineSet
EndChar

StartChar: a
Encoding: 97 97 65
Width: 800
GlyphClass: 1
Flags: W
LayerCount: 2
Fore
SplineSet
800 100 m 1,0,-1
 800 0 l 1,1,-1
 700 0 l 1,2,-1
 700 100 l 1,3,-1
 800 100 l 1,0,-1
100 100 m 1,4,-1
 100 400 l 1,5,-1
 200 400 l 1,6,-1
 200 100 l 1,7,-1
 100 100 l 1,4,-1
100 500 m 1,8,-1
 100 600 l 1,9,-1
 200 600 l 1,10,-1
 200 500 l 1,11,-1
 100 500 l 1,8,-1
200 100 m 1,12,-1
 600 100 l 1,13,-1
 600 0 l 1,14,-1
 200 0 l 1,15,-1
 200 100 l 1,12,-1
200 500 m 1,16,-1
 600 500 l 1,17,-1
 600 600 l 1,18,-1
 700 600 l 1,19,-1
 700 100 l 1,20,-1
 600 100 l 1,21,-1
 600 400 l 1,22,-1
 200 400 l 1,23,-1
 200 500 l 1,16,-1
200 600 m 1,24,-1
 200 700 l 1,25,-1
 600 700 l 1,26,-1
 600 600 l 1,27,-1
 200 600 l 1,24,-1
EndSplineSet
EndChar

StartChar: b
Encoding: 98 98 66
Width: 800
GlyphClass: 1
Flags: W
LayerCount: 2
Fore
SplineSet
100 0 m 1,0,-1
 100 1000 l 1,1,-1
 200 1000 l 1,2,-1
 200 600 l 1,3,-1
 300 600 l 1,4,-1
 300 500 l 1,5,-1
 200 500 l 1,6,-1
 200 200 l 1,7,-1
 300 200 l 1,8,-1
 300 100 l 1,9,-1
 200 100 l 1,10,-1
 200 0 l 1,11,-1
 100 0 l 1,0,-1
300 100 m 1,12,-1
 600 100 l 1,13,-1
 600 0 l 1,14,-1
 300 0 l 1,15,-1
 300 100 l 1,12,-1
300 600 m 1,16,-1
 300 700 l 1,17,-1
 600 700 l 1,18,-1
 600 600 l 1,19,-1
 300 600 l 1,16,-1
600 100 m 1,20,-1
 600 600 l 1,21,-1
 700 600 l 1,22,-1
 700 100 l 1,23,-1
 600 100 l 1,20,-1
EndSplineSet
EndChar

StartChar: c
Encoding: 99 99 67
Width: 700
GlyphClass: 1
Flags: W
LayerCount: 2
Fore
SplineSet
100 100 m 1,0,-1
 100 600 l 1,1,-1
 200 600 l 1,2,-1
 200 100 l 1,3,-1
 100 100 l 1,0,-1
200 100 m 1,4,-1
 600 100 l 1,5,-1
 600 0 l 1,6,-1
 200 0 l 1,7,-1
 200 100 l 1,4,-1
200 600 m 1,8,-1
 200 700 l 1,9,-1
 600 700 l 1,10,-1
 600 600 l 1,11,-1
 200 600 l 1,8,-1
600 100 m 1,12,-1
 600 200 l 1,13,-1
 700 200 l 1,14,-1
 700 100 l 1,15,-1
 600 100 l 1,12,-1
600 500 m 1,16,-1
 600 600 l 1,17,-1
 700 600 l 1,18,-1
 700 500 l 1,19,-1
 600 500 l 1,16,-1
EndSplineSet
EndChar

StartChar: d
Encoding: 100 100 68
Width: 800
GlyphClass: 1
Flags: W
LayerCount: 2
Fore
SplineSet
100 100 m 1,0,-1
 100 600 l 1,1,-1
 200 600 l 1,2,-1
 200 100 l 1,3,-1
 100 100 l 1,0,-1
200 100 m 1,4,-1
 500 100 l 1,5,-1
 500 0 l 1,6,-1
 200 0 l 1,7,-1
 200 100 l 1,4,-1
200 600 m 1,8,-1
 200 700 l 1,9,-1
 500 700 l 1,10,-1
 500 600 l 1,11,-1
 200 600 l 1,8,-1
500 100 m 1,12,-1
 500 200 l 1,13,-1
 600 200 l 1,14,-1
 600 500 l 1,15,-1
 500 500 l 1,16,-1
 500 600 l 1,17,-1
 600 600 l 1,18,-1
 600 1000 l 1,19,-1
 700 1000 l 1,20,-1
 700 0 l 1,21,-1
 600 0 l 1,22,-1
 600 100 l 1,23,-1
 500 100 l 1,12,-1
EndSplineSet
EndChar

StartChar: e
Encoding: 101 101 69
Width: 800
GlyphClass: 1
Flags: W
LayerCount: 2
Fore
SplineSet
100 100 m 1,0,-1
 100 600 l 1,1,-1
 200 600 l 1,2,-1
 200 400 l 1,3,-1
 600 400 l 1,4,-1
 600 600 l 1,5,-1
 700 600 l 1,6,-1
 700 300 l 1,7,-1
 200 300 l 1,8,-1
 200 100 l 1,9,-1
 100 100 l 1,0,-1
200 100 m 1,10,-1
 600 100 l 1,11,-1
 600 0 l 1,12,-1
 200 0 l 1,13,-1
 200 100 l 1,10,-1
200 600 m 1,14,-1
 200 700 l 1,15,-1
 600 700 l 1,16,-1
 600 600 l 1,17,-1
 200 600 l 1,14,-1
600 100 m 1,18,-1
 600 200 l 1,19,-1
 700 200 l 1,20,-1
 700 100 l 1,21,-1
 600 100 l 1,18,-1
EndSplineSet
EndChar

StartChar: f
Encoding: 102 102 70
Width: 300
GlyphClass: 1
Flags: W
LayerCount: 2
Fore
SplineSet
0 600 m 1,0,-1
 0 700 l 1,1,-1
 100 700 l 1,2,-1
 100 900 l 1,3,-1
 200 900 l 1,4,-1
 200 700 l 1,5,-1
 300 700 l 1,6,-1
 300 600 l 1,7,-1
 200 600 l 1,8,-1
 200 0 l 1,9,-1
 100 0 l 1,10,-1
 100 600 l 1,11,-1
 0 600 l 1,0,-1
200 900 m 1,12,-1
 200 1000 l 1,13,-1
 300 1000 l 1,14,-1
 300 900 l 1,15,-1
 200 900 l 1,12,-1
EndSplineSet
EndChar

StartChar: g
Encoding: 103 103 71
Width: 800
GlyphClass: 1
Flags: W
LayerCount: 2
Fore
SplineSet
100 100 m 1,0,-1
 100 600 l 1,1,-1
 200 600 l 1,2,-1
 200 100 l 1,3,-1
 100 100 l 1,0,-1
200 100 m 1,4,-1
 500 100 l 1,5,-1
 500 0 l 1,6,-1
 200 0 l 1,7,-1
 200 100 l 1,4,-1
200 -200 m 1,8,-1
 600 -200 l 1,9,-1
 600 -300 l 1,10,-1
 200 -300 l 1,11,-1
 200 -200 l 1,8,-1
200 600 m 1,12,-1
 200 700 l 1,13,-1
 500 700 l 1,14,-1
 500 600 l 1,15,-1
 200 600 l 1,12,-1
500 100 m 1,16,-1
 500 200 l 1,17,-1
 600 200 l 1,18,-1
 600 500 l 1,19,-1
 500 500 l 1,20,-1
 500 600 l 1,21,-1
 600 600 l 1,22,-1
 600 700 l 1,23,-1
 700 700 l 1,24,-1
 700 -200 l 1,25,-1
 600 -200 l 1,26,-1
 600 100 l 1,27,-1
 500 100 l 1,16,-1
EndSplineSet
EndChar

StartChar: h
Encoding: 104 104 72
Width: 700
GlyphClass: 1
Flags: W
LayerCount: 2
Fore
SplineSet
100 0 m 1,0,-1
 100 1000 l 1,1,-1
 200 1000 l 1,2,-1
 200 600 l 1,3,-1
 300 600 l 1,4,-1
 300 500 l 1,5,-1
 200 500 l 1,6,-1
 200 0 l 1,7,-1
 100 0 l 1,0,-1
300 600 m 1,8,-1
 300 700 l 1,9,-1
 500 700 l 1,10,-1
 500 600 l 1,11,-1
 300 600 l 1,8,-1
500 0 m 1,12,-1
 500 600 l 1,13,-1
 600 600 l 1,14,-1
 600 0 l 1,15,-1
 500 0 l 1,12,-1
EndSplineSet
EndChar

StartChar: i
Encoding: 105 105 73
Width: 300
GlyphClass: 1
Flags: W
LayerCount: 2
Fore
SplineSet
100 0 m 1,0,-1
 100 700 l 1,1,-1
 200 700 l 1,2,-1
 200 0 l 1,3,-1
 100 0 l 1,0,-1
100 900 m 1,4,-1
 100 1000 l 1,5,-1
 200 1000 l 1,6,-1
 200 900 l 1,7,-1
 100 900 l 1,4,-1
EndSplineSet
EndChar

StartChar: j
Encoding: 106 106 74
Width: 300
GlyphClass: 1
Flags: W
LayerCount: 2
Fore
SplineSet
0 -200 m 1,0,-1
 100 -200 l 1,1,-1
 100 -300 l 1,2,-1
 0 -300 l 1,3,-1
 0 -200 l 1,0,-1
100 -200 m 1,4,-1
 100 700 l 1,5,-1
 200 700 l 1,6,-1
 200 -200 l 1,7,-1
 100 -200 l 1,4,-1
100 900 m 1,8,-1
 100 1000 l 1,9,-1
 200 1000 l 1,10,-1
 200 900 l 1,11,-1
 100 900 l 1,8,-1
EndSplineSet
EndChar

StartChar: k
Encoding: 107 107 75
Width: 700
GlyphClass: 1
Flags: W
LayerCount: 2
Fore
SplineSet
200 0 m 1,0,-1
 100 0 l 1,1,-1
 100 1000 l 1,2,-1
 200 1000 l 1,3,-1
 200 400 l 1,4,-1
 300 400 l 1,5,-1
 300 500 l 1,6,-1
 400 500 l 1,7,-1
 400 300 l 1,8,-1
 200 300 l 1,9,-1
 200 0 l 1,0,-1
400 200 m 1,10,-1
 400 300 l 1,11,-1
 500 300 l 1,12,-1
 500 200 l 1,13,-1
 400 200 l 1,10,-1
400 500 m 1,14,-1
 400 600 l 1,15,-1
 500 600 l 1,16,-1
 500 500 l 1,17,-1
 400 500 l 1,14,-1
600 200 m 1,18,-1
 600 100 l 1,19,-1
 500 100 l 1,20,-1
 500 200 l 1,21,-1
 600 200 l 1,18,-1
600 100 m 1,22,-1
 700 100 l 1,23,-1
 700 0 l 1,24,-1
 600 0 l 1,25,-1
 600 100 l 1,22,-1
600 700 m 1,26,-1
 600 600 l 1,27,-1
 500 600 l 1,28,-1
 500 700 l 1,29,-1
 600 700 l 1,26,-1
EndSplineSet
EndChar

StartChar: l
Encoding: 108 108 76
Width: 300
GlyphClass: 1
Flags: W
LayerCount: 2
Fore
SplineSet
100 0 m 1,0,-1
 100 1000 l 1,1,-1
 200 1000 l 1,2,-1
 200 0 l 1,3,-1
 100 0 l 1,0,-1
EndSplineSet
EndChar

StartChar: m
Encoding: 109 109 77
Width: 1100
GlyphClass: 1
Flags: W
LayerCount: 2
Fore
SplineSet
900 0 m 1,0,-1
 900 600 l 1,1,-1
 1000 600 l 1,2,-1
 1000 0 l 1,3,-1
 900 0 l 1,0,-1
100 0 m 1,4,-1
 100 700 l 1,5,-1
 200 700 l 1,6,-1
 200 600 l 1,7,-1
 300 600 l 1,8,-1
 300 500 l 1,9,-1
 200 500 l 1,10,-1
 200 0 l 1,11,-1
 100 0 l 1,4,-1
900 700 m 1,12,-1
 900 600 l 1,13,-1
 700 600 l 1,14,-1
 700 700 l 1,15,-1
 900 700 l 1,12,-1
300 600 m 1,16,-1
 300 700 l 1,17,-1
 500 700 l 1,18,-1
 500 600 l 1,19,-1
 300 600 l 1,16,-1
500 0 m 1,20,-1
 500 600 l 1,21,-1
 700 600 l 1,22,-1
 700 500 l 1,23,-1
 600 500 l 1,24,-1
 600 0 l 1,25,-1
 500 0 l 1,20,-1
EndSplineSet
EndChar

StartChar: n
Encoding: 110 110 78
Width: 700
GlyphClass: 1
Flags: W
LayerCount: 2
Fore
SplineSet
100 0 m 1,0,-1
 100 700 l 1,1,-1
 200 700 l 1,2,-1
 200 600 l 1,3,-1
 300 600 l 1,4,-1
 300 500 l 1,5,-1
 200 500 l 1,6,-1
 200 0 l 1,7,-1
 100 0 l 1,0,-1
300 600 m 1,8,-1
 300 700 l 1,9,-1
 500 700 l 1,10,-1
 500 600 l 1,11,-1
 300 600 l 1,8,-1
500 0 m 1,12,-1
 500 600 l 1,13,-1
 600 600 l 1,14,-1
 600 0 l 1,15,-1
 500 0 l 1,12,-1
EndSplineSet
EndChar

StartChar: o
Encoding: 111 111 79
Width: 800
GlyphClass: 1
Flags: W
LayerCount: 2
Fore
SplineSet
100 100 m 1,0,-1
 100 600 l 1,1,-1
 200 600 l 1,2,-1
 200 100 l 1,3,-1
 100 100 l 1,0,-1
200 100 m 1,4,-1
 600 100 l 1,5,-1
 600 0 l 1,6,-1
 200 0 l 1,7,-1
 200 100 l 1,4,-1
600 100 m 1,8,-1
 600 600 l 1,9,-1
 700 600 l 1,10,-1
 700 100 l 1,11,-1
 600 100 l 1,8,-1
200 600 m 1,12,-1
 200 700 l 1,13,-1
 600 700 l 1,14,-1
 600 600 l 1,15,-1
 200 600 l 1,12,-1
EndSplineSet
EndChar

StartChar: p
Encoding: 112 112 80
Width: 800
GlyphClass: 1
Flags: W
LayerCount: 2
Fore
SplineSet
100 -300 m 1,0,-1
 100 700 l 1,1,-1
 200 700 l 1,2,-1
 200 600 l 1,3,-1
 300 600 l 1,4,-1
 300 500 l 1,5,-1
 200 500 l 1,6,-1
 200 200 l 1,7,-1
 300 200 l 1,8,-1
 300 100 l 1,9,-1
 200 100 l 1,10,-1
 200 -300 l 1,11,-1
 100 -300 l 1,0,-1
300 100 m 1,12,-1
 600 100 l 1,13,-1
 600 0 l 1,14,-1
 300 0 l 1,15,-1
 300 100 l 1,12,-1
300 600 m 1,16,-1
 300 700 l 1,17,-1
 600 700 l 1,18,-1
 600 600 l 1,19,-1
 300 600 l 1,16,-1
600 100 m 1,20,-1
 600 600 l 1,21,-1
 700 600 l 1,22,-1
 700 100 l 1,23,-1
 600 100 l 1,20,-1
EndSplineSet
EndChar

StartChar: q
Encoding: 113 113 81
Width: 800
GlyphClass: 1
Flags: W
LayerCount: 2
Fore
SplineSet
100 100 m 1,0,-1
 100 600 l 1,1,-1
 200 600 l 1,2,-1
 200 100 l 1,3,-1
 100 100 l 1,0,-1
200 100 m 1,4,-1
 500 100 l 1,5,-1
 500 0 l 1,6,-1
 200 0 l 1,7,-1
 200 100 l 1,4,-1
200 600 m 1,8,-1
 200 700 l 1,9,-1
 500 700 l 1,10,-1
 500 600 l 1,11,-1
 200 600 l 1,8,-1
500 100 m 1,12,-1
 500 200 l 1,13,-1
 600 200 l 1,14,-1
 600 500 l 1,15,-1
 500 500 l 1,16,-1
 500 600 l 1,17,-1
 600 600 l 1,18,-1
 600 700 l 1,19,-1
 700 700 l 1,20,-1
 700 -300 l 1,21,-1
 600 -300 l 1,22,-1
 600 100 l 1,23,-1
 500 100 l 1,12,-1
EndSplineSet
EndChar

StartChar: r
Encoding: 114 114 82
Width: 400
GlyphClass: 1
Flags: W
LayerCount: 2
Fore
SplineSet
400 700 m 1,0,-1
 400 600 l 1,1,-1
 300 600 l 1,2,-1
 300 700 l 1,3,-1
 400 700 l 1,0,-1
100 0 m 1,4,-1
 100 700 l 1,5,-1
 200 700 l 1,6,-1
 200 600 l 1,7,-1
 300 600 l 1,8,-1
 300 500 l 1,9,-1
 200 500 l 1,10,-1
 200 0 l 1,11,-1
 100 0 l 1,4,-1
EndSplineSet
EndChar

StartChar: s
Encoding: 115 115 83
Width: 700
GlyphClass: 1
Flags: W
LayerCount: 2
Fore
SplineSet
100 100 m 1,0,-1
 100 200 l 1,1,-1
 200 200 l 1,2,-1
 200 100 l 1,3,-1
 100 100 l 1,0,-1
100 400 m 1,4,-1
 100 600 l 1,5,-1
 200 600 l 1,6,-1
 200 400 l 1,7,-1
 100 400 l 1,4,-1
200 100 m 1,8,-1
 500 100 l 1,9,-1
 500 0 l 1,10,-1
 200 0 l 1,11,-1
 200 100 l 1,8,-1
200 400 m 1,12,-1
 500 400 l 1,13,-1
 500 300 l 1,14,-1
 200 300 l 1,15,-1
 200 400 l 1,12,-1
200 600 m 1,16,-1
 200 700 l 1,17,-1
 500 700 l 1,18,-1
 500 600 l 1,19,-1
 200 600 l 1,16,-1
500 100 m 1,20,-1
 500 300 l 1,21,-1
 600 300 l 1,22,-1
 600 100 l 1,23,-1
 500 100 l 1,20,-1
500 500 m 1,24,-1
 500 600 l 1,25,-1
 600 600 l 1,26,-1
 600 500 l 1,27,-1
 500 500 l 1,24,-1
EndSplineSet
EndChar

StartChar: t
Encoding: 116 116 84
Width: 300
GlyphClass: 1
Flags: W
LayerCount: 2
Fore
SplineSet
0 600 m 1,0,-1
 0 700 l 1,1,-1
 100 700 l 1,2,-1
 100 900 l 1,3,-1
 200 900 l 1,4,-1
 200 700 l 1,5,-1
 300 700 l 1,6,-1
 300 600 l 1,7,-1
 200 600 l 1,8,-1
 200 100 l 1,9,-1
 100 100 l 1,10,-1
 100 600 l 1,11,-1
 0 600 l 1,0,-1
200 100 m 1,12,-1
 300 100 l 1,13,-1
 300 0 l 1,14,-1
 200 0 l 1,15,-1
 200 100 l 1,12,-1
EndSplineSet
EndChar

StartChar: u
Encoding: 117 117 85
Width: 700
GlyphClass: 1
Flags: W
LayerCount: 2
Fore
SplineSet
100 100 m 1,0,-1
 100 700 l 1,1,-1
 200 700 l 1,2,-1
 200 100 l 1,3,-1
 100 100 l 1,0,-1
200 100 m 1,4,-1
 400 100 l 1,5,-1
 400 0 l 1,6,-1
 200 0 l 1,7,-1
 200 100 l 1,4,-1
400 100 m 1,8,-1
 400 200 l 1,9,-1
 500 200 l 1,10,-1
 500 700 l 1,11,-1
 600 700 l 1,12,-1
 600 0 l 1,13,-1
 500 0 l 1,14,-1
 500 100 l 1,15,-1
 400 100 l 1,8,-1
EndSplineSet
EndChar

StartChar: v
Encoding: 118 118 86
Width: 700
GlyphClass: 1
Flags: W
LayerCount: 2
Fore
SplineSet
0 500 m 1,0,-1
 0 700 l 1,1,-1
 100 700 l 1,2,-1
 100 500 l 1,3,-1
 0 500 l 1,0,-1
100 500 m 1,4,-1
 200 500 l 1,5,-1
 200 300 l 1,6,-1
 100 300 l 1,7,-1
 100 500 l 1,4,-1
200 100 m 1,8,-1
 200 300 l 1,9,-1
 300 300 l 1,10,-1
 300 100 l 1,11,-1
 200 100 l 1,8,-1
300 100 m 1,12,-1
 400 100 l 1,13,-1
 400 0 l 1,14,-1
 300 0 l 1,15,-1
 300 100 l 1,12,-1
400 100 m 1,16,-1
 400 300 l 1,17,-1
 500 300 l 1,18,-1
 500 100 l 1,19,-1
 400 100 l 1,16,-1
500 500 m 1,20,-1
 600 500 l 1,21,-1
 600 300 l 1,22,-1
 500 300 l 1,23,-1
 500 500 l 1,20,-1
600 500 m 1,24,-1
 600 700 l 1,25,-1
 700 700 l 1,26,-1
 700 500 l 1,27,-1
 600 500 l 1,24,-1
EndSplineSet
EndChar

StartChar: w
Encoding: 119 119 87
Width: 900
GlyphClass: 1
Flags: W
LayerCount: 2
Fore
SplineSet
0 500 m 1,0,-1
 0 700 l 1,1,-1
 100 700 l 1,2,-1
 100 500 l 1,3,-1
 0 500 l 1,0,-1
900 500 m 1,4,-1
 800 500 l 1,5,-1
 800 700 l 1,6,-1
 900 700 l 1,7,-1
 900 500 l 1,4,-1
200 200 m 1,8,-1
 100 200 l 1,9,-1
 100 500 l 1,10,-1
 200 500 l 1,11,-1
 200 200 l 1,8,-1
200 0 m 1,12,-1
 200 200 l 1,13,-1
 300 200 l 1,14,-1
 300 0 l 1,15,-1
 200 0 l 1,12,-1
400 200 m 1,16,-1
 300 200 l 1,17,-1
 300 500 l 1,18,-1
 400 500 l 1,19,-1
 400 200 l 1,16,-1
400 500 m 1,20,-1
 400 700 l 1,21,-1
 500 700 l 1,22,-1
 500 500 l 1,23,-1
 400 500 l 1,20,-1
600 200 m 1,24,-1
 500 200 l 1,25,-1
 500 500 l 1,26,-1
 600 500 l 1,27,-1
 600 200 l 1,24,-1
600 0 m 1,28,-1
 600 200 l 1,29,-1
 700 200 l 1,30,-1
 700 0 l 1,31,-1
 600 0 l 1,28,-1
800 200 m 1,32,-1
 700 200 l 1,33,-1
 700 500 l 1,34,-1
 800 500 l 1,35,-1
 800 200 l 1,32,-1
EndSplineSet
EndChar

StartChar: x
Encoding: 120 120 88
Width: 600
GlyphClass: 1
Flags: W
LayerCount: 2
Fore
SplineSet
0 0 m 1,0,-1
 0 100 l 1,1,-1
 100 100 l 1,2,-1
 100 0 l 1,3,-1
 0 0 l 1,0,-1
0 600 m 1,4,-1
 0 700 l 1,5,-1
 100 700 l 1,6,-1
 100 600 l 1,7,-1
 0 600 l 1,4,-1
200 200 m 1,8,-1
 200 100 l 1,9,-1
 100 100 l 1,10,-1
 100 200 l 1,11,-1
 200 200 l 1,8,-1
200 500 m 1,12,-1
 400 500 l 1,13,-1
 400 200 l 1,14,-1
 200 200 l 1,15,-1
 200 500 l 1,12,-1
200 600 m 1,16,-1
 200 500 l 1,17,-1
 100 500 l 1,18,-1
 100 600 l 1,19,-1
 200 600 l 1,16,-1
400 200 m 1,20,-1
 500 200 l 1,21,-1
 500 100 l 1,22,-1
 400 100 l 1,23,-1
 400 200 l 1,20,-1
400 500 m 1,24,-1
 400 600 l 1,25,-1
 500 600 l 1,26,-1
 500 500 l 1,27,-1
 400 500 l 1,24,-1
600 100 m 1,28,-1
 600 0 l 1,29,-1
 500 0 l 1,30,-1
 500 100 l 1,31,-1
 600 100 l 1,28,-1
600 700 m 1,32,-1
 600 600 l 1,33,-1
 500 600 l 1,34,-1
 500 700 l 1,35,-1
 600 700 l 1,32,-1
EndSplineSet
EndChar

StartChar: y
Encoding: 121 121 89
Width: 700
GlyphClass: 1
Flags: W
LayerCount: 2
Fore
SplineSet
0 -200 m 1,0,-1
 200 -200 l 1,1,-1
 200 -300 l 1,2,-1
 0 -300 l 1,3,-1
 0 -200 l 1,0,-1
0 500 m 1,4,-1
 0 700 l 1,5,-1
 100 700 l 1,6,-1
 100 500 l 1,7,-1
 0 500 l 1,4,-1
200 -200 m 1,8,-1
 200 -100 l 1,9,-1
 300 -100 l 1,10,-1
 300 -200 l 1,11,-1
 200 -200 l 1,8,-1
200 100 m 1,12,-1
 200 300 l 1,13,-1
 300 300 l 1,14,-1
 300 100 l 1,15,-1
 200 100 l 1,12,-1
200 300 m 1,16,-1
 100 300 l 1,17,-1
 100 500 l 1,18,-1
 200 500 l 1,19,-1
 200 300 l 1,16,-1
400 100 m 1,20,-1
 400 -100 l 1,21,-1
 300 -100 l 1,22,-1
 300 100 l 1,23,-1
 400 100 l 1,20,-1
400 300 m 1,24,-1
 500 300 l 1,25,-1
 500 100 l 1,26,-1
 400 100 l 1,27,-1
 400 300 l 1,24,-1
600 500 m 1,28,-1
 600 300 l 1,29,-1
 500 300 l 1,30,-1
 500 500 l 1,31,-1
 600 500 l 1,28,-1
600 700 m 1,32,-1
 700 700 l 1,33,-1
 700 500 l 1,34,-1
 600 500 l 1,35,-1
 600 700 l 1,32,-1
EndSplineSet
EndChar

StartChar: z
Encoding: 122 122 90
Width: 600
GlyphClass: 1
Flags: W
LayerCount: 2
Fore
SplineSet
100 200 m 1,0,-1
 200 200 l 1,1,-1
 200 100 l 1,2,-1
 500 100 l 1,3,-1
 500 0 l 1,4,-1
 100 0 l 1,5,-1
 100 200 l 1,0,-1
100 600 m 1,6,-1
 100 700 l 1,7,-1
 500 700 l 1,8,-1
 500 500 l 1,9,-1
 400 500 l 1,10,-1
 400 600 l 1,11,-1
 100 600 l 1,6,-1
200 200 m 1,12,-1
 200 400 l 1,13,-1
 300 400 l 1,14,-1
 300 200 l 1,15,-1
 200 200 l 1,12,-1
300 400 m 1,16,-1
 300 500 l 1,17,-1
 400 500 l 1,18,-1
 400 400 l 1,19,-1
 300 400 l 1,16,-1
EndSplineSet
EndChar

StartChar: braceleft
Encoding: 123 123 91
Width: 500
GlyphClass: 1
Flags: W
LayerCount: 2
Fore
SplineSet
0 300 m 1,0,-1
 0 400 l 1,1,-1
 200 400 l 1,2,-1
 200 300 l 1,3,-1
 0 300 l 1,0,-1
200 -200 m 1,4,-1
 200 300 l 1,5,-1
 300 300 l 1,6,-1
 300 -200 l 1,7,-1
 200 -200 l 1,4,-1
200 400 m 1,8,-1
 200 900 l 1,9,-1
 300 900 l 1,10,-1
 300 400 l 1,11,-1
 200 400 l 1,8,-1
300 -200 m 1,12,-1
 500 -200 l 1,13,-1
 500 -300 l 1,14,-1
 300 -300 l 1,15,-1
 300 -200 l 1,12,-1
300 900 m 1,16,-1
 300 1000 l 1,17,-1
 500 1000 l 1,18,-1
 500 900 l 1,19,-1
 300 900 l 1,16,-1
EndSplineSet
EndChar

StartChar: bar
Encoding: 124 124 92
Width: 300
GlyphClass: 1
Flags: W
LayerCount: 2
Fore
SplineSet
100 -300 m 1,0,-1
 100 1000 l 1,1,-1
 200 1000 l 1,2,-1
 200 -300 l 1,3,-1
 100 -300 l 1,0,-1
EndSplineSet
EndChar

StartChar: braceright
Encoding: 125 125 93
Width: 500
GlyphClass: 1
Flags: W
LayerCount: 2
Fore
SplineSet
0 -200 m 1,0,-1
 200 -200 l 1,1,-1
 200 -300 l 1,2,-1
 0 -300 l 1,3,-1
 0 -200 l 1,0,-1
0 900 m 1,4,-1
 0 1000 l 1,5,-1
 200 1000 l 1,6,-1
 200 900 l 1,7,-1
 0 900 l 1,4,-1
200 -200 m 1,8,-1
 200 300 l 1,9,-1
 300 300 l 1,10,-1
 300 -200 l 1,11,-1
 200 -200 l 1,8,-1
200 400 m 1,12,-1
 200 900 l 1,13,-1
 300 900 l 1,14,-1
 300 400 l 1,15,-1
 200 400 l 1,12,-1
300 400 m 1,16,-1
 500 400 l 1,17,-1
 500 300 l 1,18,-1
 300 300 l 1,19,-1
 300 400 l 1,16,-1
EndSplineSet
EndChar

StartChar: asciitilde
Encoding: 126 126 94
Width: 900
GlyphClass: 1
Flags: W
LayerCount: 2
Fore
SplineSet
800 800 m 1,0,-1
 700 800 l 1,1,-1
 700 1000 l 1,2,-1
 800 1000 l 1,3,-1
 800 800 l 1,0,-1
100 700 m 1,4,-1
 100 900 l 1,5,-1
 200 900 l 1,6,-1
 200 700 l 1,7,-1
 100 700 l 1,4,-1
200 900 m 1,8,-1
 200 1000 l 1,9,-1
 400 1000 l 1,10,-1
 400 900 l 1,11,-1
 200 900 l 1,8,-1
400 900 m 1,12,-1
 500 900 l 1,13,-1
 500 800 l 1,14,-1
 400 800 l 1,15,-1
 400 900 l 1,12,-1
500 700 m 1,16,-1
 500 800 l 1,17,-1
 700 800 l 1,18,-1
 700 700 l 1,19,-1
 500 700 l 1,16,-1
EndSplineSet
EndChar

StartChar: exclamdown
Encoding: 161 161 96
Width: 300
GlyphClass: 1
Flags: W
LayerCount: 2
Fore
SplineSet
100 500 m 1,0,-1
 200 500 l 1,1,-1
 200 -300 l 1,2,-1
 100 -300 l 1,3,-1
 100 500 l 1,0,-1
100 600 m 1,4,-1
 100 700 l 1,5,-1
 200 700 l 1,6,-1
 200 600 l 1,7,-1
 100 600 l 1,4,-1
EndSplineSet
EndChar

StartChar: cent
Encoding: 162 162 97
Width: 700
GlyphClass: 1
Flags: W
LayerCount: 2
Fore
SplineSet
200 200 m 1,0,-1
 300 200 l 1,1,-1
 300 100 l 1,2,-1
 500 100 l 1,3,-1
 500 0 l 1,4,-1
 200 0 l 1,5,-1
 200 100 l 1,6,-1
 100 100 l 1,7,-1
 100 600 l 1,8,-1
 200 600 l 1,9,-1
 200 200 l 1,0,-1
200 0 m 1,10,-1
 200 -100 l 1,11,-1
 100 -100 l 1,12,-1
 100 0 l 1,13,-1
 200 0 l 1,10,-1
200 600 m 1,14,-1
 200 700 l 1,15,-1
 500 700 l 1,16,-1
 500 600 l 1,17,-1
 600 600 l 1,18,-1
 600 500 l 1,19,-1
 500 500 l 1,20,-1
 500 400 l 1,21,-1
 400 400 l 1,22,-1
 400 600 l 1,23,-1
 200 600 l 1,14,-1
400 200 m 1,24,-1
 300 200 l 1,25,-1
 300 400 l 1,26,-1
 400 400 l 1,27,-1
 400 200 l 1,24,-1
600 200 m 1,28,-1
 600 100 l 1,29,-1
 500 100 l 1,30,-1
 500 200 l 1,31,-1
 600 200 l 1,28,-1
600 700 m 1,32,-1
 500 700 l 1,33,-1
 500 800 l 1,34,-1
 600 800 l 1,35,-1
 600 700 l 1,32,-1
EndSplineSet
EndChar

StartChar: sterling
Encoding: 163 163 98
Width: 700
GlyphClass: 1
Flags: W
LayerCount: 2
Fore
SplineSet
200 200 m 1,0,-1
 200 100 l 1,1,-1
 600 100 l 1,2,-1
 600 0 l 1,3,-1
 100 0 l 1,4,-1
 100 200 l 1,5,-1
 200 200 l 1,0,-1
200 500 m 1,6,-1
 200 600 l 1,7,-1
 300 600 l 1,8,-1
 300 500 l 1,9,-1
 500 500 l 1,10,-1
 500 400 l 1,11,-1
 300 400 l 1,12,-1
 300 200 l 1,13,-1
 200 200 l 1,14,-1
 200 400 l 1,15,-1
 100 400 l 1,16,-1
 100 500 l 1,17,-1
 200 500 l 1,6,-1
200 600 m 1,18,-1
 100 600 l 1,19,-1
 100 900 l 1,20,-1
 200 900 l 1,21,-1
 200 600 l 1,18,-1
200 900 m 1,22,-1
 200 1000 l 1,23,-1
 400 1000 l 1,24,-1
 400 900 l 1,25,-1
 200 900 l 1,22,-1
400 900 m 1,26,-1
 500 900 l 1,27,-1
 500 800 l 1,28,-1
 400 800 l 1,29,-1
 400 900 l 1,26,-1
EndSplineSet
EndChar

StartChar: currency
Encoding: 164 164 99
Width: 700
GlyphClass: 1
Flags: W
LayerCount: 2
Fore
SplineSet
100 500 m 1,0,-1
 100 600 l 1,1,-1
 200 600 l 1,2,-1
 200 500 l 1,3,-1
 100 500 l 1,0,-1
100 900 m 1,4,-1
 100 1000 l 1,5,-1
 200 1000 l 1,6,-1
 200 900 l 1,7,-1
 100 900 l 1,4,-1
200 600 m 1,8,-1
 200 900 l 1,9,-1
 500 900 l 1,10,-1
 500 600 l 1,11,-1
 200 600 l 1,8,-1
300 700 m 1,12,-1
 400 700 l 1,13,-1
 400 800 l 1,14,-1
 300 800 l 1,15,-1
 300 700 l 1,12,-1
500 500 m 1,16,-1
 500 600 l 1,17,-1
 600 600 l 1,18,-1
 600 500 l 1,19,-1
 500 500 l 1,16,-1
500 900 m 1,20,-1
 500 1000 l 1,21,-1
 600 1000 l 1,22,-1
 600 900 l 1,23,-1
 500 900 l 1,20,-1
EndSplineSet
EndChar

StartChar: yen
Encoding: 165 165 100
Width: 700
GlyphClass: 1
Flags: W
LayerCount: 2
Fore
SplineSet
0 500 m 1,0,-1
 0 600 l 1,1,-1
 200 600 l 1,2,-1
 200 700 l 1,3,-1
 300 700 l 1,4,-1
 300 600 l 1,5,-1
 400 600 l 1,6,-1
 400 700 l 1,7,-1
 500 700 l 1,8,-1
 500 600 l 1,9,-1
 700 600 l 1,10,-1
 700 500 l 1,11,-1
 400 500 l 1,12,-1
 400 400 l 1,13,-1
 700 400 l 1,14,-1
 700 300 l 1,15,-1
 400 300 l 1,16,-1
 400 0 l 1,17,-1
 300 0 l 1,18,-1
 300 300 l 1,19,-1
 0 300 l 1,20,-1
 0 400 l 1,21,-1
 300 400 l 1,22,-1
 300 500 l 1,23,-1
 0 500 l 1,0,-1
0 1000 m 1,24,-1
 100 1000 l 1,25,-1
 100 800 l 1,26,-1
 0 800 l 1,27,-1
 0 1000 l 1,24,-1
200 700 m 1,28,-1
 100 700 l 1,29,-1
 100 800 l 1,30,-1
 200 800 l 1,31,-1
 200 700 l 1,28,-1
600 700 m 1,32,-1
 500 700 l 1,33,-1
 500 800 l 1,34,-1
 600 800 l 1,35,-1
 600 700 l 1,32,-1
600 1000 m 1,36,-1
 700 1000 l 1,37,-1
 700 800 l 1,38,-1
 600 800 l 1,39,-1
 600 1000 l 1,36,-1
EndSplineSet
EndChar

StartChar: brokenbar
Encoding: 166 166 101
Width: 300
GlyphClass: 1
Flags: W
LayerCount: 2
Fore
SplineSet
100 300 m 1,0,-1
 200 300 l 1,1,-1
 200 -300 l 1,2,-1
 100 -300 l 1,3,-1
 100 300 l 1,0,-1
100 400 m 1,4,-1
 100 1000 l 1,5,-1
 200 1000 l 1,6,-1
 200 400 l 1,7,-1
 100 400 l 1,4,-1
EndSplineSet
EndChar

StartChar: section
Encoding: 167 167 102
Width: 700
GlyphClass: 1
Flags: W
LayerCount: 2
Fore
SplineSet
200 200 m 1,0,-1
 200 100 l 1,1,-1
 100 100 l 1,2,-1
 100 200 l 1,3,-1
 200 200 l 1,0,-1
200 100 m 1,4,-1
 500 100 l 1,5,-1
 500 0 l 1,6,-1
 200 0 l 1,7,-1
 200 100 l 1,4,-1
200 500 m 1,8,-1
 100 500 l 1,9,-1
 100 600 l 1,10,-1
 200 600 l 1,11,-1
 200 500 l 1,8,-1
200 400 m 1,12,-1
 200 500 l 1,13,-1
 300 500 l 1,14,-1
 300 400 l 1,15,-1
 200 400 l 1,12,-1
200 600 m 1,16,-1
 200 800 l 1,17,-1
 300 800 l 1,18,-1
 300 700 l 1,19,-1
 400 700 l 1,20,-1
 400 600 l 1,21,-1
 200 600 l 1,16,-1
200 900 m 1,22,-1
 200 1000 l 1,23,-1
 500 1000 l 1,24,-1
 500 900 l 1,25,-1
 200 900 l 1,22,-1
200 800 m 1,26,-1
 100 800 l 1,27,-1
 100 900 l 1,28,-1
 200 900 l 1,29,-1
 200 800 l 1,26,-1
400 200 m 1,30,-1
 400 300 l 1,31,-1
 300 300 l 1,32,-1
 300 400 l 1,33,-1
 500 400 l 1,34,-1
 500 200 l 1,35,-1
 400 200 l 1,30,-1
400 500 m 1,36,-1
 400 600 l 1,37,-1
 500 600 l 1,38,-1
 500 500 l 1,39,-1
 400 500 l 1,36,-1
600 200 m 1,40,-1
 600 100 l 1,41,-1
 500 100 l 1,42,-1
 500 200 l 1,43,-1
 600 200 l 1,40,-1
600 500 m 1,44,-1
 600 400 l 1,45,-1
 500 400 l 1,46,-1
 500 500 l 1,47,-1
 600 500 l 1,44,-1
600 900 m 1,48,-1
 600 800 l 1,49,-1
 500 800 l 1,50,-1
 500 900 l 1,51,-1
 600 900 l 1,48,-1
EndSplineSet
EndChar

StartChar: dieresis
Encoding: 168 168 103
Width: 400
GlyphClass: 1
Flags: W
LayerCount: 2
Fore
SplineSet
0 900 m 1,0,-1
 0 1000 l 1,1,-1
 100 1000 l 1,2,-1
 100 900 l 1,3,-1
 0 900 l 1,0,-1
400 1000 m 1,4,-1
 400 900 l 1,5,-1
 300 900 l 1,6,-1
 300 1000 l 1,7,-1
 400 1000 l 1,4,-1
EndSplineSet
EndChar

StartChar: copyright
Encoding: 169 169 104
Width: 800
GlyphClass: 1
Flags: W
LayerCount: 2
Fore
SplineSet
0 400 m 1,0,-1
 0 800 l 1,1,-1
 100 800 l 1,2,-1
 100 400 l 1,3,-1
 0 400 l 1,0,-1
200 200 m 1,4,-1
 200 300 l 1,5,-1
 600 300 l 1,6,-1
 600 200 l 1,7,-1
 200 200 l 1,4,-1
200 400 m 1,8,-1
 200 300 l 1,9,-1
 100 300 l 1,10,-1
 100 400 l 1,11,-1
 200 400 l 1,8,-1
200 500 m 1,12,-1
 200 700 l 1,13,-1
 300 700 l 1,14,-1
 300 500 l 1,15,-1
 200 500 l 1,12,-1
200 900 m 1,16,-1
 200 1000 l 1,17,-1
 600 1000 l 1,18,-1
 600 900 l 1,19,-1
 200 900 l 1,16,-1
200 800 m 1,20,-1
 100 800 l 1,21,-1
 100 900 l 1,22,-1
 200 900 l 1,23,-1
 200 800 l 1,20,-1
600 500 m 1,24,-1
 600 400 l 1,25,-1
 300 400 l 1,26,-1
 300 500 l 1,27,-1
 600 500 l 1,24,-1
600 400 m 1,28,-1
 700 400 l 1,29,-1
 700 300 l 1,30,-1
 600 300 l 1,31,-1
 600 400 l 1,28,-1
600 700 m 1,32,-1
 300 700 l 1,33,-1
 300 800 l 1,34,-1
 600 800 l 1,35,-1
 600 700 l 1,32,-1
600 900 m 1,36,-1
 700 900 l 1,37,-1
 700 800 l 1,38,-1
 600 800 l 1,39,-1
 600 900 l 1,36,-1
800 400 m 1,40,-1
 700 400 l 1,41,-1
 700 800 l 1,42,-1
 800 800 l 1,43,-1
 800 400 l 1,40,-1
EndSplineSet
EndChar

StartChar: ordfeminine
Encoding: 170 170 105
Width: 500
GlyphClass: 1
Flags: W
LayerCount: 2
Fore
SplineSet
100 300 m 1,0,-1
 100 400 l 1,1,-1
 400 400 l 1,2,-1
 400 300 l 1,3,-1
 100 300 l 1,0,-1
100 600 m 1,4,-1
 100 700 l 1,5,-1
 200 700 l 1,6,-1
 200 600 l 1,7,-1
 100 600 l 1,4,-1
200 500 m 1,8,-1
 200 600 l 1,9,-1
 300 600 l 1,10,-1
 300 700 l 1,11,-1
 200 700 l 1,12,-1
 200 800 l 1,13,-1
 300 800 l 1,14,-1
 300 900 l 1,15,-1
 400 900 l 1,16,-1
 400 500 l 1,17,-1
 200 500 l 1,8,-1
200 900 m 1,18,-1
 200 1000 l 1,19,-1
 300 1000 l 1,20,-1
 300 900 l 1,21,-1
 200 900 l 1,18,-1
EndSplineSet
EndChar

StartChar: guillemotleft
Encoding: 171 171 106
Width: 700
GlyphClass: 1
Flags: W
LayerCount: 2
Fore
SplineSet
200 200 m 1,0,-1
 200 300 l 1,1,-1
 300 300 l 1,2,-1
 300 200 l 1,3,-1
 200 200 l 1,0,-1
200 400 m 1,4,-1
 200 500 l 1,5,-1
 300 500 l 1,6,-1
 300 400 l 1,7,-1
 200 400 l 1,4,-1
200 300 m 1,8,-1
 100 300 l 1,9,-1
 100 400 l 1,10,-1
 200 400 l 1,11,-1
 200 300 l 1,8,-1
400 200 m 1,12,-1
 400 100 l 1,13,-1
 300 100 l 1,14,-1
 300 200 l 1,15,-1
 400 200 l 1,12,-1
400 500 m 1,16,-1
 500 500 l 1,17,-1
 500 400 l 1,18,-1
 400 400 l 1,19,-1
 400 500 l 1,16,-1
400 400 m 1,20,-1
 400 300 l 1,21,-1
 300 300 l 1,22,-1
 300 400 l 1,23,-1
 400 400 l 1,20,-1
400 300 m 1,24,-1
 500 300 l 1,25,-1
 500 200 l 1,26,-1
 400 200 l 1,27,-1
 400 300 l 1,24,-1
400 600 m 1,28,-1
 400 500 l 1,29,-1
 300 500 l 1,30,-1
 300 600 l 1,31,-1
 400 600 l 1,28,-1
600 200 m 1,32,-1
 600 100 l 1,33,-1
 500 100 l 1,34,-1
 500 200 l 1,35,-1
 600 200 l 1,32,-1
600 500 m 1,36,-1
 500 500 l 1,37,-1
 500 600 l 1,38,-1
 600 600 l 1,39,-1
 600 500 l 1,36,-1
EndSplineSet
EndChar

StartChar: logicalnot
Encoding: 172 172 107
Width: 700
GlyphClass: 1
Flags: W
LayerCount: 2
Fore
SplineSet
100 500 m 1,0,-1
 100 600 l 1,1,-1
 600 600 l 1,2,-1
 600 400 l 1,3,-1
 500 400 l 1,4,-1
 500 500 l 1,5,-1
 100 500 l 1,0,-1
EndSplineSet
EndChar

StartChar: registered
Encoding: 174 174 108
Width: 800
GlyphClass: 1
Flags: W
LayerCount: 2
Fore
SplineSet
0 400 m 1,0,-1
 0 800 l 1,1,-1
 100 800 l 1,2,-1
 100 400 l 1,3,-1
 0 400 l 1,0,-1
200 200 m 1,4,-1
 200 300 l 1,5,-1
 600 300 l 1,6,-1
 600 200 l 1,7,-1
 200 200 l 1,4,-1
200 400 m 1,8,-1
 200 300 l 1,9,-1
 100 300 l 1,10,-1
 100 400 l 1,11,-1
 200 400 l 1,8,-1
200 900 m 1,12,-1
 200 1000 l 1,13,-1
 600 1000 l 1,14,-1
 600 900 l 1,15,-1
 200 900 l 1,12,-1
200 800 m 1,16,-1
 100 800 l 1,17,-1
 100 900 l 1,18,-1
 200 900 l 1,19,-1
 200 800 l 1,16,-1
600 500 m 1,20,-1
 600 400 l 1,21,-1
 500 400 l 1,22,-1
 500 500 l 1,23,-1
 600 500 l 1,20,-1
600 400 m 1,24,-1
 700 400 l 1,25,-1
 700 300 l 1,26,-1
 600 300 l 1,27,-1
 600 400 l 1,24,-1
600 700 m 1,28,-1
 600 600 l 1,29,-1
 500 600 l 1,30,-1
 500 700 l 1,31,-1
 600 700 l 1,28,-1
600 900 m 1,32,-1
 700 900 l 1,33,-1
 700 800 l 1,34,-1
 600 800 l 1,35,-1
 600 900 l 1,32,-1
800 400 m 1,36,-1
 700 400 l 1,37,-1
 700 800 l 1,38,-1
 800 800 l 1,39,-1
 800 400 l 1,36,-1
300 500 m 1,40,-1
 300 400 l 1,41,-1
 200 400 l 1,42,-1
 200 800 l 1,43,-1
 500 800 l 1,44,-1
 500 700 l 1,45,-1
 300 700 l 1,46,-1
 300 600 l 1,47,-1
 500 600 l 1,48,-1
 500 500 l 1,49,-1
 300 500 l 1,40,-1
EndSplineSet
EndChar

StartChar: macron
Encoding: 175 175 109
Width: 700
GlyphClass: 1
Flags: W
LayerCount: 2
Fore
SplineSet
0 1100 m 1,0,-1
 0 1200 l 1,1,-1
 700 1200 l 1,2,-1
 700 1100 l 1,3,-1
 0 1100 l 1,0,-1
EndSplineSet
EndChar

StartChar: degree
Encoding: 176 176 110
Width: 400
GlyphClass: 1
Flags: W
LayerCount: 2
Fore
SplineSet
400 900 m 1,0,-1
 400 800 l 1,1,-1
 300 800 l 1,2,-1
 300 900 l 1,3,-1
 400 900 l 1,0,-1
100 800 m 1,4,-1
 100 900 l 1,5,-1
 200 900 l 1,6,-1
 200 800 l 1,7,-1
 100 800 l 1,4,-1
200 700 m 1,8,-1
 200 800 l 1,9,-1
 300 800 l 1,10,-1
 300 700 l 1,11,-1
 200 700 l 1,8,-1
200 900 m 1,12,-1
 200 1000 l 1,13,-1
 300 1000 l 1,14,-1
 300 900 l 1,15,-1
 200 900 l 1,12,-1
EndSplineSet
EndChar

StartChar: plusminus
Encoding: 177 177 111
Width: 700
GlyphClass: 1
Flags: W
LayerCount: 2
Fore
SplineSet
100 0 m 1,0,-1
 100 100 l 1,1,-1
 600 100 l 1,2,-1
 600 0 l 1,3,-1
 100 0 l 1,0,-1
100 400 m 1,4,-1
 100 500 l 1,5,-1
 300 500 l 1,6,-1
 300 700 l 1,7,-1
 400 700 l 1,8,-1
 400 500 l 1,9,-1
 600 500 l 1,10,-1
 600 400 l 1,11,-1
 400 400 l 1,12,-1
 400 200 l 1,13,-1
 300 200 l 1,14,-1
 300 400 l 1,15,-1
 100 400 l 1,4,-1
EndSplineSet
EndChar

StartChar: twosuperior
Encoding: 178 178 112
Width: 400
GlyphClass: 1
Flags: W
LayerCount: 2
Fore
SplineSet
0 500 m 1,0,-1
 0 600 l 1,1,-1
 100 600 l 1,2,-1
 100 700 l 1,3,-1
 200 700 l 1,4,-1
 200 600 l 1,5,-1
 400 600 l 1,6,-1
 400 500 l 1,7,-1
 0 500 l 1,0,-1
0 800 m 1,8,-1
 0 900 l 1,9,-1
 100 900 l 1,10,-1
 100 800 l 1,11,-1
 0 800 l 1,8,-1
100 900 m 1,12,-1
 100 1000 l 1,13,-1
 300 1000 l 1,14,-1
 300 900 l 1,15,-1
 100 900 l 1,12,-1
200 700 m 1,16,-1
 200 800 l 1,17,-1
 300 800 l 1,18,-1
 300 700 l 1,19,-1
 200 700 l 1,16,-1
300 900 m 1,20,-1
 400 900 l 1,21,-1
 400 800 l 1,22,-1
 300 800 l 1,23,-1
 300 900 l 1,20,-1
EndSplineSet
EndChar

StartChar: threesuperior
Encoding: 179 179 113
Width: 400
GlyphClass: 1
Flags: W
LayerCount: 2
Fore
SplineSet
0 600 m 1,0,-1
 0 700 l 1,1,-1
 100 700 l 1,2,-1
 100 600 l 1,3,-1
 0 600 l 1,0,-1
0 800 m 1,4,-1
 0 900 l 1,5,-1
 100 900 l 1,6,-1
 100 800 l 1,7,-1
 0 800 l 1,4,-1
100 500 m 1,8,-1
 100 600 l 1,9,-1
 300 600 l 1,10,-1
 300 500 l 1,11,-1
 100 500 l 1,8,-1
100 900 m 1,12,-1
 100 1000 l 1,13,-1
 300 1000 l 1,14,-1
 300 900 l 1,15,-1
 100 900 l 1,12,-1
200 700 m 1,16,-1
 200 800 l 1,17,-1
 300 800 l 1,18,-1
 300 700 l 1,19,-1
 200 700 l 1,16,-1
300 700 m 1,20,-1
 400 700 l 1,21,-1
 400 600 l 1,22,-1
 300 600 l 1,23,-1
 300 700 l 1,20,-1
300 900 m 1,24,-1
 400 900 l 1,25,-1
 400 800 l 1,26,-1
 300 800 l 1,27,-1
 300 900 l 1,24,-1
EndSplineSet
EndChar

StartChar: acute
Encoding: 180 180 114
Width: 400
GlyphClass: 1
Flags: W
LayerCount: 2
Fore
SplineSet
100 800 m 1,0,-1
 100 900 l 1,1,-1
 200 900 l 1,2,-1
 200 800 l 1,3,-1
 100 800 l 1,0,-1
200 900 m 1,4,-1
 200 1000 l 1,5,-1
 300 1000 l 1,6,-1
 300 900 l 1,7,-1
 200 900 l 1,4,-1
EndSplineSet
EndChar

StartChar: mu
Encoding: 181 181 115
Width: 700
GlyphClass: 1
Flags: W
LayerCount: 2
Fore
SplineSet
100 -300 m 1,0,-1
 100 800 l 1,1,-1
 200 800 l 1,2,-1
 200 100 l 1,3,-1
 500 100 l 1,4,-1
 500 0 l 1,5,-1
 200 0 l 1,6,-1
 200 -300 l 1,7,-1
 100 -300 l 1,0,-1
500 100 m 1,8,-1
 500 800 l 1,9,-1
 600 800 l 1,10,-1
 600 100 l 1,11,-1
 500 100 l 1,8,-1
600 100 m 1,12,-1
 700 100 l 1,13,-1
 700 0 l 1,14,-1
 600 0 l 1,15,-1
 600 100 l 1,12,-1
EndSplineSet
EndChar

StartChar: paragraph
Encoding: 182 182 116
Width: 700
GlyphClass: 1
Flags: W
LayerCount: 2
Fore
SplineSet
100 500 m 1,0,-1
 100 900 l 1,1,-1
 200 900 l 1,2,-1
 200 1000 l 1,3,-1
 600 1000 l 1,4,-1
 600 0 l 1,5,-1
 500 0 l 1,6,-1
 500 900 l 1,7,-1
 400 900 l 1,8,-1
 400 0 l 1,9,-1
 300 0 l 1,10,-1
 300 400 l 1,11,-1
 200 400 l 1,12,-1
 200 500 l 1,13,-1
 100 500 l 1,0,-1
EndSplineSet
EndChar

StartChar: periodcentered
Encoding: 183 183 117
Width: 300
GlyphClass: 1
Flags: W
LayerCount: 2
Fore
SplineSet
100 500 m 1,0,-1
 100 600 l 1,1,-1
 200 600 l 1,2,-1
 200 500 l 1,3,-1
 100 500 l 1,0,-1
EndSplineSet
EndChar

StartChar: cedilla
Encoding: 184 184 118
Width: 400
GlyphClass: 1
Flags: W
LayerCount: 2
Fore
SplineSet
400 -100 m 1,0,-1
 400 -200 l 1,1,-1
 300 -200 l 1,2,-1
 300 -100 l 1,3,-1
 400 -100 l 1,0,-1
100 -200 m 1,4,-1
 300 -200 l 1,5,-1
 300 -300 l 1,6,-1
 100 -300 l 1,7,-1
 100 -200 l 1,4,-1
200 -100 m 1,8,-1
 200 0 l 1,9,-1
 300 0 l 1,10,-1
 300 -100 l 1,11,-1
 200 -100 l 1,8,-1
EndSplineSet
EndChar

StartChar: onesuperior
Encoding: 185 185 119
Width: 400
GlyphClass: 1
Flags: W
LayerCount: 2
Fore
SplineSet
100 800 m 1,0,-1
 100 900 l 1,1,-1
 200 900 l 1,2,-1
 200 1000 l 1,3,-1
 300 1000 l 1,4,-1
 300 500 l 1,5,-1
 200 500 l 1,6,-1
 200 800 l 1,7,-1
 100 800 l 1,0,-1
EndSplineSet
EndChar

StartChar: ordmasculine
Encoding: 186 186 120
Width: 500
GlyphClass: 1
Flags: W
LayerCount: 2
Fore
SplineSet
100 300 m 1,0,-1
 100 400 l 1,1,-1
 400 400 l 1,2,-1
 400 300 l 1,3,-1
 100 300 l 1,0,-1
100 600 m 1,4,-1
 100 900 l 1,5,-1
 200 900 l 1,6,-1
 200 600 l 1,7,-1
 100 600 l 1,4,-1
200 500 m 1,8,-1
 200 600 l 1,9,-1
 300 600 l 1,10,-1
 300 500 l 1,11,-1
 200 500 l 1,8,-1
200 900 m 1,12,-1
 200 1000 l 1,13,-1
 300 1000 l 1,14,-1
 300 900 l 1,15,-1
 200 900 l 1,12,-1
300 600 m 1,16,-1
 300 900 l 1,17,-1
 400 900 l 1,18,-1
 400 600 l 1,19,-1
 300 600 l 1,16,-1
EndSplineSet
EndChar

StartChar: guillemotright
Encoding: 187 187 121
Width: 700
GlyphClass: 1
Flags: W
LayerCount: 2
Fore
SplineSet
200 200 m 1,0,-1
 200 100 l 1,1,-1
 100 100 l 1,2,-1
 100 200 l 1,3,-1
 200 200 l 1,0,-1
200 500 m 1,4,-1
 100 500 l 1,5,-1
 100 600 l 1,6,-1
 200 600 l 1,7,-1
 200 500 l 1,4,-1
200 400 m 1,8,-1
 200 500 l 1,9,-1
 300 500 l 1,10,-1
 300 400 l 1,11,-1
 200 400 l 1,8,-1
200 300 m 1,12,-1
 300 300 l 1,13,-1
 300 200 l 1,14,-1
 200 200 l 1,15,-1
 200 300 l 1,12,-1
400 200 m 1,16,-1
 400 100 l 1,17,-1
 300 100 l 1,18,-1
 300 200 l 1,19,-1
 400 200 l 1,16,-1
400 500 m 1,20,-1
 500 500 l 1,21,-1
 500 400 l 1,22,-1
 400 400 l 1,23,-1
 400 500 l 1,20,-1
400 400 m 1,24,-1
 400 300 l 1,25,-1
 300 300 l 1,26,-1
 300 400 l 1,27,-1
 400 400 l 1,24,-1
400 300 m 1,28,-1
 500 300 l 1,29,-1
 500 200 l 1,30,-1
 400 200 l 1,31,-1
 400 300 l 1,28,-1
400 600 m 1,32,-1
 400 500 l 1,33,-1
 300 500 l 1,34,-1
 300 600 l 1,35,-1
 400 600 l 1,32,-1
600 400 m 1,36,-1
 600 300 l 1,37,-1
 500 300 l 1,38,-1
 500 400 l 1,39,-1
 600 400 l 1,36,-1
EndSplineSet
EndChar

StartChar: onequarter
Encoding: 188 188 122
Width: 900
GlyphClass: 1
Flags: W
LayerCount: 2
Fore
SplineSet
0 800 m 1,0,-1
 0 900 l 1,1,-1
 100 900 l 1,2,-1
 100 1000 l 1,3,-1
 200 1000 l 1,4,-1
 200 500 l 1,5,-1
 100 500 l 1,6,-1
 100 800 l 1,7,-1
 0 800 l 1,0,-1
900 0 m 1,8,-1
 800 0 l 1,9,-1
 800 100 l 1,10,-1
 500 100 l 1,11,-1
 500 200 l 1,12,-1
 600 200 l 1,13,-1
 600 300 l 1,14,-1
 700 300 l 1,15,-1
 700 200 l 1,16,-1
 800 200 l 1,17,-1
 800 300 l 1,18,-1
 700 300 l 1,19,-1
 700 400 l 1,20,-1
 800 400 l 1,21,-1
 800 500 l 1,22,-1
 900 500 l 1,23,-1
 900 0 l 1,8,-1
200 200 m 1,24,-1
 300 200 l 1,25,-1
 300 0 l 1,26,-1
 200 0 l 1,27,-1
 200 200 l 1,24,-1
400 200 m 1,28,-1
 300 200 l 1,29,-1
 300 400 l 1,30,-1
 400 400 l 1,31,-1
 400 200 l 1,28,-1
400 400 m 1,32,-1
 400 600 l 1,33,-1
 500 600 l 1,34,-1
 500 400 l 1,35,-1
 400 400 l 1,32,-1
600 600 m 1,36,-1
 500 600 l 1,37,-1
 500 800 l 1,38,-1
 600 800 l 1,39,-1
 600 600 l 1,36,-1
600 1000 m 1,40,-1
 700 1000 l 1,41,-1
 700 800 l 1,42,-1
 600 800 l 1,43,-1
 600 1000 l 1,40,-1
EndSplineSet
EndChar

StartChar: onehalf
Encoding: 189 189 123
Width: 900
GlyphClass: 1
Flags: W
LayerCount: 2
Fore
SplineSet
0 800 m 1,0,-1
 0 900 l 1,1,-1
 100 900 l 1,2,-1
 100 1000 l 1,3,-1
 200 1000 l 1,4,-1
 200 500 l 1,5,-1
 100 500 l 1,6,-1
 100 800 l 1,7,-1
 0 800 l 1,0,-1
900 100 m 1,8,-1
 900 0 l 1,9,-1
 500 0 l 1,10,-1
 500 100 l 1,11,-1
 600 100 l 1,12,-1
 600 200 l 1,13,-1
 700 200 l 1,14,-1
 700 100 l 1,15,-1
 900 100 l 1,8,-1
900 400 m 1,16,-1
 900 300 l 1,17,-1
 800 300 l 1,18,-1
 800 400 l 1,19,-1
 900 400 l 1,16,-1
200 200 m 1,20,-1
 300 200 l 1,21,-1
 300 0 l 1,22,-1
 200 0 l 1,23,-1
 200 200 l 1,20,-1
400 200 m 1,24,-1
 300 200 l 1,25,-1
 300 400 l 1,26,-1
 400 400 l 1,27,-1
 400 200 l 1,24,-1
400 400 m 1,28,-1
 400 600 l 1,29,-1
 500 600 l 1,30,-1
 500 400 l 1,31,-1
 400 400 l 1,28,-1
600 400 m 1,32,-1
 600 500 l 1,33,-1
 800 500 l 1,34,-1
 800 400 l 1,35,-1
 600 400 l 1,32,-1
600 300 m 1,36,-1
 500 300 l 1,37,-1
 500 400 l 1,38,-1
 600 400 l 1,39,-1
 600 300 l 1,36,-1
600 600 m 1,40,-1
 500 600 l 1,41,-1
 500 800 l 1,42,-1
 600 800 l 1,43,-1
 600 600 l 1,40,-1
600 1000 m 1,44,-1
 700 1000 l 1,45,-1
 700 800 l 1,46,-1
 600 800 l 1,47,-1
 600 1000 l 1,44,-1
800 200 m 1,48,-1
 700 200 l 1,49,-1
 700 300 l 1,50,-1
 800 300 l 1,51,-1
 800 200 l 1,48,-1
EndSplineSet
EndChar

StartChar: threequarters
Encoding: 190 190 124
Width: 900
GlyphClass: 1
Flags: W
LayerCount: 2
Fore
SplineSet
0 600 m 1,0,-1
 0 700 l 1,1,-1
 100 700 l 1,2,-1
 100 600 l 1,3,-1
 0 600 l 1,0,-1
0 800 m 1,4,-1
 0 900 l 1,5,-1
 100 900 l 1,6,-1
 100 800 l 1,7,-1
 0 800 l 1,4,-1
900 0 m 1,8,-1
 800 0 l 1,9,-1
 800 100 l 1,10,-1
 500 100 l 1,11,-1
 500 200 l 1,12,-1
 600 200 l 1,13,-1
 600 300 l 1,14,-1
 700 300 l 1,15,-1
 700 200 l 1,16,-1
 800 200 l 1,17,-1
 800 300 l 1,18,-1
 700 300 l 1,19,-1
 700 400 l 1,20,-1
 800 400 l 1,21,-1
 800 500 l 1,22,-1
 900 500 l 1,23,-1
 900 0 l 1,8,-1
400 200 m 1,24,-1
 300 200 l 1,25,-1
 300 400 l 1,26,-1
 400 400 l 1,27,-1
 400 200 l 1,24,-1
400 400 m 1,28,-1
 400 600 l 1,29,-1
 500 600 l 1,30,-1
 500 400 l 1,31,-1
 400 400 l 1,28,-1
400 700 m 1,32,-1
 400 600 l 1,33,-1
 300 600 l 1,34,-1
 300 700 l 1,35,-1
 400 700 l 1,32,-1
400 900 m 1,36,-1
 400 800 l 1,37,-1
 300 800 l 1,38,-1
 300 900 l 1,39,-1
 400 900 l 1,36,-1
300 200 m 1,40,-1
 300 0 l 1,41,-1
 200 0 l 1,42,-1
 200 200 l 1,43,-1
 300 200 l 1,40,-1
300 500 m 1,44,-1
 100 500 l 1,45,-1
 100 600 l 1,46,-1
 300 600 l 1,47,-1
 300 500 l 1,44,-1
300 700 m 1,48,-1
 200 700 l 1,49,-1
 200 800 l 1,50,-1
 300 800 l 1,51,-1
 300 700 l 1,48,-1
300 1000 m 1,52,-1
 300 900 l 1,53,-1
 100 900 l 1,54,-1
 100 1000 l 1,55,-1
 300 1000 l 1,52,-1
700 800 m 1,56,-1
 600 800 l 1,57,-1
 600 1000 l 1,58,-1
 700 1000 l 1,59,-1
 700 800 l 1,56,-1
600 600 m 1,60,-1
 500 600 l 1,61,-1
 500 800 l 1,62,-1
 600 800 l 1,63,-1
 600 600 l 1,60,-1
EndSplineSet
EndChar

StartChar: questiondown
Encoding: 191 191 125
Width: 700
GlyphClass: 1
Flags: W
LayerCount: 2
Fore
SplineSet
100 100 m 1,0,-1
 200 100 l 1,1,-1
 200 -200 l 1,2,-1
 100 -200 l 1,3,-1
 100 100 l 1,0,-1
200 100 m 1,4,-1
 200 200 l 1,5,-1
 300 200 l 1,6,-1
 300 100 l 1,7,-1
 200 100 l 1,4,-1
200 -200 m 1,8,-1
 500 -200 l 1,9,-1
 500 -300 l 1,10,-1
 200 -300 l 1,11,-1
 200 -200 l 1,8,-1
300 200 m 1,12,-1
 300 500 l 1,13,-1
 400 500 l 1,14,-1
 400 200 l 1,15,-1
 300 200 l 1,12,-1
300 600 m 1,16,-1
 300 700 l 1,17,-1
 400 700 l 1,18,-1
 400 600 l 1,19,-1
 300 600 l 1,16,-1
500 0 m 1,20,-1
 600 0 l 1,21,-1
 600 -200 l 1,22,-1
 500 -200 l 1,23,-1
 500 0 l 1,20,-1
EndSplineSet
EndChar

StartChar: Agrave
Encoding: 192 192 126
Width: 900
GlyphClass: 1
Flags: W
LayerCount: 2
Fore
SplineSet
0 200 m 1,0,-1
 100 200 l 1,1,-1
 100 0 l 1,2,-1
 0 0 l 1,3,-1
 0 200 l 1,0,-1
900 0 m 1,4,-1
 800 0 l 1,5,-1
 800 200 l 1,6,-1
 900 200 l 1,7,-1
 900 0 l 1,4,-1
200 200 m 1,8,-1
 100 200 l 1,9,-1
 100 400 l 1,10,-1
 200 400 l 1,11,-1
 200 600 l 1,12,-1
 300 600 l 1,13,-1
 300 400 l 1,14,-1
 600 400 l 1,15,-1
 600 600 l 1,16,-1
 700 600 l 1,17,-1
 700 400 l 1,18,-1
 800 400 l 1,19,-1
 800 200 l 1,20,-1
 700 200 l 1,21,-1
 700 300 l 1,22,-1
 200 300 l 1,23,-1
 200 200 l 1,8,-1
400 600 m 1,24,-1
 300 600 l 1,25,-1
 300 800 l 1,26,-1
 400 800 l 1,27,-1
 400 600 l 1,24,-1
400 1000 m 1,28,-1
 500 1000 l 1,29,-1
 500 800 l 1,30,-1
 400 800 l 1,31,-1
 400 1000 l 1,28,-1
400 1200 m 1,32,-1
 500 1200 l 1,33,-1
 500 1100 l 1,34,-1
 400 1100 l 1,35,-1
 400 1200 l 1,32,-1
400 1300 m 1,36,-1
 400 1200 l 1,37,-1
 300 1200 l 1,38,-1
 300 1300 l 1,39,-1
 400 1300 l 1,36,-1
600 600 m 1,40,-1
 500 600 l 1,41,-1
 500 800 l 1,42,-1
 600 800 l 1,43,-1
 600 600 l 1,40,-1
EndSplineSet
EndChar

StartChar: Aacute
Encoding: 193 193 127
Width: 900
GlyphClass: 1
Flags: W
LayerCount: 2
Fore
SplineSet
0 200 m 1,0,-1
 100 200 l 1,1,-1
 100 0 l 1,2,-1
 0 0 l 1,3,-1
 0 200 l 1,0,-1
900 0 m 1,4,-1
 800 0 l 1,5,-1
 800 200 l 1,6,-1
 900 200 l 1,7,-1
 900 0 l 1,4,-1
200 200 m 1,8,-1
 100 200 l 1,9,-1
 100 400 l 1,10,-1
 200 400 l 1,11,-1
 200 600 l 1,12,-1
 300 600 l 1,13,-1
 300 400 l 1,14,-1
 600 400 l 1,15,-1
 600 600 l 1,16,-1
 700 600 l 1,17,-1
 700 400 l 1,18,-1
 800 400 l 1,19,-1
 800 200 l 1,20,-1
 700 200 l 1,21,-1
 700 300 l 1,22,-1
 200 300 l 1,23,-1
 200 200 l 1,8,-1
400 600 m 1,24,-1
 300 600 l 1,25,-1
 300 800 l 1,26,-1
 400 800 l 1,27,-1
 400 600 l 1,24,-1
400 1000 m 1,28,-1
 500 1000 l 1,29,-1
 500 800 l 1,30,-1
 400 800 l 1,31,-1
 400 1000 l 1,28,-1
400 1100 m 1,32,-1
 400 1200 l 1,33,-1
 500 1200 l 1,34,-1
 500 1100 l 1,35,-1
 400 1100 l 1,32,-1
600 600 m 1,36,-1
 500 600 l 1,37,-1
 500 800 l 1,38,-1
 600 800 l 1,39,-1
 600 600 l 1,36,-1
600 1200 m 1,40,-1
 500 1200 l 1,41,-1
 500 1300 l 1,42,-1
 600 1300 l 1,43,-1
 600 1200 l 1,40,-1
EndSplineSet
EndChar

StartChar: Acircumflex
Encoding: 194 194 128
Width: 900
GlyphClass: 1
Flags: W
LayerCount: 2
Fore
SplineSet
0 200 m 1,0,-1
 100 200 l 1,1,-1
 100 0 l 1,2,-1
 0 0 l 1,3,-1
 0 200 l 1,0,-1
900 0 m 1,4,-1
 800 0 l 1,5,-1
 800 200 l 1,6,-1
 900 200 l 1,7,-1
 900 0 l 1,4,-1
200 200 m 1,8,-1
 100 200 l 1,9,-1
 100 400 l 1,10,-1
 200 400 l 1,11,-1
 200 600 l 1,12,-1
 300 600 l 1,13,-1
 300 400 l 1,14,-1
 600 400 l 1,15,-1
 600 600 l 1,16,-1
 700 600 l 1,17,-1
 700 400 l 1,18,-1
 800 400 l 1,19,-1
 800 200 l 1,20,-1
 700 200 l 1,21,-1
 700 300 l 1,22,-1
 200 300 l 1,23,-1
 200 200 l 1,8,-1
400 600 m 1,24,-1
 300 600 l 1,25,-1
 300 800 l 1,26,-1
 400 800 l 1,27,-1
 400 600 l 1,24,-1
400 1000 m 1,28,-1
 500 1000 l 1,29,-1
 500 800 l 1,30,-1
 400 800 l 1,31,-1
 400 1000 l 1,28,-1
400 1200 m 1,32,-1
 400 1100 l 1,33,-1
 300 1100 l 1,34,-1
 300 1200 l 1,35,-1
 400 1200 l 1,32,-1
400 1300 m 1,36,-1
 500 1300 l 1,37,-1
 500 1200 l 1,38,-1
 400 1200 l 1,39,-1
 400 1300 l 1,36,-1
600 600 m 1,40,-1
 500 600 l 1,41,-1
 500 800 l 1,42,-1
 600 800 l 1,43,-1
 600 600 l 1,40,-1
600 1200 m 1,44,-1
 600 1100 l 1,45,-1
 500 1100 l 1,46,-1
 500 1200 l 1,47,-1
 600 1200 l 1,44,-1
EndSplineSet
EndChar

StartChar: Atilde
Encoding: 195 195 129
Width: 900
GlyphClass: 1
Flags: W
LayerCount: 2
Fore
SplineSet
0 200 m 1,0,-1
 100 200 l 1,1,-1
 100 0 l 1,2,-1
 0 0 l 1,3,-1
 0 200 l 1,0,-1
900 0 m 1,4,-1
 800 0 l 1,5,-1
 800 200 l 1,6,-1
 900 200 l 1,7,-1
 900 0 l 1,4,-1
200 200 m 1,8,-1
 100 200 l 1,9,-1
 100 400 l 1,10,-1
 200 400 l 1,11,-1
 200 600 l 1,12,-1
 300 600 l 1,13,-1
 300 400 l 1,14,-1
 600 400 l 1,15,-1
 600 600 l 1,16,-1
 700 600 l 1,17,-1
 700 400 l 1,18,-1
 800 400 l 1,19,-1
 800 200 l 1,20,-1
 700 200 l 1,21,-1
 700 300 l 1,22,-1
 200 300 l 1,23,-1
 200 200 l 1,8,-1
200 1200 m 1,24,-1
 200 1100 l 1,25,-1
 100 1100 l 1,26,-1
 100 1200 l 1,27,-1
 200 1200 l 1,24,-1
200 1300 m 1,28,-1
 500 1300 l 1,29,-1
 500 1200 l 1,30,-1
 700 1200 l 1,31,-1
 700 1100 l 1,32,-1
 400 1100 l 1,33,-1
 400 1200 l 1,34,-1
 200 1200 l 1,35,-1
 200 1300 l 1,28,-1
400 600 m 1,36,-1
 300 600 l 1,37,-1
 300 800 l 1,38,-1
 400 800 l 1,39,-1
 400 600 l 1,36,-1
400 1000 m 1,40,-1
 500 1000 l 1,41,-1
 500 800 l 1,42,-1
 400 800 l 1,43,-1
 400 1000 l 1,40,-1
600 600 m 1,44,-1
 500 600 l 1,45,-1
 500 800 l 1,46,-1
 600 800 l 1,47,-1
 600 600 l 1,44,-1
800 1200 m 1,48,-1
 700 1200 l 1,49,-1
 700 1300 l 1,50,-1
 800 1300 l 1,51,-1
 800 1200 l 1,48,-1
EndSplineSet
EndChar

StartChar: Adieresis
Encoding: 196 196 130
Width: 900
GlyphClass: 1
Flags: W
LayerCount: 2
Fore
SplineSet
0 200 m 1,0,-1
 100 200 l 1,1,-1
 100 0 l 1,2,-1
 0 0 l 1,3,-1
 0 200 l 1,0,-1
900 0 m 1,4,-1
 800 0 l 1,5,-1
 800 200 l 1,6,-1
 900 200 l 1,7,-1
 900 0 l 1,4,-1
200 200 m 1,8,-1
 100 200 l 1,9,-1
 100 400 l 1,10,-1
 200 400 l 1,11,-1
 200 600 l 1,12,-1
 300 600 l 1,13,-1
 300 400 l 1,14,-1
 600 400 l 1,15,-1
 600 600 l 1,16,-1
 700 600 l 1,17,-1
 700 400 l 1,18,-1
 800 400 l 1,19,-1
 800 200 l 1,20,-1
 700 200 l 1,21,-1
 700 300 l 1,22,-1
 200 300 l 1,23,-1
 200 200 l 1,8,-1
200 1200 m 1,24,-1
 200 1300 l 1,25,-1
 300 1300 l 1,26,-1
 300 1200 l 1,27,-1
 200 1200 l 1,24,-1
400 600 m 1,28,-1
 300 600 l 1,29,-1
 300 800 l 1,30,-1
 400 800 l 1,31,-1
 400 600 l 1,28,-1
400 1000 m 1,32,-1
 500 1000 l 1,33,-1
 500 800 l 1,34,-1
 400 800 l 1,35,-1
 400 1000 l 1,32,-1
600 600 m 1,36,-1
 500 600 l 1,37,-1
 500 800 l 1,38,-1
 600 800 l 1,39,-1
 600 600 l 1,36,-1
600 1200 m 1,40,-1
 600 1300 l 1,41,-1
 700 1300 l 1,42,-1
 700 1200 l 1,43,-1
 600 1200 l 1,40,-1
EndSplineSet
EndChar

StartChar: Aring
Encoding: 197 197 131
Width: 900
GlyphClass: 1
Flags: W
LayerCount: 2
Fore
SplineSet
0 200 m 1,0,-1
 100 200 l 1,1,-1
 100 0 l 1,2,-1
 0 0 l 1,3,-1
 0 200 l 1,0,-1
900 0 m 1,4,-1
 800 0 l 1,5,-1
 800 200 l 1,6,-1
 900 200 l 1,7,-1
 900 0 l 1,4,-1
200 200 m 1,8,-1
 100 200 l 1,9,-1
 100 400 l 1,10,-1
 200 400 l 1,11,-1
 200 600 l 1,12,-1
 300 600 l 1,13,-1
 300 400 l 1,14,-1
 600 400 l 1,15,-1
 600 600 l 1,16,-1
 700 600 l 1,17,-1
 700 400 l 1,18,-1
 800 400 l 1,19,-1
 800 200 l 1,20,-1
 700 200 l 1,21,-1
 700 300 l 1,22,-1
 200 300 l 1,23,-1
 200 200 l 1,8,-1
400 600 m 1,24,-1
 300 600 l 1,25,-1
 300 800 l 1,26,-1
 400 800 l 1,27,-1
 400 600 l 1,24,-1
400 800 m 1,28,-1
 400 1100 l 1,29,-1
 500 1100 l 1,30,-1
 500 800 l 1,31,-1
 400 800 l 1,28,-1
400 1200 m 1,32,-1
 400 1100 l 1,33,-1
 300 1100 l 1,34,-1
 300 1200 l 1,35,-1
 400 1200 l 1,32,-1
400 1300 m 1,36,-1
 500 1300 l 1,37,-1
 500 1200 l 1,38,-1
 400 1200 l 1,39,-1
 400 1300 l 1,36,-1
600 600 m 1,40,-1
 500 600 l 1,41,-1
 500 800 l 1,42,-1
 600 800 l 1,43,-1
 600 600 l 1,40,-1
600 1200 m 1,44,-1
 600 1100 l 1,45,-1
 500 1100 l 1,46,-1
 500 1200 l 1,47,-1
 600 1200 l 1,44,-1
EndSplineSet
EndChar

StartChar: AE
Encoding: 198 198 132
Width: 1300
GlyphClass: 1
Flags: W
LayerCount: 2
Fore
SplineSet
0 200 m 1,0,-1
 100 200 l 1,1,-1
 100 0 l 1,2,-1
 0 0 l 1,3,-1
 0 200 l 1,0,-1
200 200 m 1,4,-1
 100 200 l 1,5,-1
 100 400 l 1,6,-1
 200 400 l 1,7,-1
 200 600 l 1,8,-1
 300 600 l 1,9,-1
 300 400 l 1,10,-1
 500 400 l 1,11,-1
 500 800 l 1,12,-1
 400 800 l 1,13,-1
 400 1000 l 1,14,-1
 1200 1000 l 1,15,-1
 1200 900 l 1,16,-1
 600 900 l 1,17,-1
 600 600 l 1,18,-1
 1100 600 l 1,19,-1
 1100 500 l 1,20,-1
 600 500 l 1,21,-1
 600 100 l 1,22,-1
 1200 100 l 1,23,-1
 1200 0 l 1,24,-1
 500 0 l 1,25,-1
 500 300 l 1,26,-1
 200 300 l 1,27,-1
 200 200 l 1,4,-1
400 600 m 1,28,-1
 300 600 l 1,29,-1
 300 800 l 1,30,-1
 400 800 l 1,31,-1
 400 600 l 1,28,-1
EndSplineSet
EndChar

StartChar: Ccedilla
Encoding: 199 199 133
Width: 900
GlyphClass: 1
Flags: W
LayerCount: 2
Fore
SplineSet
900 200 m 1,0,-1
 800 200 l 1,1,-1
 800 300 l 1,2,-1
 900 300 l 1,3,-1
 900 200 l 1,0,-1
900 700 m 1,4,-1
 800 700 l 1,5,-1
 800 800 l 1,6,-1
 900 800 l 1,7,-1
 900 700 l 1,4,-1
200 200 m 1,8,-1
 100 200 l 1,9,-1
 100 800 l 1,10,-1
 200 800 l 1,11,-1
 200 200 l 1,8,-1
200 100 m 1,12,-1
 200 200 l 1,13,-1
 300 200 l 1,14,-1
 300 100 l 1,15,-1
 200 100 l 1,12,-1
200 800 m 1,16,-1
 200 900 l 1,17,-1
 300 900 l 1,18,-1
 300 800 l 1,19,-1
 200 800 l 1,16,-1
400 -200 m 1,20,-1
 600 -200 l 1,21,-1
 600 -300 l 1,22,-1
 400 -300 l 1,23,-1
 400 -200 l 1,20,-1
600 0 m 1,24,-1
 600 -100 l 1,25,-1
 500 -100 l 1,26,-1
 500 0 l 1,27,-1
 300 0 l 1,28,-1
 300 100 l 1,29,-1
 700 100 l 1,30,-1
 700 0 l 1,31,-1
 600 0 l 1,24,-1
600 -100 m 1,32,-1
 700 -100 l 1,33,-1
 700 -200 l 1,34,-1
 600 -200 l 1,35,-1
 600 -100 l 1,32,-1
800 200 m 1,36,-1
 800 100 l 1,37,-1
 700 100 l 1,38,-1
 700 200 l 1,39,-1
 800 200 l 1,36,-1
800 900 m 1,40,-1
 800 800 l 1,41,-1
 700 800 l 1,42,-1
 700 900 l 1,43,-1
 800 900 l 1,40,-1
300 900 m 1,44,-1
 300 1000 l 1,45,-1
 700 1000 l 1,46,-1
 700 900 l 1,47,-1
 300 900 l 1,44,-1
EndSplineSet
EndChar

StartChar: Egrave
Encoding: 200 200 134
Width: 900
GlyphClass: 1
Flags: W
LayerCount: 2
Fore
SplineSet
800 100 m 1,0,-1
 800 0 l 1,1,-1
 100 0 l 1,2,-1
 100 1000 l 1,3,-1
 800 1000 l 1,4,-1
 800 900 l 1,5,-1
 200 900 l 1,6,-1
 200 600 l 1,7,-1
 700 600 l 1,8,-1
 700 500 l 1,9,-1
 200 500 l 1,10,-1
 200 100 l 1,11,-1
 800 100 l 1,0,-1
300 1200 m 1,12,-1
 300 1300 l 1,13,-1
 400 1300 l 1,14,-1
 400 1200 l 1,15,-1
 300 1200 l 1,12,-1
500 1200 m 1,16,-1
 500 1100 l 1,17,-1
 400 1100 l 1,18,-1
 400 1200 l 1,19,-1
 500 1200 l 1,16,-1
EndSplineSet
EndChar

StartChar: Eacute
Encoding: 201 201 135
Width: 900
GlyphClass: 1
Flags: W
LayerCount: 2
Fore
SplineSet
800 100 m 1,0,-1
 800 0 l 1,1,-1
 100 0 l 1,2,-1
 100 1000 l 1,3,-1
 800 1000 l 1,4,-1
 800 900 l 1,5,-1
 200 900 l 1,6,-1
 200 600 l 1,7,-1
 700 600 l 1,8,-1
 700 500 l 1,9,-1
 200 500 l 1,10,-1
 200 100 l 1,11,-1
 800 100 l 1,0,-1
500 1200 m 1,12,-1
 500 1100 l 1,13,-1
 400 1100 l 1,14,-1
 400 1200 l 1,15,-1
 500 1200 l 1,12,-1
500 1300 m 1,16,-1
 600 1300 l 1,17,-1
 600 1200 l 1,18,-1
 500 1200 l 1,19,-1
 500 1300 l 1,16,-1
EndSplineSet
EndChar

StartChar: Ecircumflex
Encoding: 202 202 136
Width: 900
GlyphClass: 1
Flags: W
LayerCount: 2
Fore
SplineSet
800 100 m 1,0,-1
 800 0 l 1,1,-1
 100 0 l 1,2,-1
 100 1000 l 1,3,-1
 800 1000 l 1,4,-1
 800 900 l 1,5,-1
 200 900 l 1,6,-1
 200 600 l 1,7,-1
 700 600 l 1,8,-1
 700 500 l 1,9,-1
 200 500 l 1,10,-1
 200 100 l 1,11,-1
 800 100 l 1,0,-1
300 1100 m 1,12,-1
 300 1200 l 1,13,-1
 400 1200 l 1,14,-1
 400 1100 l 1,15,-1
 300 1100 l 1,12,-1
500 1200 m 1,16,-1
 400 1200 l 1,17,-1
 400 1300 l 1,18,-1
 500 1300 l 1,19,-1
 500 1200 l 1,16,-1
500 1100 m 1,20,-1
 500 1200 l 1,21,-1
 600 1200 l 1,22,-1
 600 1100 l 1,23,-1
 500 1100 l 1,20,-1
EndSplineSet
EndChar

StartChar: Edieresis
Encoding: 203 203 137
Width: 900
GlyphClass: 1
Flags: W
LayerCount: 2
Fore
SplineSet
800 100 m 1,0,-1
 800 0 l 1,1,-1
 100 0 l 1,2,-1
 100 1000 l 1,3,-1
 800 1000 l 1,4,-1
 800 900 l 1,5,-1
 200 900 l 1,6,-1
 200 600 l 1,7,-1
 700 600 l 1,8,-1
 700 500 l 1,9,-1
 200 500 l 1,10,-1
 200 100 l 1,11,-1
 800 100 l 1,0,-1
300 1200 m 1,12,-1
 200 1200 l 1,13,-1
 200 1300 l 1,14,-1
 300 1300 l 1,15,-1
 300 1200 l 1,12,-1
700 1200 m 1,16,-1
 600 1200 l 1,17,-1
 600 1300 l 1,18,-1
 700 1300 l 1,19,-1
 700 1200 l 1,16,-1
EndSplineSet
EndChar

StartChar: Igrave
Encoding: 204 204 138
Width: 300
GlyphClass: 1
Flags: W
LayerCount: 2
Fore
SplineSet
100 1200 m 1,0,-1
 0 1200 l 1,1,-1
 0 1300 l 1,2,-1
 100 1300 l 1,3,-1
 100 1200 l 1,0,-1
100 1100 m 1,4,-1
 100 1200 l 1,5,-1
 200 1200 l 1,6,-1
 200 1100 l 1,7,-1
 100 1100 l 1,4,-1
100 0 m 1,8,-1
 100 1000 l 1,9,-1
 200 1000 l 1,10,-1
 200 0 l 1,11,-1
 100 0 l 1,8,-1
EndSplineSet
EndChar

StartChar: Iacute
Encoding: 205 205 139
Width: 300
GlyphClass: 1
Flags: W
LayerCount: 2
Fore
SplineSet
100 1100 m 1,0,-1
 100 1200 l 1,1,-1
 200 1200 l 1,2,-1
 200 1100 l 1,3,-1
 100 1100 l 1,0,-1
100 0 m 1,4,-1
 100 1000 l 1,5,-1
 200 1000 l 1,6,-1
 200 0 l 1,7,-1
 100 0 l 1,4,-1
300 1200 m 1,8,-1
 200 1200 l 1,9,-1
 200 1300 l 1,10,-1
 300 1300 l 1,11,-1
 300 1200 l 1,8,-1
EndSplineSet
EndChar

StartChar: Icircumflex
Encoding: 206 206 140
Width: 300
GlyphClass: 1
Flags: W
LayerCount: 2
Fore
SplineSet
100 1200 m 1,0,-1
 100 1100 l 1,1,-1
 0 1100 l 1,2,-1
 0 1200 l 1,3,-1
 100 1200 l 1,0,-1
100 1300 m 1,4,-1
 200 1300 l 1,5,-1
 200 1200 l 1,6,-1
 100 1200 l 1,7,-1
 100 1300 l 1,4,-1
100 0 m 1,8,-1
 100 1000 l 1,9,-1
 200 1000 l 1,10,-1
 200 0 l 1,11,-1
 100 0 l 1,8,-1
300 1200 m 1,12,-1
 300 1100 l 1,13,-1
 200 1100 l 1,14,-1
 200 1200 l 1,15,-1
 300 1200 l 1,12,-1
EndSplineSet
EndChar

StartChar: Idieresis
Encoding: 207 207 141
Width: 300
GlyphClass: 1
Flags: W
LayerCount: 2
Fore
SplineSet
100 1200 m 1,0,-1
 0 1200 l 1,1,-1
 0 1300 l 1,2,-1
 100 1300 l 1,3,-1
 100 1200 l 1,0,-1
100 0 m 1,4,-1
 100 1000 l 1,5,-1
 200 1000 l 1,6,-1
 200 0 l 1,7,-1
 100 0 l 1,4,-1
300 1200 m 1,8,-1
 200 1200 l 1,9,-1
 200 1300 l 1,10,-1
 300 1300 l 1,11,-1
 300 1200 l 1,8,-1
EndSplineSet
EndChar

StartChar: Eth
Encoding: 208 208 142
Width: 900
GlyphClass: 1
Flags: W
LayerCount: 2
Fore
SplineSet
800 200 m 1,0,-1
 700 200 l 1,1,-1
 700 800 l 1,2,-1
 800 800 l 1,3,-1
 800 200 l 1,0,-1
0 500 m 1,4,-1
 0 600 l 1,5,-1
 100 600 l 1,6,-1
 100 1000 l 1,7,-1
 600 1000 l 1,8,-1
 600 900 l 1,9,-1
 200 900 l 1,10,-1
 200 600 l 1,11,-1
 400 600 l 1,12,-1
 400 500 l 1,13,-1
 200 500 l 1,14,-1
 200 100 l 1,15,-1
 600 100 l 1,16,-1
 600 0 l 1,17,-1
 100 0 l 1,18,-1
 100 500 l 1,19,-1
 0 500 l 1,4,-1
600 100 m 1,20,-1
 600 200 l 1,21,-1
 700 200 l 1,22,-1
 700 100 l 1,23,-1
 600 100 l 1,20,-1
600 900 m 1,24,-1
 700 900 l 1,25,-1
 700 800 l 1,26,-1
 600 800 l 1,27,-1
 600 900 l 1,24,-1
EndSplineSet
EndChar

StartChar: Ntilde
Encoding: 209 209 143
Width: 1000
GlyphClass: 1
Flags: W
LayerCount: 2
Fore
SplineSet
900 0 m 1,0,-1
 800 0 l 1,1,-1
 800 100 l 1,2,-1
 700 100 l 1,3,-1
 700 200 l 1,4,-1
 800 200 l 1,5,-1
 800 1000 l 1,6,-1
 900 1000 l 1,7,-1
 900 0 l 1,0,-1
200 0 m 1,8,-1
 100 0 l 1,9,-1
 100 1000 l 1,10,-1
 200 1000 l 1,11,-1
 200 900 l 1,12,-1
 300 900 l 1,13,-1
 300 800 l 1,14,-1
 200 800 l 1,15,-1
 200 0 l 1,8,-1
200 1100 m 1,16,-1
 200 1200 l 1,17,-1
 300 1200 l 1,18,-1
 300 1100 l 1,19,-1
 200 1100 l 1,16,-1
400 500 m 1,20,-1
 400 600 l 1,21,-1
 500 600 l 1,22,-1
 500 500 l 1,23,-1
 400 500 l 1,20,-1
400 600 m 1,24,-1
 300 600 l 1,25,-1
 300 800 l 1,26,-1
 400 800 l 1,27,-1
 400 600 l 1,24,-1
600 200 m 1,28,-1
 600 400 l 1,29,-1
 700 400 l 1,30,-1
 700 200 l 1,31,-1
 600 200 l 1,28,-1
600 500 m 1,32,-1
 600 400 l 1,33,-1
 500 400 l 1,34,-1
 500 500 l 1,35,-1
 600 500 l 1,32,-1
800 1200 m 1,36,-1
 700 1200 l 1,37,-1
 700 1300 l 1,38,-1
 800 1300 l 1,39,-1
 800 1200 l 1,36,-1
300 1200 m 1,40,-1
 300 1300 l 1,41,-1
 500 1300 l 1,42,-1
 500 1200 l 1,43,-1
 300 1200 l 1,40,-1
500 1200 m 1,44,-1
 700 1200 l 1,45,-1
 700 1100 l 1,46,-1
 500 1100 l 1,47,-1
 500 1200 l 1,44,-1
EndSplineSet
EndChar

StartChar: Ograve
Encoding: 210 210 144
Width: 1000
GlyphClass: 1
Flags: W
LayerCount: 2
Fore
SplineSet
900 200 m 1,0,-1
 800 200 l 1,1,-1
 800 800 l 1,2,-1
 900 800 l 1,3,-1
 900 200 l 1,0,-1
200 200 m 1,4,-1
 100 200 l 1,5,-1
 100 800 l 1,6,-1
 200 800 l 1,7,-1
 200 200 l 1,4,-1
200 100 m 1,8,-1
 200 200 l 1,9,-1
 300 200 l 1,10,-1
 300 100 l 1,11,-1
 200 100 l 1,8,-1
200 800 m 1,12,-1
 200 900 l 1,13,-1
 300 900 l 1,14,-1
 300 800 l 1,15,-1
 200 800 l 1,12,-1
400 1200 m 1,16,-1
 500 1200 l 1,17,-1
 500 1100 l 1,18,-1
 400 1100 l 1,19,-1
 400 1200 l 1,16,-1
400 1300 m 1,20,-1
 400 1200 l 1,21,-1
 300 1200 l 1,22,-1
 300 1300 l 1,23,-1
 400 1300 l 1,20,-1
800 200 m 1,24,-1
 800 100 l 1,25,-1
 700 100 l 1,26,-1
 700 200 l 1,27,-1
 800 200 l 1,24,-1
800 900 m 1,28,-1
 800 800 l 1,29,-1
 700 800 l 1,30,-1
 700 900 l 1,31,-1
 800 900 l 1,28,-1
300 100 m 1,32,-1
 700 100 l 1,33,-1
 700 0 l 1,34,-1
 300 0 l 1,35,-1
 300 100 l 1,32,-1
300 900 m 1,36,-1
 300 1000 l 1,37,-1
 700 1000 l 1,38,-1
 700 900 l 1,39,-1
 300 900 l 1,36,-1
EndSplineSet
EndChar

StartChar: Oacute
Encoding: 211 211 145
Width: 1000
GlyphClass: 1
Flags: W
LayerCount: 2
Fore
SplineSet
900 200 m 1,0,-1
 800 200 l 1,1,-1
 800 800 l 1,2,-1
 900 800 l 1,3,-1
 900 200 l 1,0,-1
200 200 m 1,4,-1
 100 200 l 1,5,-1
 100 800 l 1,6,-1
 200 800 l 1,7,-1
 200 200 l 1,4,-1
200 100 m 1,8,-1
 200 200 l 1,9,-1
 300 200 l 1,10,-1
 300 100 l 1,11,-1
 200 100 l 1,8,-1
200 800 m 1,12,-1
 200 900 l 1,13,-1
 300 900 l 1,14,-1
 300 800 l 1,15,-1
 200 800 l 1,12,-1
600 1200 m 1,16,-1
 600 1100 l 1,17,-1
 500 1100 l 1,18,-1
 500 1200 l 1,19,-1
 600 1200 l 1,16,-1
600 1300 m 1,20,-1
 700 1300 l 1,21,-1
 700 1200 l 1,22,-1
 600 1200 l 1,23,-1
 600 1300 l 1,20,-1
800 200 m 1,24,-1
 800 100 l 1,25,-1
 700 100 l 1,26,-1
 700 200 l 1,27,-1
 800 200 l 1,24,-1
800 900 m 1,28,-1
 800 800 l 1,29,-1
 700 800 l 1,30,-1
 700 900 l 1,31,-1
 800 900 l 1,28,-1
300 100 m 1,32,-1
 700 100 l 1,33,-1
 700 0 l 1,34,-1
 300 0 l 1,35,-1
 300 100 l 1,32,-1
300 900 m 1,36,-1
 300 1000 l 1,37,-1
 700 1000 l 1,38,-1
 700 900 l 1,39,-1
 300 900 l 1,36,-1
EndSplineSet
EndChar

StartChar: Ocircumflex
Encoding: 212 212 146
Width: 1000
GlyphClass: 1
Flags: W
LayerCount: 2
Fore
SplineSet
900 200 m 1,0,-1
 800 200 l 1,1,-1
 800 800 l 1,2,-1
 900 800 l 1,3,-1
 900 200 l 1,0,-1
200 200 m 1,4,-1
 100 200 l 1,5,-1
 100 800 l 1,6,-1
 200 800 l 1,7,-1
 200 200 l 1,4,-1
200 100 m 1,8,-1
 200 200 l 1,9,-1
 300 200 l 1,10,-1
 300 100 l 1,11,-1
 200 100 l 1,8,-1
200 800 m 1,12,-1
 200 900 l 1,13,-1
 300 900 l 1,14,-1
 300 800 l 1,15,-1
 200 800 l 1,12,-1
400 1200 m 1,16,-1
 400 1100 l 1,17,-1
 300 1100 l 1,18,-1
 300 1200 l 1,19,-1
 400 1200 l 1,16,-1
400 1300 m 1,20,-1
 600 1300 l 1,21,-1
 600 1200 l 1,22,-1
 400 1200 l 1,23,-1
 400 1300 l 1,20,-1
600 1200 m 1,24,-1
 700 1200 l 1,25,-1
 700 1100 l 1,26,-1
 600 1100 l 1,27,-1
 600 1200 l 1,24,-1
800 200 m 1,28,-1
 800 100 l 1,29,-1
 700 100 l 1,30,-1
 700 200 l 1,31,-1
 800 200 l 1,28,-1
800 900 m 1,32,-1
 800 800 l 1,33,-1
 700 800 l 1,34,-1
 700 900 l 1,35,-1
 800 900 l 1,32,-1
300 100 m 1,36,-1
 700 100 l 1,37,-1
 700 0 l 1,38,-1
 300 0 l 1,39,-1
 300 100 l 1,36,-1
300 900 m 1,40,-1
 300 1000 l 1,41,-1
 700 1000 l 1,42,-1
 700 900 l 1,43,-1
 300 900 l 1,40,-1
EndSplineSet
EndChar

StartChar: Otilde
Encoding: 213 213 147
Width: 1000
GlyphClass: 1
Flags: W
LayerCount: 2
Fore
SplineSet
900 200 m 1,0,-1
 800 200 l 1,1,-1
 800 800 l 1,2,-1
 900 800 l 1,3,-1
 900 200 l 1,0,-1
200 200 m 1,4,-1
 100 200 l 1,5,-1
 100 800 l 1,6,-1
 200 800 l 1,7,-1
 200 200 l 1,4,-1
200 100 m 1,8,-1
 200 200 l 1,9,-1
 300 200 l 1,10,-1
 300 100 l 1,11,-1
 200 100 l 1,8,-1
200 800 m 1,12,-1
 200 900 l 1,13,-1
 300 900 l 1,14,-1
 300 800 l 1,15,-1
 200 800 l 1,12,-1
200 1100 m 1,16,-1
 200 1200 l 1,17,-1
 300 1200 l 1,18,-1
 300 1100 l 1,19,-1
 200 1100 l 1,16,-1
800 200 m 1,20,-1
 800 100 l 1,21,-1
 700 100 l 1,22,-1
 700 200 l 1,23,-1
 800 200 l 1,20,-1
800 900 m 1,24,-1
 800 800 l 1,25,-1
 700 800 l 1,26,-1
 700 900 l 1,27,-1
 800 900 l 1,24,-1
800 1200 m 1,28,-1
 700 1200 l 1,29,-1
 700 1300 l 1,30,-1
 800 1300 l 1,31,-1
 800 1200 l 1,28,-1
300 1200 m 1,32,-1
 300 1300 l 1,33,-1
 500 1300 l 1,34,-1
 500 1200 l 1,35,-1
 300 1200 l 1,32,-1
300 100 m 1,36,-1
 700 100 l 1,37,-1
 700 0 l 1,38,-1
 300 0 l 1,39,-1
 300 100 l 1,36,-1
300 900 m 1,40,-1
 300 1000 l 1,41,-1
 700 1000 l 1,42,-1
 700 900 l 1,43,-1
 300 900 l 1,40,-1
500 1200 m 1,44,-1
 700 1200 l 1,45,-1
 700 1100 l 1,46,-1
 500 1100 l 1,47,-1
 500 1200 l 1,44,-1
EndSplineSet
EndChar

StartChar: Odieresis
Encoding: 214 214 148
Width: 1000
GlyphClass: 1
Flags: W
LayerCount: 2
Fore
SplineSet
900 200 m 1,0,-1
 800 200 l 1,1,-1
 800 800 l 1,2,-1
 900 800 l 1,3,-1
 900 200 l 1,0,-1
200 200 m 1,4,-1
 100 200 l 1,5,-1
 100 800 l 1,6,-1
 200 800 l 1,7,-1
 200 200 l 1,4,-1
200 100 m 1,8,-1
 200 200 l 1,9,-1
 300 200 l 1,10,-1
 300 100 l 1,11,-1
 200 100 l 1,8,-1
200 800 m 1,12,-1
 200 900 l 1,13,-1
 300 900 l 1,14,-1
 300 800 l 1,15,-1
 200 800 l 1,12,-1
200 1200 m 1,16,-1
 200 1300 l 1,17,-1
 300 1300 l 1,18,-1
 300 1200 l 1,19,-1
 200 1200 l 1,16,-1
800 200 m 1,20,-1
 800 100 l 1,21,-1
 700 100 l 1,22,-1
 700 200 l 1,23,-1
 800 200 l 1,20,-1
800 900 m 1,24,-1
 800 800 l 1,25,-1
 700 800 l 1,26,-1
 700 900 l 1,27,-1
 800 900 l 1,24,-1
800 1200 m 1,28,-1
 700 1200 l 1,29,-1
 700 1300 l 1,30,-1
 800 1300 l 1,31,-1
 800 1200 l 1,28,-1
300 100 m 1,32,-1
 700 100 l 1,33,-1
 700 0 l 1,34,-1
 300 0 l 1,35,-1
 300 100 l 1,32,-1
300 900 m 1,36,-1
 300 1000 l 1,37,-1
 700 1000 l 1,38,-1
 700 900 l 1,39,-1
 300 900 l 1,36,-1
EndSplineSet
EndChar

StartChar: multiply
Encoding: 215 215 149
Width: 700
GlyphClass: 1
Flags: W
LayerCount: 2
Fore
SplineSet
200 200 m 1,0,-1
 100 200 l 1,1,-1
 100 300 l 1,2,-1
 200 300 l 1,3,-1
 200 200 l 1,0,-1
200 500 m 1,4,-1
 200 600 l 1,5,-1
 300 600 l 1,6,-1
 300 500 l 1,7,-1
 200 500 l 1,4,-1
200 300 m 1,8,-1
 200 400 l 1,9,-1
 300 400 l 1,10,-1
 300 300 l 1,11,-1
 200 300 l 1,8,-1
200 700 m 1,12,-1
 200 600 l 1,13,-1
 100 600 l 1,14,-1
 100 700 l 1,15,-1
 200 700 l 1,12,-1
400 500 m 1,16,-1
 400 400 l 1,17,-1
 300 400 l 1,18,-1
 300 500 l 1,19,-1
 400 500 l 1,16,-1
400 400 m 1,20,-1
 500 400 l 1,21,-1
 500 300 l 1,22,-1
 400 300 l 1,23,-1
 400 400 l 1,20,-1
400 600 m 1,24,-1
 500 600 l 1,25,-1
 500 500 l 1,26,-1
 400 500 l 1,27,-1
 400 600 l 1,24,-1
600 200 m 1,28,-1
 500 200 l 1,29,-1
 500 300 l 1,30,-1
 600 300 l 1,31,-1
 600 200 l 1,28,-1
600 700 m 1,32,-1
 600 600 l 1,33,-1
 500 600 l 1,34,-1
 500 700 l 1,35,-1
 600 700 l 1,32,-1
EndSplineSet
EndChar

StartChar: Oslash
Encoding: 216 216 150
Width: 1000
GlyphClass: 1
Flags: W
LayerCount: 2
Fore
SplineSet
900 200 m 1,0,-1
 800 200 l 1,1,-1
 800 800 l 1,2,-1
 900 800 l 1,3,-1
 900 200 l 1,0,-1
900 1000 m 1,4,-1
 900 900 l 1,5,-1
 800 900 l 1,6,-1
 800 1000 l 1,7,-1
 900 1000 l 1,4,-1
200 200 m 1,8,-1
 100 200 l 1,9,-1
 100 800 l 1,10,-1
 200 800 l 1,11,-1
 200 200 l 1,8,-1
200 100 m 1,12,-1
 200 200 l 1,13,-1
 300 200 l 1,14,-1
 300 100 l 1,15,-1
 200 100 l 1,12,-1
200 0 m 1,16,-1
 100 0 l 1,17,-1
 100 100 l 1,18,-1
 200 100 l 1,19,-1
 200 0 l 1,16,-1
200 800 m 1,20,-1
 200 900 l 1,21,-1
 300 900 l 1,22,-1
 300 800 l 1,23,-1
 200 800 l 1,20,-1
400 200 m 1,24,-1
 300 200 l 1,25,-1
 300 400 l 1,26,-1
 400 400 l 1,27,-1
 400 200 l 1,24,-1
400 400 m 1,28,-1
 400 500 l 1,29,-1
 500 500 l 1,30,-1
 500 400 l 1,31,-1
 400 400 l 1,28,-1
600 500 m 1,32,-1
 500 500 l 1,33,-1
 500 600 l 1,34,-1
 600 600 l 1,35,-1
 600 500 l 1,32,-1
600 600 m 1,36,-1
 600 800 l 1,37,-1
 700 800 l 1,38,-1
 700 600 l 1,39,-1
 600 600 l 1,36,-1
800 200 m 1,40,-1
 800 100 l 1,41,-1
 700 100 l 1,42,-1
 700 200 l 1,43,-1
 800 200 l 1,40,-1
800 900 m 1,44,-1
 800 800 l 1,45,-1
 700 800 l 1,46,-1
 700 900 l 1,47,-1
 800 900 l 1,44,-1
300 100 m 1,48,-1
 700 100 l 1,49,-1
 700 0 l 1,50,-1
 300 0 l 1,51,-1
 300 100 l 1,48,-1
300 900 m 1,52,-1
 300 1000 l 1,53,-1
 700 1000 l 1,54,-1
 700 900 l 1,55,-1
 300 900 l 1,52,-1
EndSplineSet
EndChar

StartChar: Ugrave
Encoding: 217 217 151
Width: 1000
GlyphClass: 1
Flags: W
LayerCount: 2
Fore
SplineSet
800 200 m 1,0,-1
 800 100 l 1,1,-1
 700 100 l 1,2,-1
 700 200 l 1,3,-1
 800 200 l 1,0,-1
800 1000 m 1,4,-1
 900 1000 l 1,5,-1
 900 200 l 1,6,-1
 800 200 l 1,7,-1
 800 1000 l 1,4,-1
100 200 m 1,8,-1
 100 1000 l 1,9,-1
 200 1000 l 1,10,-1
 200 200 l 1,11,-1
 100 200 l 1,8,-1
200 200 m 1,12,-1
 300 200 l 1,13,-1
 300 100 l 1,14,-1
 200 100 l 1,15,-1
 200 200 l 1,12,-1
300 100 m 1,16,-1
 700 100 l 1,17,-1
 700 0 l 1,18,-1
 300 0 l 1,19,-1
 300 100 l 1,16,-1
500 1200 m 1,20,-1
 400 1200 l 1,21,-1
 400 1300 l 1,22,-1
 500 1300 l 1,23,-1
 500 1200 l 1,20,-1
500 1100 m 1,24,-1
 500 1200 l 1,25,-1
 600 1200 l 1,26,-1
 600 1100 l 1,27,-1
 500 1100 l 1,24,-1
EndSplineSet
EndChar

StartChar: Uacute
Encoding: 218 218 152
Width: 1000
GlyphClass: 1
Flags: W
LayerCount: 2
Fore
SplineSet
800 200 m 1,0,-1
 800 100 l 1,1,-1
 700 100 l 1,2,-1
 700 200 l 1,3,-1
 800 200 l 1,0,-1
800 1000 m 1,4,-1
 900 1000 l 1,5,-1
 900 200 l 1,6,-1
 800 200 l 1,7,-1
 800 1000 l 1,4,-1
100 200 m 1,8,-1
 100 1000 l 1,9,-1
 200 1000 l 1,10,-1
 200 200 l 1,11,-1
 100 200 l 1,8,-1
200 200 m 1,12,-1
 300 200 l 1,13,-1
 300 100 l 1,14,-1
 200 100 l 1,15,-1
 200 200 l 1,12,-1
300 100 m 1,16,-1
 700 100 l 1,17,-1
 700 0 l 1,18,-1
 300 0 l 1,19,-1
 300 100 l 1,16,-1
500 1200 m 1,20,-1
 500 1100 l 1,21,-1
 400 1100 l 1,22,-1
 400 1200 l 1,23,-1
 500 1200 l 1,20,-1
500 1300 m 1,24,-1
 600 1300 l 1,25,-1
 600 1200 l 1,26,-1
 500 1200 l 1,27,-1
 500 1300 l 1,24,-1
EndSplineSet
EndChar

StartChar: Ucircumflex
Encoding: 219 219 153
Width: 1000
GlyphClass: 1
Flags: W
LayerCount: 2
Fore
SplineSet
900 200 m 1,0,-1
 800 200 l 1,1,-1
 800 1000 l 1,2,-1
 900 1000 l 1,3,-1
 900 200 l 1,0,-1
200 200 m 1,4,-1
 100 200 l 1,5,-1
 100 1000 l 1,6,-1
 200 1000 l 1,7,-1
 200 200 l 1,4,-1
200 100 m 1,8,-1
 200 200 l 1,9,-1
 300 200 l 1,10,-1
 300 100 l 1,11,-1
 200 100 l 1,8,-1
400 1000 m 1,12,-1
 300 1000 l 1,13,-1
 300 1200 l 1,14,-1
 400 1200 l 1,15,-1
 400 1000 l 1,12,-1
400 1200 m 1,16,-1
 400 1300 l 1,17,-1
 600 1300 l 1,18,-1
 600 1200 l 1,19,-1
 400 1200 l 1,16,-1
600 1000 m 1,20,-1
 600 1200 l 1,21,-1
 700 1200 l 1,22,-1
 700 1000 l 1,23,-1
 600 1000 l 1,20,-1
800 200 m 1,24,-1
 800 100 l 1,25,-1
 700 100 l 1,26,-1
 700 200 l 1,27,-1
 800 200 l 1,24,-1
300 100 m 1,28,-1
 700 100 l 1,29,-1
 700 0 l 1,30,-1
 300 0 l 1,31,-1
 300 100 l 1,28,-1
EndSplineSet
EndChar

StartChar: Udieresis
Encoding: 220 220 154
Width: 1000
GlyphClass: 1
Flags: W
LayerCount: 2
Fore
SplineSet
800 200 m 1,0,-1
 800 100 l 1,1,-1
 700 100 l 1,2,-1
 700 200 l 1,3,-1
 800 200 l 1,0,-1
800 1000 m 1,4,-1
 900 1000 l 1,5,-1
 900 200 l 1,6,-1
 800 200 l 1,7,-1
 800 1000 l 1,4,-1
800 1200 m 1,8,-1
 700 1200 l 1,9,-1
 700 1300 l 1,10,-1
 800 1300 l 1,11,-1
 800 1200 l 1,8,-1
100 200 m 1,12,-1
 100 1000 l 1,13,-1
 200 1000 l 1,14,-1
 200 200 l 1,15,-1
 100 200 l 1,12,-1
300 1200 m 1,16,-1
 200 1200 l 1,17,-1
 200 1300 l 1,18,-1
 300 1300 l 1,19,-1
 300 1200 l 1,16,-1
200 200 m 1,20,-1
 300 200 l 1,21,-1
 300 100 l 1,22,-1
 200 100 l 1,23,-1
 200 200 l 1,20,-1
300 100 m 1,24,-1
 700 100 l 1,25,-1
 700 0 l 1,26,-1
 300 0 l 1,27,-1
 300 100 l 1,24,-1
EndSplineSet
EndChar

StartChar: Yacute
Encoding: 221 221 155
Width: 900
GlyphClass: 1
Flags: W
LayerCount: 2
Fore
SplineSet
0 1000 m 1,0,-1
 100 1000 l 1,1,-1
 100 800 l 1,2,-1
 0 800 l 1,3,-1
 0 1000 l 1,0,-1
900 800 m 1,4,-1
 800 800 l 1,5,-1
 800 1000 l 1,6,-1
 900 1000 l 1,7,-1
 900 800 l 1,4,-1
200 700 m 1,8,-1
 100 700 l 1,9,-1
 100 800 l 1,10,-1
 200 800 l 1,11,-1
 200 700 l 1,8,-1
200 600 m 1,12,-1
 200 700 l 1,13,-1
 300 700 l 1,14,-1
 300 600 l 1,15,-1
 200 600 l 1,12,-1
400 0 m 1,16,-1
 400 500 l 1,17,-1
 500 500 l 1,18,-1
 500 0 l 1,19,-1
 400 0 l 1,16,-1
400 500 m 1,20,-1
 300 500 l 1,21,-1
 300 600 l 1,22,-1
 400 600 l 1,23,-1
 400 500 l 1,20,-1
400 1100 m 1,24,-1
 400 1200 l 1,25,-1
 500 1200 l 1,26,-1
 500 1100 l 1,27,-1
 400 1100 l 1,24,-1
600 500 m 1,28,-1
 500 500 l 1,29,-1
 500 600 l 1,30,-1
 600 600 l 1,31,-1
 600 500 l 1,28,-1
600 600 m 1,32,-1
 600 700 l 1,33,-1
 700 700 l 1,34,-1
 700 600 l 1,35,-1
 600 600 l 1,32,-1
600 1200 m 1,36,-1
 500 1200 l 1,37,-1
 500 1300 l 1,38,-1
 600 1300 l 1,39,-1
 600 1200 l 1,36,-1
800 700 m 1,40,-1
 700 700 l 1,41,-1
 700 800 l 1,42,-1
 800 800 l 1,43,-1
 800 700 l 1,40,-1
EndSplineSet
EndChar

StartChar: Thorn
Encoding: 222 222 156
Width: 900
GlyphClass: 1
Flags: W
LayerCount: 2
Fore
SplineSet
800 400 m 1,0,-1
 700 400 l 1,1,-1
 700 600 l 1,2,-1
 800 600 l 1,3,-1
 800 400 l 1,0,-1
100 0 m 1,4,-1
 100 1000 l 1,5,-1
 200 1000 l 1,6,-1
 200 800 l 1,7,-1
 600 800 l 1,8,-1
 600 700 l 1,9,-1
 200 700 l 1,10,-1
 200 300 l 1,11,-1
 600 300 l 1,12,-1
 600 200 l 1,13,-1
 200 200 l 1,14,-1
 200 0 l 1,15,-1
 100 0 l 1,4,-1
600 300 m 1,16,-1
 600 400 l 1,17,-1
 700 400 l 1,18,-1
 700 300 l 1,19,-1
 600 300 l 1,16,-1
600 700 m 1,20,-1
 700 700 l 1,21,-1
 700 600 l 1,22,-1
 600 600 l 1,23,-1
 600 700 l 1,20,-1
EndSplineSet
EndChar

StartChar: germandbls
Encoding: 223 223 157
Width: 800
GlyphClass: 1
Flags: W
LayerCount: 2
Fore
SplineSet
100 0 m 1,0,-1
 100 900 l 1,1,-1
 200 900 l 1,2,-1
 200 0 l 1,3,-1
 100 0 l 1,0,-1
200 900 m 1,4,-1
 200 1000 l 1,5,-1
 600 1000 l 1,6,-1
 600 900 l 1,7,-1
 200 900 l 1,4,-1
300 0 m 1,8,-1
 300 100 l 1,9,-1
 600 100 l 1,10,-1
 600 0 l 1,11,-1
 300 0 l 1,8,-1
300 500 m 1,12,-1
 300 600 l 1,13,-1
 600 600 l 1,14,-1
 600 500 l 1,15,-1
 300 500 l 1,12,-1
600 100 m 1,16,-1
 600 500 l 1,17,-1
 700 500 l 1,18,-1
 700 100 l 1,19,-1
 600 100 l 1,16,-1
600 600 m 1,20,-1
 600 900 l 1,21,-1
 700 900 l 1,22,-1
 700 600 l 1,23,-1
 600 600 l 1,20,-1
EndSplineSet
EndChar

StartChar: agrave
Encoding: 224 224 158
Width: 800
GlyphClass: 1
Flags: W
LayerCount: 2
Fore
SplineSet
200 100 m 1,0,-1
 100 100 l 1,1,-1
 100 400 l 1,2,-1
 200 400 l 1,3,-1
 200 100 l 1,0,-1
200 0 m 1,4,-1
 200 100 l 1,5,-1
 600 100 l 1,6,-1
 600 0 l 1,7,-1
 200 0 l 1,4,-1
200 500 m 1,8,-1
 100 500 l 1,9,-1
 100 600 l 1,10,-1
 200 600 l 1,11,-1
 200 500 l 1,8,-1
200 400 m 1,12,-1
 200 500 l 1,13,-1
 600 500 l 1,14,-1
 600 600 l 1,15,-1
 700 600 l 1,16,-1
 700 100 l 1,17,-1
 600 100 l 1,18,-1
 600 400 l 1,19,-1
 200 400 l 1,12,-1
200 600 m 1,20,-1
 200 700 l 1,21,-1
 600 700 l 1,22,-1
 600 600 l 1,23,-1
 200 600 l 1,20,-1
400 1000 m 1,24,-1
 400 900 l 1,25,-1
 300 900 l 1,26,-1
 300 1000 l 1,27,-1
 400 1000 l 1,24,-1
400 900 m 1,28,-1
 500 900 l 1,29,-1
 500 800 l 1,30,-1
 400 800 l 1,31,-1
 400 900 l 1,28,-1
800 100 m 1,32,-1
 800 0 l 1,33,-1
 700 0 l 1,34,-1
 700 100 l 1,35,-1
 800 100 l 1,32,-1
EndSplineSet
EndChar

StartChar: aacute
Encoding: 225 225 159
Width: 800
GlyphClass: 1
Flags: W
LayerCount: 2
Fore
SplineSet
200 100 m 1,0,-1
 100 100 l 1,1,-1
 100 400 l 1,2,-1
 200 400 l 1,3,-1
 200 100 l 1,0,-1
200 0 m 1,4,-1
 200 100 l 1,5,-1
 600 100 l 1,6,-1
 600 0 l 1,7,-1
 200 0 l 1,4,-1
200 500 m 1,8,-1
 100 500 l 1,9,-1
 100 600 l 1,10,-1
 200 600 l 1,11,-1
 200 500 l 1,8,-1
200 400 m 1,12,-1
 200 500 l 1,13,-1
 600 500 l 1,14,-1
 600 600 l 1,15,-1
 700 600 l 1,16,-1
 700 100 l 1,17,-1
 600 100 l 1,18,-1
 600 400 l 1,19,-1
 200 400 l 1,12,-1
200 600 m 1,20,-1
 200 700 l 1,21,-1
 600 700 l 1,22,-1
 600 600 l 1,23,-1
 200 600 l 1,20,-1
400 900 m 1,24,-1
 400 1000 l 1,25,-1
 500 1000 l 1,26,-1
 500 900 l 1,27,-1
 400 900 l 1,24,-1
400 800 m 1,28,-1
 300 800 l 1,29,-1
 300 900 l 1,30,-1
 400 900 l 1,31,-1
 400 800 l 1,28,-1
800 100 m 1,32,-1
 800 0 l 1,33,-1
 700 0 l 1,34,-1
 700 100 l 1,35,-1
 800 100 l 1,32,-1
EndSplineSet
EndChar

StartChar: acircumflex
Encoding: 226 226 160
Width: 800
GlyphClass: 1
Flags: W
LayerCount: 2
Fore
SplineSet
200 100 m 1,0,-1
 100 100 l 1,1,-1
 100 400 l 1,2,-1
 200 400 l 1,3,-1
 200 100 l 1,0,-1
200 0 m 1,4,-1
 200 100 l 1,5,-1
 600 100 l 1,6,-1
 600 0 l 1,7,-1
 200 0 l 1,4,-1
200 500 m 1,8,-1
 100 500 l 1,9,-1
 100 600 l 1,10,-1
 200 600 l 1,11,-1
 200 500 l 1,8,-1
200 400 m 1,12,-1
 200 500 l 1,13,-1
 600 500 l 1,14,-1
 600 600 l 1,15,-1
 700 600 l 1,16,-1
 700 100 l 1,17,-1
 600 100 l 1,18,-1
 600 400 l 1,19,-1
 200 400 l 1,12,-1
200 600 m 1,20,-1
 200 700 l 1,21,-1
 600 700 l 1,22,-1
 600 600 l 1,23,-1
 200 600 l 1,20,-1
200 800 m 1,24,-1
 200 900 l 1,25,-1
 300 900 l 1,26,-1
 300 800 l 1,27,-1
 200 800 l 1,24,-1
600 900 m 1,28,-1
 600 800 l 1,29,-1
 500 800 l 1,30,-1
 500 900 l 1,31,-1
 600 900 l 1,28,-1
800 100 m 1,32,-1
 800 0 l 1,33,-1
 700 0 l 1,34,-1
 700 100 l 1,35,-1
 800 100 l 1,32,-1
300 900 m 1,36,-1
 300 1000 l 1,37,-1
 500 1000 l 1,38,-1
 500 900 l 1,39,-1
 300 900 l 1,36,-1
EndSplineSet
EndChar

StartChar: atilde
Encoding: 227 227 161
Width: 800
GlyphClass: 1
Flags: W
LayerCount: 2
Fore
SplineSet
200 100 m 1,0,-1
 100 100 l 1,1,-1
 100 400 l 1,2,-1
 200 400 l 1,3,-1
 200 100 l 1,0,-1
200 0 m 1,4,-1
 200 100 l 1,5,-1
 600 100 l 1,6,-1
 600 0 l 1,7,-1
 200 0 l 1,4,-1
200 500 m 1,8,-1
 100 500 l 1,9,-1
 100 600 l 1,10,-1
 200 600 l 1,11,-1
 200 500 l 1,8,-1
200 400 m 1,12,-1
 200 500 l 1,13,-1
 600 500 l 1,14,-1
 600 600 l 1,15,-1
 700 600 l 1,16,-1
 700 100 l 1,17,-1
 600 100 l 1,18,-1
 600 400 l 1,19,-1
 200 400 l 1,12,-1
200 600 m 1,20,-1
 200 700 l 1,21,-1
 600 700 l 1,22,-1
 600 600 l 1,23,-1
 200 600 l 1,20,-1
200 900 m 1,24,-1
 200 1000 l 1,25,-1
 400 1000 l 1,26,-1
 400 900 l 1,27,-1
 200 900 l 1,24,-1
200 800 m 1,28,-1
 100 800 l 1,29,-1
 100 900 l 1,30,-1
 200 900 l 1,31,-1
 200 800 l 1,28,-1
400 900 m 1,32,-1
 600 900 l 1,33,-1
 600 800 l 1,34,-1
 400 800 l 1,35,-1
 400 900 l 1,32,-1
600 900 m 1,36,-1
 600 1000 l 1,37,-1
 700 1000 l 1,38,-1
 700 900 l 1,39,-1
 600 900 l 1,36,-1
800 100 m 1,40,-1
 800 0 l 1,41,-1
 700 0 l 1,42,-1
 700 100 l 1,43,-1
 800 100 l 1,40,-1
EndSplineSet
EndChar

StartChar: adieresis
Encoding: 228 228 162
Width: 800
GlyphClass: 1
Flags: W
LayerCount: 2
Fore
SplineSet
200 100 m 1,0,-1
 100 100 l 1,1,-1
 100 400 l 1,2,-1
 200 400 l 1,3,-1
 200 100 l 1,0,-1
200 0 m 1,4,-1
 200 100 l 1,5,-1
 600 100 l 1,6,-1
 600 0 l 1,7,-1
 200 0 l 1,4,-1
200 500 m 1,8,-1
 100 500 l 1,9,-1
 100 600 l 1,10,-1
 200 600 l 1,11,-1
 200 500 l 1,8,-1
200 400 m 1,12,-1
 200 500 l 1,13,-1
 600 500 l 1,14,-1
 600 600 l 1,15,-1
 700 600 l 1,16,-1
 700 100 l 1,17,-1
 600 100 l 1,18,-1
 600 400 l 1,19,-1
 200 400 l 1,12,-1
200 600 m 1,20,-1
 200 700 l 1,21,-1
 600 700 l 1,22,-1
 600 600 l 1,23,-1
 200 600 l 1,20,-1
200 900 m 1,24,-1
 200 1000 l 1,25,-1
 300 1000 l 1,26,-1
 300 900 l 1,27,-1
 200 900 l 1,24,-1
600 1000 m 1,28,-1
 600 900 l 1,29,-1
 500 900 l 1,30,-1
 500 1000 l 1,31,-1
 600 1000 l 1,28,-1
800 100 m 1,32,-1
 800 0 l 1,33,-1
 700 0 l 1,34,-1
 700 100 l 1,35,-1
 800 100 l 1,32,-1
EndSplineSet
EndChar

StartChar: aring
Encoding: 229 229 163
Width: 800
GlyphClass: 1
Flags: W
LayerCount: 2
Fore
SplineSet
200 100 m 1,0,-1
 100 100 l 1,1,-1
 100 400 l 1,2,-1
 200 400 l 1,3,-1
 200 100 l 1,0,-1
200 0 m 1,4,-1
 200 100 l 1,5,-1
 600 100 l 1,6,-1
 600 0 l 1,7,-1
 200 0 l 1,4,-1
200 500 m 1,8,-1
 100 500 l 1,9,-1
 100 600 l 1,10,-1
 200 600 l 1,11,-1
 200 500 l 1,8,-1
200 400 m 1,12,-1
 200 500 l 1,13,-1
 600 500 l 1,14,-1
 600 600 l 1,15,-1
 700 600 l 1,16,-1
 700 100 l 1,17,-1
 600 100 l 1,18,-1
 600 400 l 1,19,-1
 200 400 l 1,12,-1
200 600 m 1,20,-1
 200 700 l 1,21,-1
 600 700 l 1,22,-1
 600 600 l 1,23,-1
 200 600 l 1,20,-1
200 900 m 1,24,-1
 200 1000 l 1,25,-1
 300 1000 l 1,26,-1
 300 900 l 1,27,-1
 200 900 l 1,24,-1
600 1000 m 1,28,-1
 600 900 l 1,29,-1
 500 900 l 1,30,-1
 500 1000 l 1,31,-1
 600 1000 l 1,28,-1
800 100 m 1,32,-1
 800 0 l 1,33,-1
 700 0 l 1,34,-1
 700 100 l 1,35,-1
 800 100 l 1,32,-1
300 1100 m 1,36,-1
 500 1100 l 1,37,-1
 500 1000 l 1,38,-1
 300 1000 l 1,39,-1
 300 1100 l 1,36,-1
300 900 m 1,40,-1
 500 900 l 1,41,-1
 500 800 l 1,42,-1
 300 800 l 1,43,-1
 300 900 l 1,40,-1
EndSplineSet
EndChar

StartChar: ae
Encoding: 230 230 164
Width: 1300
GlyphClass: 1
Flags: W
LayerCount: 2
Fore
SplineSet
200 100 m 1,0,-1
 100 100 l 1,1,-1
 100 400 l 1,2,-1
 200 400 l 1,3,-1
 200 100 l 1,0,-1
200 0 m 1,4,-1
 200 100 l 1,5,-1
 600 100 l 1,6,-1
 600 0 l 1,7,-1
 200 0 l 1,4,-1
200 500 m 1,8,-1
 100 500 l 1,9,-1
 100 600 l 1,10,-1
 200 600 l 1,11,-1
 200 500 l 1,8,-1
200 400 m 1,12,-1
 200 500 l 1,13,-1
 600 500 l 1,14,-1
 600 600 l 1,15,-1
 700 600 l 1,16,-1
 700 400 l 1,17,-1
 1100 400 l 1,18,-1
 1100 600 l 1,19,-1
 1200 600 l 1,20,-1
 1200 300 l 1,21,-1
 700 300 l 1,22,-1
 700 100 l 1,23,-1
 600 100 l 1,24,-1
 600 400 l 1,25,-1
 200 400 l 1,12,-1
200 600 m 1,26,-1
 200 700 l 1,27,-1
 600 700 l 1,28,-1
 600 600 l 1,29,-1
 200 600 l 1,26,-1
1100 100 m 1,30,-1
 1100 200 l 1,31,-1
 1200 200 l 1,32,-1
 1200 100 l 1,33,-1
 1100 100 l 1,30,-1
1100 0 m 1,34,-1
 700 0 l 1,35,-1
 700 100 l 1,36,-1
 1100 100 l 1,37,-1
 1100 0 l 1,34,-1
1100 700 m 1,38,-1
 1100 600 l 1,39,-1
 700 600 l 1,40,-1
 700 700 l 1,41,-1
 1100 700 l 1,38,-1
EndSplineSet
EndChar

StartChar: ccedilla
Encoding: 231 231 165
Width: 700
GlyphClass: 1
Flags: W
LayerCount: 2
Fore
SplineSet
200 100 m 1,0,-1
 100 100 l 1,1,-1
 100 600 l 1,2,-1
 200 600 l 1,3,-1
 200 100 l 1,0,-1
200 0 m 1,4,-1
 200 100 l 1,5,-1
 600 100 l 1,6,-1
 600 0 l 1,7,-1
 500 0 l 1,8,-1
 500 -100 l 1,9,-1
 400 -100 l 1,10,-1
 400 0 l 1,11,-1
 200 0 l 1,4,-1
200 600 m 1,12,-1
 200 700 l 1,13,-1
 600 700 l 1,14,-1
 600 600 l 1,15,-1
 200 600 l 1,12,-1
600 100 m 1,16,-1
 600 200 l 1,17,-1
 700 200 l 1,18,-1
 700 100 l 1,19,-1
 600 100 l 1,16,-1
600 -100 m 1,20,-1
 600 -200 l 1,21,-1
 500 -200 l 1,22,-1
 500 -100 l 1,23,-1
 600 -100 l 1,20,-1
600 500 m 1,24,-1
 600 600 l 1,25,-1
 700 600 l 1,26,-1
 700 500 l 1,27,-1
 600 500 l 1,24,-1
300 -200 m 1,28,-1
 500 -200 l 1,29,-1
 500 -300 l 1,30,-1
 300 -300 l 1,31,-1
 300 -200 l 1,28,-1
EndSplineSet
EndChar

StartChar: egrave
Encoding: 232 232 166
Width: 800
GlyphClass: 1
Flags: W
LayerCount: 2
Fore
SplineSet
200 100 m 1,0,-1
 100 100 l 1,1,-1
 100 600 l 1,2,-1
 200 600 l 1,3,-1
 200 400 l 1,4,-1
 600 400 l 1,5,-1
 600 600 l 1,6,-1
 700 600 l 1,7,-1
 700 300 l 1,8,-1
 200 300 l 1,9,-1
 200 100 l 1,0,-1
200 0 m 1,10,-1
 200 100 l 1,11,-1
 600 100 l 1,12,-1
 600 0 l 1,13,-1
 200 0 l 1,10,-1
200 600 m 1,14,-1
 200 700 l 1,15,-1
 600 700 l 1,16,-1
 600 600 l 1,17,-1
 200 600 l 1,14,-1
400 1000 m 1,18,-1
 400 900 l 1,19,-1
 300 900 l 1,20,-1
 300 1000 l 1,21,-1
 400 1000 l 1,18,-1
400 900 m 1,22,-1
 500 900 l 1,23,-1
 500 800 l 1,24,-1
 400 800 l 1,25,-1
 400 900 l 1,22,-1
600 100 m 1,26,-1
 600 200 l 1,27,-1
 700 200 l 1,28,-1
 700 100 l 1,29,-1
 600 100 l 1,26,-1
EndSplineSet
EndChar

StartChar: eacute
Encoding: 233 233 167
Width: 800
GlyphClass: 1
Flags: W
LayerCount: 2
Fore
SplineSet
200 100 m 1,0,-1
 100 100 l 1,1,-1
 100 600 l 1,2,-1
 200 600 l 1,3,-1
 200 400 l 1,4,-1
 600 400 l 1,5,-1
 600 600 l 1,6,-1
 700 600 l 1,7,-1
 700 300 l 1,8,-1
 200 300 l 1,9,-1
 200 100 l 1,0,-1
200 0 m 1,10,-1
 200 100 l 1,11,-1
 600 100 l 1,12,-1
 600 0 l 1,13,-1
 200 0 l 1,10,-1
200 600 m 1,14,-1
 200 700 l 1,15,-1
 600 700 l 1,16,-1
 600 600 l 1,17,-1
 200 600 l 1,14,-1
400 900 m 1,18,-1
 400 1000 l 1,19,-1
 500 1000 l 1,20,-1
 500 900 l 1,21,-1
 400 900 l 1,18,-1
400 800 m 1,22,-1
 300 800 l 1,23,-1
 300 900 l 1,24,-1
 400 900 l 1,25,-1
 400 800 l 1,22,-1
600 100 m 1,26,-1
 600 200 l 1,27,-1
 700 200 l 1,28,-1
 700 100 l 1,29,-1
 600 100 l 1,26,-1
EndSplineSet
EndChar

StartChar: ecircumflex
Encoding: 234 234 168
Width: 800
GlyphClass: 1
Flags: W
LayerCount: 2
Fore
SplineSet
200 100 m 1,0,-1
 100 100 l 1,1,-1
 100 600 l 1,2,-1
 200 600 l 1,3,-1
 200 400 l 1,4,-1
 600 400 l 1,5,-1
 600 600 l 1,6,-1
 700 600 l 1,7,-1
 700 300 l 1,8,-1
 200 300 l 1,9,-1
 200 100 l 1,0,-1
200 0 m 1,10,-1
 200 100 l 1,11,-1
 600 100 l 1,12,-1
 600 0 l 1,13,-1
 200 0 l 1,10,-1
200 600 m 1,14,-1
 200 700 l 1,15,-1
 600 700 l 1,16,-1
 600 600 l 1,17,-1
 200 600 l 1,14,-1
200 800 m 1,18,-1
 200 900 l 1,19,-1
 300 900 l 1,20,-1
 300 800 l 1,21,-1
 200 800 l 1,18,-1
600 100 m 1,22,-1
 600 200 l 1,23,-1
 700 200 l 1,24,-1
 700 100 l 1,25,-1
 600 100 l 1,22,-1
600 900 m 1,26,-1
 600 800 l 1,27,-1
 500 800 l 1,28,-1
 500 900 l 1,29,-1
 600 900 l 1,26,-1
300 900 m 1,30,-1
 300 1000 l 1,31,-1
 500 1000 l 1,32,-1
 500 900 l 1,33,-1
 300 900 l 1,30,-1
EndSplineSet
EndChar

StartChar: edieresis
Encoding: 235 235 169
Width: 800
GlyphClass: 1
Flags: W
LayerCount: 2
Fore
SplineSet
200 100 m 1,0,-1
 100 100 l 1,1,-1
 100 600 l 1,2,-1
 200 600 l 1,3,-1
 200 400 l 1,4,-1
 600 400 l 1,5,-1
 600 600 l 1,6,-1
 700 600 l 1,7,-1
 700 300 l 1,8,-1
 200 300 l 1,9,-1
 200 100 l 1,0,-1
200 0 m 1,10,-1
 200 100 l 1,11,-1
 600 100 l 1,12,-1
 600 0 l 1,13,-1
 200 0 l 1,10,-1
200 600 m 1,14,-1
 200 700 l 1,15,-1
 600 700 l 1,16,-1
 600 600 l 1,17,-1
 200 600 l 1,14,-1
200 900 m 1,18,-1
 200 1000 l 1,19,-1
 300 1000 l 1,20,-1
 300 900 l 1,21,-1
 200 900 l 1,18,-1
600 100 m 1,22,-1
 600 200 l 1,23,-1
 700 200 l 1,24,-1
 700 100 l 1,25,-1
 600 100 l 1,22,-1
600 1000 m 1,26,-1
 600 900 l 1,27,-1
 500 900 l 1,28,-1
 500 1000 l 1,29,-1
 600 1000 l 1,26,-1
EndSplineSet
EndChar

StartChar: igrave
Encoding: 236 236 170
Width: 300
GlyphClass: 1
Flags: W
LayerCount: 2
Fore
SplineSet
0 900 m 1,0,-1
 0 1000 l 1,1,-1
 100 1000 l 1,2,-1
 100 900 l 1,3,-1
 0 900 l 1,0,-1
100 0 m 1,4,-1
 100 700 l 1,5,-1
 200 700 l 1,6,-1
 200 0 l 1,7,-1
 100 0 l 1,4,-1
100 900 m 1,8,-1
 200 900 l 1,9,-1
 200 800 l 1,10,-1
 100 800 l 1,11,-1
 100 900 l 1,8,-1
EndSplineSet
EndChar

StartChar: iacute
Encoding: 237 237 171
Width: 300
GlyphClass: 1
Flags: W
LayerCount: 2
Fore
SplineSet
100 0 m 1,0,-1
 100 700 l 1,1,-1
 200 700 l 1,2,-1
 200 0 l 1,3,-1
 100 0 l 1,0,-1
100 800 m 1,4,-1
 100 900 l 1,5,-1
 200 900 l 1,6,-1
 200 800 l 1,7,-1
 100 800 l 1,4,-1
200 900 m 1,8,-1
 200 1000 l 1,9,-1
 300 1000 l 1,10,-1
 300 900 l 1,11,-1
 200 900 l 1,8,-1
EndSplineSet
EndChar

StartChar: icircumflex
Encoding: 238 238 172
Width: 300
GlyphClass: 1
Flags: W
LayerCount: 2
Fore
SplineSet
0 800 m 1,0,-1
 0 900 l 1,1,-1
 100 900 l 1,2,-1
 100 800 l 1,3,-1
 0 800 l 1,0,-1
100 0 m 1,4,-1
 100 700 l 1,5,-1
 200 700 l 1,6,-1
 200 0 l 1,7,-1
 100 0 l 1,4,-1
100 900 m 1,8,-1
 100 1000 l 1,9,-1
 200 1000 l 1,10,-1
 200 900 l 1,11,-1
 100 900 l 1,8,-1
200 900 m 1,12,-1
 300 900 l 1,13,-1
 300 800 l 1,14,-1
 200 800 l 1,15,-1
 200 900 l 1,12,-1
EndSplineSet
EndChar

StartChar: idieresis
Encoding: 239 239 173
Width: 300
GlyphClass: 1
Flags: W
LayerCount: 2
Fore
SplineSet
0 900 m 1,0,-1
 0 1000 l 1,1,-1
 100 1000 l 1,2,-1
 100 900 l 1,3,-1
 0 900 l 1,0,-1
100 0 m 1,4,-1
 100 700 l 1,5,-1
 200 700 l 1,6,-1
 200 0 l 1,7,-1
 100 0 l 1,4,-1
200 900 m 1,8,-1
 200 1000 l 1,9,-1
 300 1000 l 1,10,-1
 300 900 l 1,11,-1
 200 900 l 1,8,-1
EndSplineSet
EndChar

StartChar: eth
Encoding: 240 240 174
Width: 800
GlyphClass: 1
Flags: W
LayerCount: 2
Fore
SplineSet
200 100 m 1,0,-1
 100 100 l 1,1,-1
 100 500 l 1,2,-1
 200 500 l 1,3,-1
 200 100 l 1,0,-1
200 0 m 1,4,-1
 200 100 l 1,5,-1
 600 100 l 1,6,-1
 600 0 l 1,7,-1
 200 0 l 1,4,-1
200 500 m 1,8,-1
 200 600 l 1,9,-1
 500 600 l 1,10,-1
 500 800 l 1,11,-1
 600 800 l 1,12,-1
 600 600 l 1,13,-1
 700 600 l 1,14,-1
 700 100 l 1,15,-1
 600 100 l 1,16,-1
 600 500 l 1,17,-1
 200 500 l 1,8,-1
400 700 m 1,18,-1
 300 700 l 1,19,-1
 300 800 l 1,20,-1
 400 800 l 1,21,-1
 400 700 l 1,18,-1
400 1000 m 1,22,-1
 400 900 l 1,23,-1
 300 900 l 1,24,-1
 300 1000 l 1,25,-1
 400 1000 l 1,22,-1
400 900 m 1,26,-1
 500 900 l 1,27,-1
 500 800 l 1,28,-1
 400 800 l 1,29,-1
 400 900 l 1,26,-1
600 1000 m 1,30,-1
 600 900 l 1,31,-1
 500 900 l 1,32,-1
 500 1000 l 1,33,-1
 600 1000 l 1,30,-1
EndSplineSet
EndChar

StartChar: ntilde
Encoding: 241 241 175
Width: 700
GlyphClass: 1
Flags: W
LayerCount: 2
Fore
SplineSet
200 0 m 1,0,-1
 100 0 l 1,1,-1
 100 700 l 1,2,-1
 200 700 l 1,3,-1
 200 600 l 1,4,-1
 300 600 l 1,5,-1
 300 500 l 1,6,-1
 200 500 l 1,7,-1
 200 0 l 1,0,-1
200 900 m 1,8,-1
 200 1000 l 1,9,-1
 400 1000 l 1,10,-1
 400 900 l 1,11,-1
 500 900 l 1,12,-1
 500 800 l 1,13,-1
 300 800 l 1,14,-1
 300 900 l 1,15,-1
 200 900 l 1,8,-1
200 800 m 1,16,-1
 100 800 l 1,17,-1
 100 900 l 1,18,-1
 200 900 l 1,19,-1
 200 800 l 1,16,-1
600 0 m 1,20,-1
 500 0 l 1,21,-1
 500 600 l 1,22,-1
 600 600 l 1,23,-1
 600 0 l 1,20,-1
600 1000 m 1,24,-1
 600 900 l 1,25,-1
 500 900 l 1,26,-1
 500 1000 l 1,27,-1
 600 1000 l 1,24,-1
300 600 m 1,28,-1
 300 700 l 1,29,-1
 500 700 l 1,30,-1
 500 600 l 1,31,-1
 300 600 l 1,28,-1
EndSplineSet
EndChar

StartChar: ograve
Encoding: 242 242 176
Width: 800
GlyphClass: 1
Flags: W
LayerCount: 2
Fore
SplineSet
100 100 m 1,0,-1
 100 600 l 1,1,-1
 200 600 l 1,2,-1
 200 100 l 1,3,-1
 100 100 l 1,0,-1
200 100 m 1,4,-1
 600 100 l 1,5,-1
 600 0 l 1,6,-1
 200 0 l 1,7,-1
 200 100 l 1,4,-1
200 600 m 1,8,-1
 200 700 l 1,9,-1
 600 700 l 1,10,-1
 600 600 l 1,11,-1
 200 600 l 1,8,-1
300 900 m 1,12,-1
 300 1000 l 1,13,-1
 400 1000 l 1,14,-1
 400 900 l 1,15,-1
 300 900 l 1,12,-1
400 900 m 1,16,-1
 500 900 l 1,17,-1
 500 800 l 1,18,-1
 400 800 l 1,19,-1
 400 900 l 1,16,-1
600 100 m 1,20,-1
 600 600 l 1,21,-1
 700 600 l 1,22,-1
 700 100 l 1,23,-1
 600 100 l 1,20,-1
EndSplineSet
EndChar

StartChar: oacute
Encoding: 243 243 177
Width: 800
GlyphClass: 1
Flags: W
LayerCount: 2
Fore
SplineSet
100 100 m 1,0,-1
 100 600 l 1,1,-1
 200 600 l 1,2,-1
 200 100 l 1,3,-1
 100 100 l 1,0,-1
200 100 m 1,4,-1
 600 100 l 1,5,-1
 600 0 l 1,6,-1
 200 0 l 1,7,-1
 200 100 l 1,4,-1
200 600 m 1,8,-1
 200 700 l 1,9,-1
 600 700 l 1,10,-1
 600 600 l 1,11,-1
 200 600 l 1,8,-1
300 800 m 1,12,-1
 300 900 l 1,13,-1
 400 900 l 1,14,-1
 400 800 l 1,15,-1
 300 800 l 1,12,-1
400 900 m 1,16,-1
 400 1000 l 1,17,-1
 500 1000 l 1,18,-1
 500 900 l 1,19,-1
 400 900 l 1,16,-1
600 100 m 1,20,-1
 600 600 l 1,21,-1
 700 600 l 1,22,-1
 700 100 l 1,23,-1
 600 100 l 1,20,-1
EndSplineSet
EndChar

StartChar: ocircumflex
Encoding: 244 244 178
Width: 800
GlyphClass: 1
Flags: W
LayerCount: 2
Fore
SplineSet
100 100 m 1,0,-1
 100 600 l 1,1,-1
 200 600 l 1,2,-1
 200 100 l 1,3,-1
 100 100 l 1,0,-1
200 100 m 1,4,-1
 600 100 l 1,5,-1
 600 0 l 1,6,-1
 200 0 l 1,7,-1
 200 100 l 1,4,-1
200 600 m 1,8,-1
 200 700 l 1,9,-1
 600 700 l 1,10,-1
 600 600 l 1,11,-1
 200 600 l 1,8,-1
200 800 m 1,12,-1
 200 900 l 1,13,-1
 300 900 l 1,14,-1
 300 800 l 1,15,-1
 200 800 l 1,12,-1
300 900 m 1,16,-1
 300 1000 l 1,17,-1
 500 1000 l 1,18,-1
 500 900 l 1,19,-1
 300 900 l 1,16,-1
500 900 m 1,20,-1
 600 900 l 1,21,-1
 600 800 l 1,22,-1
 500 800 l 1,23,-1
 500 900 l 1,20,-1
600 100 m 1,24,-1
 600 600 l 1,25,-1
 700 600 l 1,26,-1
 700 100 l 1,27,-1
 600 100 l 1,24,-1
EndSplineSet
EndChar

StartChar: otilde
Encoding: 245 245 179
Width: 800
GlyphClass: 1
Flags: W
LayerCount: 2
Fore
SplineSet
200 100 m 1,0,-1
 100 100 l 1,1,-1
 100 600 l 1,2,-1
 200 600 l 1,3,-1
 200 100 l 1,0,-1
200 0 m 1,4,-1
 200 100 l 1,5,-1
 600 100 l 1,6,-1
 600 0 l 1,7,-1
 200 0 l 1,4,-1
200 600 m 1,8,-1
 200 700 l 1,9,-1
 600 700 l 1,10,-1
 600 600 l 1,11,-1
 200 600 l 1,8,-1
200 900 m 1,12,-1
 200 1000 l 1,13,-1
 400 1000 l 1,14,-1
 400 900 l 1,15,-1
 200 900 l 1,12,-1
200 800 m 1,16,-1
 100 800 l 1,17,-1
 100 900 l 1,18,-1
 200 900 l 1,19,-1
 200 800 l 1,16,-1
400 900 m 1,20,-1
 600 900 l 1,21,-1
 600 800 l 1,22,-1
 400 800 l 1,23,-1
 400 900 l 1,20,-1
600 100 m 1,24,-1
 600 600 l 1,25,-1
 700 600 l 1,26,-1
 700 100 l 1,27,-1
 600 100 l 1,24,-1
600 900 m 1,28,-1
 600 1000 l 1,29,-1
 700 1000 l 1,30,-1
 700 900 l 1,31,-1
 600 900 l 1,28,-1
EndSplineSet
EndChar

StartChar: odieresis
Encoding: 246 246 180
Width: 800
GlyphClass: 1
Flags: W
LayerCount: 2
Fore
SplineSet
100 100 m 1,0,-1
 100 600 l 1,1,-1
 200 600 l 1,2,-1
 200 100 l 1,3,-1
 100 100 l 1,0,-1
200 100 m 1,4,-1
 600 100 l 1,5,-1
 600 0 l 1,6,-1
 200 0 l 1,7,-1
 200 100 l 1,4,-1
200 600 m 1,8,-1
 200 700 l 1,9,-1
 600 700 l 1,10,-1
 600 600 l 1,11,-1
 200 600 l 1,8,-1
200 900 m 1,12,-1
 200 1000 l 1,13,-1
 300 1000 l 1,14,-1
 300 900 l 1,15,-1
 200 900 l 1,12,-1
500 900 m 1,16,-1
 500 1000 l 1,17,-1
 600 1000 l 1,18,-1
 600 900 l 1,19,-1
 500 900 l 1,16,-1
600 100 m 1,20,-1
 600 600 l 1,21,-1
 700 600 l 1,22,-1
 700 100 l 1,23,-1
 600 100 l 1,20,-1
EndSplineSet
EndChar

StartChar: divide
Encoding: 247 247 181
Width: 700
GlyphClass: 1
Flags: W
LayerCount: 2
Fore
SplineSet
400 200 m 1,0,-1
 300 200 l 1,1,-1
 300 300 l 1,2,-1
 400 300 l 1,3,-1
 400 200 l 1,0,-1
400 700 m 1,4,-1
 400 600 l 1,5,-1
 300 600 l 1,6,-1
 300 700 l 1,7,-1
 400 700 l 1,4,-1
100 400 m 1,8,-1
 100 500 l 1,9,-1
 600 500 l 1,10,-1
 600 400 l 1,11,-1
 100 400 l 1,8,-1
EndSplineSet
EndChar

StartChar: oslash
Encoding: 248 248 182
Width: 800
GlyphClass: 1
Flags: W
LayerCount: 2
Fore
SplineSet
200 200 m 1,0,-1
 300 200 l 1,1,-1
 300 100 l 1,2,-1
 600 100 l 1,3,-1
 600 0 l 1,4,-1
 200 0 l 1,5,-1
 200 100 l 1,6,-1
 100 100 l 1,7,-1
 100 600 l 1,8,-1
 200 600 l 1,9,-1
 200 200 l 1,0,-1
200 0 m 1,10,-1
 200 -100 l 1,11,-1
 100 -100 l 1,12,-1
 100 0 l 1,13,-1
 200 0 l 1,10,-1
200 600 m 1,14,-1
 200 700 l 1,15,-1
 600 700 l 1,16,-1
 600 600 l 1,17,-1
 700 600 l 1,18,-1
 700 100 l 1,19,-1
 600 100 l 1,20,-1
 600 500 l 1,21,-1
 500 500 l 1,22,-1
 500 600 l 1,23,-1
 200 600 l 1,14,-1
400 200 m 1,24,-1
 300 200 l 1,25,-1
 300 300 l 1,26,-1
 400 300 l 1,27,-1
 400 200 l 1,24,-1
400 500 m 1,28,-1
 500 500 l 1,29,-1
 500 300 l 1,30,-1
 400 300 l 1,31,-1
 400 500 l 1,28,-1
600 700 m 1,32,-1
 600 800 l 1,33,-1
 700 800 l 1,34,-1
 700 700 l 1,35,-1
 600 700 l 1,32,-1
EndSplineSet
EndChar

StartChar: ugrave
Encoding: 249 249 183
Width: 700
GlyphClass: 1
Flags: W
LayerCount: 2
Fore
SplineSet
100 100 m 1,0,-1
 100 700 l 1,1,-1
 200 700 l 1,2,-1
 200 100 l 1,3,-1
 100 100 l 1,0,-1
200 100 m 1,4,-1
 400 100 l 1,5,-1
 400 0 l 1,6,-1
 200 0 l 1,7,-1
 200 100 l 1,4,-1
200 900 m 1,8,-1
 200 1000 l 1,9,-1
 300 1000 l 1,10,-1
 300 900 l 1,11,-1
 200 900 l 1,8,-1
300 900 m 1,12,-1
 400 900 l 1,13,-1
 400 800 l 1,14,-1
 300 800 l 1,15,-1
 300 900 l 1,12,-1
400 100 m 1,16,-1
 400 200 l 1,17,-1
 500 200 l 1,18,-1
 500 700 l 1,19,-1
 600 700 l 1,20,-1
 600 0 l 1,21,-1
 500 0 l 1,22,-1
 500 100 l 1,23,-1
 400 100 l 1,16,-1
EndSplineSet
EndChar

StartChar: uacute
Encoding: 250 250 184
Width: 700
GlyphClass: 1
Flags: W
LayerCount: 2
Fore
SplineSet
100 100 m 1,0,-1
 100 700 l 1,1,-1
 200 700 l 1,2,-1
 200 100 l 1,3,-1
 100 100 l 1,0,-1
200 100 m 1,4,-1
 400 100 l 1,5,-1
 400 0 l 1,6,-1
 200 0 l 1,7,-1
 200 100 l 1,4,-1
300 800 m 1,8,-1
 300 900 l 1,9,-1
 400 900 l 1,10,-1
 400 800 l 1,11,-1
 300 800 l 1,8,-1
400 100 m 1,12,-1
 400 200 l 1,13,-1
 500 200 l 1,14,-1
 500 700 l 1,15,-1
 600 700 l 1,16,-1
 600 0 l 1,17,-1
 500 0 l 1,18,-1
 500 100 l 1,19,-1
 400 100 l 1,12,-1
400 900 m 1,20,-1
 400 1000 l 1,21,-1
 500 1000 l 1,22,-1
 500 900 l 1,23,-1
 400 900 l 1,20,-1
EndSplineSet
EndChar

StartChar: ucircumflex
Encoding: 251 251 185
Width: 700
GlyphClass: 1
Flags: W
LayerCount: 2
Fore
SplineSet
100 100 m 1,0,-1
 100 700 l 1,1,-1
 200 700 l 1,2,-1
 200 100 l 1,3,-1
 100 100 l 1,0,-1
200 100 m 1,4,-1
 400 100 l 1,5,-1
 400 0 l 1,6,-1
 200 0 l 1,7,-1
 200 100 l 1,4,-1
200 800 m 1,8,-1
 200 900 l 1,9,-1
 300 900 l 1,10,-1
 300 800 l 1,11,-1
 200 800 l 1,8,-1
300 900 m 1,12,-1
 300 1000 l 1,13,-1
 400 1000 l 1,14,-1
 400 900 l 1,15,-1
 300 900 l 1,12,-1
400 100 m 1,16,-1
 400 200 l 1,17,-1
 500 200 l 1,18,-1
 500 700 l 1,19,-1
 600 700 l 1,20,-1
 600 0 l 1,21,-1
 500 0 l 1,22,-1
 500 100 l 1,23,-1
 400 100 l 1,16,-1
400 900 m 1,24,-1
 500 900 l 1,25,-1
 500 800 l 1,26,-1
 400 800 l 1,27,-1
 400 900 l 1,24,-1
EndSplineSet
EndChar

StartChar: udieresis
Encoding: 252 252 186
Width: 700
GlyphClass: 1
Flags: W
LayerCount: 2
Fore
SplineSet
100 100 m 1,0,-1
 100 700 l 1,1,-1
 200 700 l 1,2,-1
 200 100 l 1,3,-1
 100 100 l 1,0,-1
100 900 m 1,4,-1
 100 1000 l 1,5,-1
 200 1000 l 1,6,-1
 200 900 l 1,7,-1
 100 900 l 1,4,-1
200 100 m 1,8,-1
 400 100 l 1,9,-1
 400 0 l 1,10,-1
 200 0 l 1,11,-1
 200 100 l 1,8,-1
400 100 m 1,12,-1
 400 200 l 1,13,-1
 500 200 l 1,14,-1
 500 700 l 1,15,-1
 600 700 l 1,16,-1
 600 0 l 1,17,-1
 500 0 l 1,18,-1
 500 100 l 1,19,-1
 400 100 l 1,12,-1
500 900 m 1,20,-1
 500 1000 l 1,21,-1
 600 1000 l 1,22,-1
 600 900 l 1,23,-1
 500 900 l 1,20,-1
EndSplineSet
EndChar

StartChar: yacute
Encoding: 253 253 187
Width: 700
GlyphClass: 1
Flags: W
LayerCount: 2
Fore
SplineSet
0 -200 m 1,0,-1
 200 -200 l 1,1,-1
 200 -300 l 1,2,-1
 0 -300 l 1,3,-1
 0 -200 l 1,0,-1
0 500 m 1,4,-1
 0 700 l 1,5,-1
 100 700 l 1,6,-1
 100 500 l 1,7,-1
 0 500 l 1,4,-1
200 -200 m 1,8,-1
 200 -100 l 1,9,-1
 300 -100 l 1,10,-1
 300 -200 l 1,11,-1
 200 -200 l 1,8,-1
200 100 m 1,12,-1
 200 300 l 1,13,-1
 300 300 l 1,14,-1
 300 100 l 1,15,-1
 200 100 l 1,12,-1
200 300 m 1,16,-1
 100 300 l 1,17,-1
 100 500 l 1,18,-1
 200 500 l 1,19,-1
 200 300 l 1,16,-1
400 100 m 1,20,-1
 400 -100 l 1,21,-1
 300 -100 l 1,22,-1
 300 100 l 1,23,-1
 400 100 l 1,20,-1
400 300 m 1,24,-1
 500 300 l 1,25,-1
 500 100 l 1,26,-1
 400 100 l 1,27,-1
 400 300 l 1,24,-1
400 900 m 1,28,-1
 400 1000 l 1,29,-1
 500 1000 l 1,30,-1
 500 900 l 1,31,-1
 400 900 l 1,28,-1
400 800 m 1,32,-1
 300 800 l 1,33,-1
 300 900 l 1,34,-1
 400 900 l 1,35,-1
 400 800 l 1,32,-1
600 500 m 1,36,-1
 600 300 l 1,37,-1
 500 300 l 1,38,-1
 500 500 l 1,39,-1
 600 500 l 1,36,-1
600 700 m 1,40,-1
 700 700 l 1,41,-1
 700 500 l 1,42,-1
 600 500 l 1,43,-1
 600 700 l 1,40,-1
EndSplineSet
EndChar

StartChar: thorn
Encoding: 254 254 188
Width: 800
GlyphClass: 1
Flags: W
LayerCount: 2
Fore
SplineSet
100 -300 m 1,0,-1
 100 1000 l 1,1,-1
 200 1000 l 1,2,-1
 200 600 l 1,3,-1
 300 600 l 1,4,-1
 300 500 l 1,5,-1
 200 500 l 1,6,-1
 200 200 l 1,7,-1
 300 200 l 1,8,-1
 300 100 l 1,9,-1
 200 100 l 1,10,-1
 200 -300 l 1,11,-1
 100 -300 l 1,0,-1
300 100 m 1,12,-1
 600 100 l 1,13,-1
 600 0 l 1,14,-1
 300 0 l 1,15,-1
 300 100 l 1,12,-1
300 600 m 1,16,-1
 300 700 l 1,17,-1
 600 700 l 1,18,-1
 600 600 l 1,19,-1
 300 600 l 1,16,-1
600 100 m 1,20,-1
 600 600 l 1,21,-1
 700 600 l 1,22,-1
 700 100 l 1,23,-1
 600 100 l 1,20,-1
EndSplineSet
EndChar

StartChar: ydieresis
Encoding: 255 255 189
Width: 700
GlyphClass: 1
Flags: W
LayerCount: 2
Fore
SplineSet
0 -200 m 1,0,-1
 200 -200 l 1,1,-1
 200 -300 l 1,2,-1
 0 -300 l 1,3,-1
 0 -200 l 1,0,-1
0 500 m 1,4,-1
 0 700 l 1,5,-1
 100 700 l 1,6,-1
 100 500 l 1,7,-1
 0 500 l 1,4,-1
200 -200 m 1,8,-1
 200 -100 l 1,9,-1
 300 -100 l 1,10,-1
 300 -200 l 1,11,-1
 200 -200 l 1,8,-1
200 100 m 1,12,-1
 200 300 l 1,13,-1
 300 300 l 1,14,-1
 300 100 l 1,15,-1
 200 100 l 1,12,-1
200 300 m 1,16,-1
 100 300 l 1,17,-1
 100 500 l 1,18,-1
 200 500 l 1,19,-1
 200 300 l 1,16,-1
200 1000 m 1,20,-1
 200 900 l 1,21,-1
 100 900 l 1,22,-1
 100 1000 l 1,23,-1
 200 1000 l 1,20,-1
400 100 m 1,24,-1
 400 -100 l 1,25,-1
 300 -100 l 1,26,-1
 300 100 l 1,27,-1
 400 100 l 1,24,-1
400 300 m 1,28,-1
 500 300 l 1,29,-1
 500 100 l 1,30,-1
 400 100 l 1,31,-1
 400 300 l 1,28,-1
600 500 m 1,32,-1
 600 300 l 1,33,-1
 500 300 l 1,34,-1
 500 500 l 1,35,-1
 600 500 l 1,32,-1
600 700 m 1,36,-1
 700 700 l 1,37,-1
 700 500 l 1,38,-1
 600 500 l 1,39,-1
 600 700 l 1,36,-1
600 1000 m 1,40,-1
 600 900 l 1,41,-1
 500 900 l 1,42,-1
 500 1000 l 1,43,-1
 600 1000 l 1,40,-1
EndSplineSet
EndChar

StartChar: quoteleft
Encoding: 8216 8216 190
Width: 300
GlyphClass: 1
Flags: W
LayerCount: 2
Fore
SplineSet
100 800 m 1,0,-1
 100 900 l 1,1,-1
 200 900 l 1,2,-1
 200 800 l 1,3,-1
 100 800 l 1,0,-1
200 900 m 1,4,-1
 200 1000 l 1,5,-1
 300 1000 l 1,6,-1
 300 900 l 1,7,-1
 200 900 l 1,4,-1
EndSplineSet
EndChar

StartChar: quoteright
Encoding: 8217 8217 191
Width: 300
GlyphClass: 1
Flags: W
LayerCount: 2
Fore
SplineSet
0 800 m 1,0,-1
 0 900 l 1,1,-1
 100 900 l 1,2,-1
 100 800 l 1,3,-1
 0 800 l 1,0,-1
100 900 m 1,4,-1
 100 1000 l 1,5,-1
 200 1000 l 1,6,-1
 200 900 l 1,7,-1
 100 900 l 1,4,-1
EndSplineSet
EndChar

StartChar: Euro
Encoding: 8364 8364 192
Width: 700
GlyphClass: 1
Flags: W
LayerCount: 2
Fore
SplineSet
0 400 m 1,0,-1
 0 500 l 1,1,-1
 100 500 l 1,2,-1
 100 600 l 1,3,-1
 0 600 l 1,4,-1
 0 700 l 1,5,-1
 100 700 l 1,6,-1
 100 900 l 1,7,-1
 200 900 l 1,8,-1
 200 700 l 1,9,-1
 400 700 l 1,10,-1
 400 600 l 1,11,-1
 200 600 l 1,12,-1
 200 500 l 1,13,-1
 300 500 l 1,14,-1
 300 400 l 1,15,-1
 200 400 l 1,16,-1
 200 100 l 1,17,-1
 100 100 l 1,18,-1
 100 400 l 1,19,-1
 0 400 l 1,0,-1
200 100 m 1,20,-1
 500 100 l 1,21,-1
 500 0 l 1,22,-1
 200 0 l 1,23,-1
 200 100 l 1,20,-1
200 900 m 1,24,-1
 200 1000 l 1,25,-1
 500 1000 l 1,26,-1
 500 900 l 1,27,-1
 200 900 l 1,24,-1
600 100 m 1,28,-1
 500 100 l 1,29,-1
 500 300 l 1,30,-1
 600 300 l 1,31,-1
 600 100 l 1,28,-1
600 700 m 1,32,-1
 500 700 l 1,33,-1
 500 900 l 1,34,-1
 600 900 l 1,35,-1
 600 700 l 1,32,-1
EndSplineSet
EndChar

StartChar: Abreve
Encoding: 258 258 193
Width: 900
GlyphClass: 1
Flags: W
LayerCount: 2
Fore
SplineSet
0 200 m 1,0,-1
 100 200 l 1,1,-1
 100 0 l 1,2,-1
 0 0 l 1,3,-1
 0 200 l 1,0,-1
900 0 m 1,4,-1
 800 0 l 1,5,-1
 800 200 l 1,6,-1
 900 200 l 1,7,-1
 900 0 l 1,4,-1
200 200 m 1,8,-1
 100 200 l 1,9,-1
 100 400 l 1,10,-1
 200 400 l 1,11,-1
 200 600 l 1,12,-1
 300 600 l 1,13,-1
 300 400 l 1,14,-1
 600 400 l 1,15,-1
 600 600 l 1,16,-1
 700 600 l 1,17,-1
 700 400 l 1,18,-1
 800 400 l 1,19,-1
 800 200 l 1,20,-1
 700 200 l 1,21,-1
 700 300 l 1,22,-1
 200 300 l 1,23,-1
 200 200 l 1,8,-1
200 1200 m 1,24,-1
 200 1300 l 1,25,-1
 300 1300 l 1,26,-1
 300 1200 l 1,27,-1
 200 1200 l 1,24,-1
400 600 m 1,28,-1
 300 600 l 1,29,-1
 300 800 l 1,30,-1
 400 800 l 1,31,-1
 400 600 l 1,28,-1
400 1000 m 1,32,-1
 500 1000 l 1,33,-1
 500 800 l 1,34,-1
 400 800 l 1,35,-1
 400 1000 l 1,32,-1
600 600 m 1,36,-1
 500 600 l 1,37,-1
 500 800 l 1,38,-1
 600 800 l 1,39,-1
 600 600 l 1,36,-1
600 1200 m 1,40,-1
 600 1100 l 1,41,-1
 300 1100 l 1,42,-1
 300 1200 l 1,43,-1
 600 1200 l 1,40,-1
600 1300 m 1,44,-1
 700 1300 l 1,45,-1
 700 1200 l 1,46,-1
 600 1200 l 1,47,-1
 600 1300 l 1,44,-1
EndSplineSet
EndChar

StartChar: abreve
Encoding: 259 259 194
Width: 800
GlyphClass: 1
Flags: W
LayerCount: 2
Fore
SplineSet
200 100 m 1,0,-1
 100 100 l 1,1,-1
 100 400 l 1,2,-1
 200 400 l 1,3,-1
 200 100 l 1,0,-1
200 0 m 1,4,-1
 200 100 l 1,5,-1
 600 100 l 1,6,-1
 600 0 l 1,7,-1
 200 0 l 1,4,-1
200 500 m 1,8,-1
 100 500 l 1,9,-1
 100 600 l 1,10,-1
 200 600 l 1,11,-1
 200 500 l 1,8,-1
200 400 m 1,12,-1
 200 500 l 1,13,-1
 600 500 l 1,14,-1
 600 600 l 1,15,-1
 700 600 l 1,16,-1
 700 100 l 1,17,-1
 600 100 l 1,18,-1
 600 400 l 1,19,-1
 200 400 l 1,12,-1
200 600 m 1,20,-1
 200 700 l 1,21,-1
 600 700 l 1,22,-1
 600 600 l 1,23,-1
 200 600 l 1,20,-1
200 900 m 1,24,-1
 200 1000 l 1,25,-1
 300 1000 l 1,26,-1
 300 900 l 1,27,-1
 200 900 l 1,24,-1
600 900 m 1,28,-1
 600 1000 l 1,29,-1
 700 1000 l 1,30,-1
 700 900 l 1,31,-1
 600 900 l 1,28,-1
600 800 m 1,32,-1
 300 800 l 1,33,-1
 300 900 l 1,34,-1
 600 900 l 1,35,-1
 600 800 l 1,32,-1
800 100 m 1,36,-1
 800 0 l 1,37,-1
 700 0 l 1,38,-1
 700 100 l 1,39,-1
 800 100 l 1,36,-1
EndSplineSet
EndChar

StartChar: Aogonek
Encoding: 260 260 195
Width: 900
GlyphClass: 1
Flags: W
LayerCount: 2
Fore
SplineSet
0 200 m 1,0,-1
 100 200 l 1,1,-1
 100 0 l 1,2,-1
 0 0 l 1,3,-1
 0 200 l 1,0,-1
900 0 m 1,4,-1
 800 0 l 1,5,-1
 800 200 l 1,6,-1
 900 200 l 1,7,-1
 900 0 l 1,4,-1
900 -200 m 1,8,-1
 900 -300 l 1,9,-1
 700 -300 l 1,10,-1
 700 -200 l 1,11,-1
 900 -200 l 1,8,-1
200 200 m 1,12,-1
 100 200 l 1,13,-1
 100 400 l 1,14,-1
 200 400 l 1,15,-1
 200 600 l 1,16,-1
 300 600 l 1,17,-1
 300 400 l 1,18,-1
 600 400 l 1,19,-1
 600 600 l 1,20,-1
 700 600 l 1,21,-1
 700 400 l 1,22,-1
 800 400 l 1,23,-1
 800 200 l 1,24,-1
 700 200 l 1,25,-1
 700 300 l 1,26,-1
 200 300 l 1,27,-1
 200 200 l 1,12,-1
400 600 m 1,28,-1
 300 600 l 1,29,-1
 300 800 l 1,30,-1
 400 800 l 1,31,-1
 400 600 l 1,28,-1
400 1000 m 1,32,-1
 500 1000 l 1,33,-1
 500 800 l 1,34,-1
 400 800 l 1,35,-1
 400 1000 l 1,32,-1
600 -200 m 1,36,-1
 600 -100 l 1,37,-1
 700 -100 l 1,38,-1
 700 -200 l 1,39,-1
 600 -200 l 1,36,-1
600 600 m 1,40,-1
 500 600 l 1,41,-1
 500 800 l 1,42,-1
 600 800 l 1,43,-1
 600 600 l 1,40,-1
800 0 m 1,44,-1
 800 -100 l 1,45,-1
 700 -100 l 1,46,-1
 700 0 l 1,47,-1
 800 0 l 1,44,-1
EndSplineSet
EndChar

StartChar: aogonek
Encoding: 261 261 196
Width: 800
GlyphClass: 1
Flags: W
LayerCount: 2
Fore
SplineSet
200 100 m 1,0,-1
 100 100 l 1,1,-1
 100 400 l 1,2,-1
 200 400 l 1,3,-1
 200 100 l 1,0,-1
200 0 m 1,4,-1
 200 100 l 1,5,-1
 600 100 l 1,6,-1
 600 0 l 1,7,-1
 200 0 l 1,4,-1
200 500 m 1,8,-1
 100 500 l 1,9,-1
 100 600 l 1,10,-1
 200 600 l 1,11,-1
 200 500 l 1,8,-1
200 400 m 1,12,-1
 200 500 l 1,13,-1
 600 500 l 1,14,-1
 600 600 l 1,15,-1
 700 600 l 1,16,-1
 700 100 l 1,17,-1
 600 100 l 1,18,-1
 600 400 l 1,19,-1
 200 400 l 1,12,-1
200 600 m 1,20,-1
 200 700 l 1,21,-1
 600 700 l 1,22,-1
 600 600 l 1,23,-1
 200 600 l 1,20,-1
600 0 m 1,24,-1
 700 0 l 1,25,-1
 700 -100 l 1,26,-1
 600 -100 l 1,27,-1
 600 0 l 1,24,-1
600 -100 m 1,28,-1
 600 -200 l 1,29,-1
 500 -200 l 1,30,-1
 500 -100 l 1,31,-1
 600 -100 l 1,28,-1
600 -200 m 1,32,-1
 800 -200 l 1,33,-1
 800 -300 l 1,34,-1
 600 -300 l 1,35,-1
 600 -200 l 1,32,-1
800 100 m 1,36,-1
 800 0 l 1,37,-1
 700 0 l 1,38,-1
 700 100 l 1,39,-1
 800 100 l 1,36,-1
EndSplineSet
EndChar

StartChar: Cacute
Encoding: 262 262 197
Width: 900
GlyphClass: 1
Flags: W
LayerCount: 2
Fore
SplineSet
900 200 m 1,0,-1
 800 200 l 1,1,-1
 800 300 l 1,2,-1
 900 300 l 1,3,-1
 900 200 l 1,0,-1
900 700 m 1,4,-1
 800 700 l 1,5,-1
 800 800 l 1,6,-1
 900 800 l 1,7,-1
 900 700 l 1,4,-1
200 200 m 1,8,-1
 100 200 l 1,9,-1
 100 800 l 1,10,-1
 200 800 l 1,11,-1
 200 200 l 1,8,-1
200 100 m 1,12,-1
 200 200 l 1,13,-1
 300 200 l 1,14,-1
 300 100 l 1,15,-1
 200 100 l 1,12,-1
200 800 m 1,16,-1
 200 900 l 1,17,-1
 300 900 l 1,18,-1
 300 800 l 1,19,-1
 200 800 l 1,16,-1
600 1200 m 1,20,-1
 600 1100 l 1,21,-1
 500 1100 l 1,22,-1
 500 1200 l 1,23,-1
 600 1200 l 1,20,-1
600 1300 m 1,24,-1
 700 1300 l 1,25,-1
 700 1200 l 1,26,-1
 600 1200 l 1,27,-1
 600 1300 l 1,24,-1
800 200 m 1,28,-1
 800 100 l 1,29,-1
 700 100 l 1,30,-1
 700 200 l 1,31,-1
 800 200 l 1,28,-1
800 900 m 1,32,-1
 800 800 l 1,33,-1
 700 800 l 1,34,-1
 700 900 l 1,35,-1
 800 900 l 1,32,-1
300 100 m 1,36,-1
 700 100 l 1,37,-1
 700 0 l 1,38,-1
 300 0 l 1,39,-1
 300 100 l 1,36,-1
300 900 m 1,40,-1
 300 1000 l 1,41,-1
 700 1000 l 1,42,-1
 700 900 l 1,43,-1
 300 900 l 1,40,-1
EndSplineSet
EndChar

StartChar: cacute
Encoding: 263 263 198
Width: 700
GlyphClass: 1
Flags: W
LayerCount: 2
Fore
SplineSet
100 100 m 1,0,-1
 100 600 l 1,1,-1
 200 600 l 1,2,-1
 200 100 l 1,3,-1
 100 100 l 1,0,-1
200 100 m 1,4,-1
 600 100 l 1,5,-1
 600 0 l 1,6,-1
 200 0 l 1,7,-1
 200 100 l 1,4,-1
200 600 m 1,8,-1
 200 700 l 1,9,-1
 600 700 l 1,10,-1
 600 600 l 1,11,-1
 200 600 l 1,8,-1
300 800 m 1,12,-1
 300 900 l 1,13,-1
 400 900 l 1,14,-1
 400 800 l 1,15,-1
 300 800 l 1,12,-1
400 900 m 1,16,-1
 400 1000 l 1,17,-1
 500 1000 l 1,18,-1
 500 900 l 1,19,-1
 400 900 l 1,16,-1
600 100 m 1,20,-1
 600 200 l 1,21,-1
 700 200 l 1,22,-1
 700 100 l 1,23,-1
 600 100 l 1,20,-1
600 500 m 1,24,-1
 600 600 l 1,25,-1
 700 600 l 1,26,-1
 700 500 l 1,27,-1
 600 500 l 1,24,-1
EndSplineSet
EndChar

StartChar: Ccaron
Encoding: 268 268 199
Width: 900
GlyphClass: 1
Flags: W
LayerCount: 2
Fore
SplineSet
900 200 m 1,0,-1
 800 200 l 1,1,-1
 800 300 l 1,2,-1
 900 300 l 1,3,-1
 900 200 l 1,0,-1
900 700 m 1,4,-1
 800 700 l 1,5,-1
 800 800 l 1,6,-1
 900 800 l 1,7,-1
 900 700 l 1,4,-1
200 200 m 1,8,-1
 100 200 l 1,9,-1
 100 800 l 1,10,-1
 200 800 l 1,11,-1
 200 200 l 1,8,-1
200 100 m 1,12,-1
 200 200 l 1,13,-1
 300 200 l 1,14,-1
 300 100 l 1,15,-1
 200 100 l 1,12,-1
200 800 m 1,16,-1
 200 900 l 1,17,-1
 300 900 l 1,18,-1
 300 800 l 1,19,-1
 200 800 l 1,16,-1
400 1200 m 1,20,-1
 300 1200 l 1,21,-1
 300 1300 l 1,22,-1
 400 1300 l 1,23,-1
 400 1200 l 1,20,-1
400 1100 m 1,24,-1
 400 1200 l 1,25,-1
 600 1200 l 1,26,-1
 600 1100 l 1,27,-1
 400 1100 l 1,24,-1
600 1200 m 1,28,-1
 600 1300 l 1,29,-1
 700 1300 l 1,30,-1
 700 1200 l 1,31,-1
 600 1200 l 1,28,-1
800 200 m 1,32,-1
 800 100 l 1,33,-1
 700 100 l 1,34,-1
 700 200 l 1,35,-1
 800 200 l 1,32,-1
800 900 m 1,36,-1
 800 800 l 1,37,-1
 700 800 l 1,38,-1
 700 900 l 1,39,-1
 800 900 l 1,36,-1
300 100 m 1,40,-1
 700 100 l 1,41,-1
 700 0 l 1,42,-1
 300 0 l 1,43,-1
 300 100 l 1,40,-1
300 900 m 1,44,-1
 300 1000 l 1,45,-1
 700 1000 l 1,46,-1
 700 900 l 1,47,-1
 300 900 l 1,44,-1
EndSplineSet
EndChar

StartChar: ccaron
Encoding: 269 269 200
Width: 700
GlyphClass: 1
Flags: W
LayerCount: 2
Fore
SplineSet
200 100 m 1,0,-1
 100 100 l 1,1,-1
 100 600 l 1,2,-1
 200 600 l 1,3,-1
 200 100 l 1,0,-1
200 0 m 1,4,-1
 200 100 l 1,5,-1
 600 100 l 1,6,-1
 600 0 l 1,7,-1
 200 0 l 1,4,-1
200 600 m 1,8,-1
 200 700 l 1,9,-1
 600 700 l 1,10,-1
 600 600 l 1,11,-1
 200 600 l 1,8,-1
200 900 m 1,12,-1
 200 1000 l 1,13,-1
 300 1000 l 1,14,-1
 300 900 l 1,15,-1
 200 900 l 1,12,-1
600 100 m 1,16,-1
 600 200 l 1,17,-1
 700 200 l 1,18,-1
 700 100 l 1,19,-1
 600 100 l 1,16,-1
600 500 m 1,20,-1
 600 600 l 1,21,-1
 700 600 l 1,22,-1
 700 500 l 1,23,-1
 600 500 l 1,20,-1
600 1000 m 1,24,-1
 600 900 l 1,25,-1
 500 900 l 1,26,-1
 500 1000 l 1,27,-1
 600 1000 l 1,24,-1
300 900 m 1,28,-1
 500 900 l 1,29,-1
 500 800 l 1,30,-1
 300 800 l 1,31,-1
 300 900 l 1,28,-1
EndSplineSet
EndChar

StartChar: Dcaron
Encoding: 270 270 201
Width: 1000
GlyphClass: 1
Flags: W
LayerCount: 2
Fore
SplineSet
900 200 m 1,0,-1
 800 200 l 1,1,-1
 800 800 l 1,2,-1
 900 800 l 1,3,-1
 900 200 l 1,0,-1
200 100 m 1,4,-1
 700 100 l 1,5,-1
 700 0 l 1,6,-1
 100 0 l 1,7,-1
 100 1000 l 1,8,-1
 700 1000 l 1,9,-1
 700 900 l 1,10,-1
 200 900 l 1,11,-1
 200 100 l 1,4,-1
200 1200 m 1,12,-1
 200 1300 l 1,13,-1
 300 1300 l 1,14,-1
 300 1200 l 1,15,-1
 200 1200 l 1,12,-1
600 1200 m 1,16,-1
 500 1200 l 1,17,-1
 500 1300 l 1,18,-1
 600 1300 l 1,19,-1
 600 1200 l 1,16,-1
800 200 m 1,20,-1
 800 100 l 1,21,-1
 700 100 l 1,22,-1
 700 200 l 1,23,-1
 800 200 l 1,20,-1
800 900 m 1,24,-1
 800 800 l 1,25,-1
 700 800 l 1,26,-1
 700 900 l 1,27,-1
 800 900 l 1,24,-1
300 1200 m 1,28,-1
 500 1200 l 1,29,-1
 500 1100 l 1,30,-1
 300 1100 l 1,31,-1
 300 1200 l 1,28,-1
EndSplineSet
EndChar

StartChar: dcaron
Encoding: 271 271 202
Width: 900
GlyphClass: 1
Flags: W
LayerCount: 2
Fore
SplineSet
800 1000 m 1,0,-1
 900 1000 l 1,1,-1
 900 800 l 1,2,-1
 800 800 l 1,3,-1
 800 1000 l 1,0,-1
100 100 m 1,4,-1
 100 600 l 1,5,-1
 200 600 l 1,6,-1
 200 100 l 1,7,-1
 100 100 l 1,4,-1
200 100 m 1,8,-1
 500 100 l 1,9,-1
 500 0 l 1,10,-1
 200 0 l 1,11,-1
 200 100 l 1,8,-1
200 600 m 1,12,-1
 200 700 l 1,13,-1
 500 700 l 1,14,-1
 500 600 l 1,15,-1
 200 600 l 1,12,-1
500 100 m 1,16,-1
 500 200 l 1,17,-1
 600 200 l 1,18,-1
 600 500 l 1,19,-1
 500 500 l 1,20,-1
 500 600 l 1,21,-1
 600 600 l 1,22,-1
 600 1000 l 1,23,-1
 700 1000 l 1,24,-1
 700 0 l 1,25,-1
 600 0 l 1,26,-1
 600 100 l 1,27,-1
 500 100 l 1,16,-1
EndSplineSet
EndChar

StartChar: Dcroat
Encoding: 272 272 203
Width: 900
GlyphClass: 1
Flags: W
LayerCount: 2
Fore
SplineSet
800 200 m 1,0,-1
 700 200 l 1,1,-1
 700 800 l 1,2,-1
 800 800 l 1,3,-1
 800 200 l 1,0,-1
0 500 m 1,4,-1
 0 600 l 1,5,-1
 100 600 l 1,6,-1
 100 1000 l 1,7,-1
 600 1000 l 1,8,-1
 600 900 l 1,9,-1
 200 900 l 1,10,-1
 200 600 l 1,11,-1
 400 600 l 1,12,-1
 400 500 l 1,13,-1
 200 500 l 1,14,-1
 200 100 l 1,15,-1
 600 100 l 1,16,-1
 600 0 l 1,17,-1
 100 0 l 1,18,-1
 100 500 l 1,19,-1
 0 500 l 1,4,-1
600 100 m 1,20,-1
 600 200 l 1,21,-1
 700 200 l 1,22,-1
 700 100 l 1,23,-1
 600 100 l 1,20,-1
600 900 m 1,24,-1
 700 900 l 1,25,-1
 700 800 l 1,26,-1
 600 800 l 1,27,-1
 600 900 l 1,24,-1
EndSplineSet
EndChar

StartChar: dcroat
Encoding: 273 273 204
Width: 800
GlyphClass: 1
Flags: W
LayerCount: 2
Fore
SplineSet
200 100 m 1,0,-1
 100 100 l 1,1,-1
 100 600 l 1,2,-1
 200 600 l 1,3,-1
 200 100 l 1,0,-1
200 0 m 1,4,-1
 200 100 l 1,5,-1
 500 100 l 1,6,-1
 500 0 l 1,7,-1
 200 0 l 1,4,-1
200 600 m 1,8,-1
 200 700 l 1,9,-1
 500 700 l 1,10,-1
 500 600 l 1,11,-1
 200 600 l 1,8,-1
400 800 m 1,12,-1
 400 900 l 1,13,-1
 600 900 l 1,14,-1
 600 1000 l 1,15,-1
 700 1000 l 1,16,-1
 700 900 l 1,17,-1
 800 900 l 1,18,-1
 800 800 l 1,19,-1
 700 800 l 1,20,-1
 700 0 l 1,21,-1
 600 0 l 1,22,-1
 600 100 l 1,23,-1
 500 100 l 1,24,-1
 500 200 l 1,25,-1
 600 200 l 1,26,-1
 600 500 l 1,27,-1
 500 500 l 1,28,-1
 500 600 l 1,29,-1
 600 600 l 1,30,-1
 600 800 l 1,31,-1
 400 800 l 1,12,-1
EndSplineSet
EndChar

StartChar: Eogonek
Encoding: 280 280 205
Width: 900
GlyphClass: 1
Flags: W
LayerCount: 2
Fore
SplineSet
800 100 m 1,0,-1
 800 0 l 1,1,-1
 500 0 l 1,2,-1
 500 -100 l 1,3,-1
 400 -100 l 1,4,-1
 400 0 l 1,5,-1
 100 0 l 1,6,-1
 100 1000 l 1,7,-1
 800 1000 l 1,8,-1
 800 900 l 1,9,-1
 200 900 l 1,10,-1
 200 600 l 1,11,-1
 700 600 l 1,12,-1
 700 500 l 1,13,-1
 200 500 l 1,14,-1
 200 100 l 1,15,-1
 800 100 l 1,0,-1
300 -200 m 1,16,-1
 300 -100 l 1,17,-1
 400 -100 l 1,18,-1
 400 -200 l 1,19,-1
 300 -200 l 1,16,-1
400 -200 m 1,20,-1
 600 -200 l 1,21,-1
 600 -300 l 1,22,-1
 400 -300 l 1,23,-1
 400 -200 l 1,20,-1
EndSplineSet
EndChar

StartChar: eogonek
Encoding: 281 281 206
Width: 800
GlyphClass: 1
Flags: W
LayerCount: 2
Fore
SplineSet
200 100 m 1,0,-1
 100 100 l 1,1,-1
 100 600 l 1,2,-1
 200 600 l 1,3,-1
 200 400 l 1,4,-1
 600 400 l 1,5,-1
 600 600 l 1,6,-1
 700 600 l 1,7,-1
 700 300 l 1,8,-1
 200 300 l 1,9,-1
 200 100 l 1,0,-1
200 0 m 1,10,-1
 200 100 l 1,11,-1
 600 100 l 1,12,-1
 600 0 l 1,13,-1
 500 0 l 1,14,-1
 500 -100 l 1,15,-1
 400 -100 l 1,16,-1
 400 0 l 1,17,-1
 200 0 l 1,10,-1
200 600 m 1,18,-1
 200 700 l 1,19,-1
 600 700 l 1,20,-1
 600 600 l 1,21,-1
 200 600 l 1,18,-1
400 -100 m 1,22,-1
 400 -200 l 1,23,-1
 300 -200 l 1,24,-1
 300 -100 l 1,25,-1
 400 -100 l 1,22,-1
400 -200 m 1,26,-1
 600 -200 l 1,27,-1
 600 -300 l 1,28,-1
 400 -300 l 1,29,-1
 400 -200 l 1,26,-1
600 100 m 1,30,-1
 600 200 l 1,31,-1
 700 200 l 1,32,-1
 700 100 l 1,33,-1
 600 100 l 1,30,-1
EndSplineSet
EndChar

StartChar: Ecaron
Encoding: 282 282 207
Width: 900
GlyphClass: 1
Flags: W
LayerCount: 2
Fore
SplineSet
800 100 m 1,0,-1
 800 0 l 1,1,-1
 100 0 l 1,2,-1
 100 1000 l 1,3,-1
 800 1000 l 1,4,-1
 800 900 l 1,5,-1
 200 900 l 1,6,-1
 200 600 l 1,7,-1
 700 600 l 1,8,-1
 700 500 l 1,9,-1
 200 500 l 1,10,-1
 200 100 l 1,11,-1
 800 100 l 1,0,-1
300 1200 m 1,12,-1
 500 1200 l 1,13,-1
 500 1100 l 1,14,-1
 300 1100 l 1,15,-1
 300 1200 l 1,12,-1
300 1300 m 1,16,-1
 300 1200 l 1,17,-1
 200 1200 l 1,18,-1
 200 1300 l 1,19,-1
 300 1300 l 1,16,-1
500 1200 m 1,20,-1
 500 1300 l 1,21,-1
 600 1300 l 1,22,-1
 600 1200 l 1,23,-1
 500 1200 l 1,20,-1
EndSplineSet
EndChar

StartChar: ecaron
Encoding: 283 283 208
Width: 800
GlyphClass: 1
Flags: W
LayerCount: 2
Fore
SplineSet
200 100 m 1,0,-1
 100 100 l 1,1,-1
 100 600 l 1,2,-1
 200 600 l 1,3,-1
 200 400 l 1,4,-1
 600 400 l 1,5,-1
 600 600 l 1,6,-1
 700 600 l 1,7,-1
 700 300 l 1,8,-1
 200 300 l 1,9,-1
 200 100 l 1,0,-1
200 0 m 1,10,-1
 200 100 l 1,11,-1
 600 100 l 1,12,-1
 600 0 l 1,13,-1
 200 0 l 1,10,-1
200 600 m 1,14,-1
 200 700 l 1,15,-1
 600 700 l 1,16,-1
 600 600 l 1,17,-1
 200 600 l 1,14,-1
200 900 m 1,18,-1
 200 1000 l 1,19,-1
 300 1000 l 1,20,-1
 300 900 l 1,21,-1
 200 900 l 1,18,-1
600 100 m 1,22,-1
 600 200 l 1,23,-1
 700 200 l 1,24,-1
 700 100 l 1,25,-1
 600 100 l 1,22,-1
600 1000 m 1,26,-1
 600 900 l 1,27,-1
 500 900 l 1,28,-1
 500 1000 l 1,29,-1
 600 1000 l 1,26,-1
300 900 m 1,30,-1
 500 900 l 1,31,-1
 500 800 l 1,32,-1
 300 800 l 1,33,-1
 300 900 l 1,30,-1
EndSplineSet
EndChar

StartChar: Lacute
Encoding: 313 313 209
Width: 700
GlyphClass: 1
Flags: W
LayerCount: 2
Fore
SplineSet
100 1100 m 1,0,-1
 100 1200 l 1,1,-1
 200 1200 l 1,2,-1
 200 1100 l 1,3,-1
 100 1100 l 1,0,-1
100 0 m 1,4,-1
 100 1000 l 1,5,-1
 200 1000 l 1,6,-1
 200 100 l 1,7,-1
 700 100 l 1,8,-1
 700 0 l 1,9,-1
 100 0 l 1,4,-1
300 1200 m 1,10,-1
 200 1200 l 1,11,-1
 200 1300 l 1,12,-1
 300 1300 l 1,13,-1
 300 1200 l 1,10,-1
EndSplineSet
EndChar

StartChar: lacute
Encoding: 314 314 210
Width: 300
GlyphClass: 1
Flags: W
LayerCount: 2
Fore
SplineSet
100 1100 m 1,0,-1
 100 1200 l 1,1,-1
 200 1200 l 1,2,-1
 200 1100 l 1,3,-1
 100 1100 l 1,0,-1
100 0 m 1,4,-1
 100 1000 l 1,5,-1
 200 1000 l 1,6,-1
 200 0 l 1,7,-1
 100 0 l 1,4,-1
300 1200 m 1,8,-1
 200 1200 l 1,9,-1
 200 1300 l 1,10,-1
 300 1300 l 1,11,-1
 300 1200 l 1,8,-1
EndSplineSet
EndChar

StartChar: Lcaron
Encoding: 317 317 211
Width: 700
GlyphClass: 1
Flags: W
LayerCount: 2
Fore
SplineSet
400 800 m 1,0,-1
 300 800 l 1,1,-1
 300 1000 l 1,2,-1
 400 1000 l 1,3,-1
 400 800 l 1,0,-1
100 0 m 1,4,-1
 100 1000 l 1,5,-1
 200 1000 l 1,6,-1
 200 100 l 1,7,-1
 700 100 l 1,8,-1
 700 0 l 1,9,-1
 100 0 l 1,4,-1
EndSplineSet
EndChar

StartChar: lcaron
Encoding: 318 318 212
Width: 400
GlyphClass: 1
Flags: W
LayerCount: 2
Fore
SplineSet
400 800 m 1,0,-1
 300 800 l 1,1,-1
 300 1000 l 1,2,-1
 400 1000 l 1,3,-1
 400 800 l 1,0,-1
100 0 m 1,4,-1
 100 1000 l 1,5,-1
 200 1000 l 1,6,-1
 200 0 l 1,7,-1
 100 0 l 1,4,-1
EndSplineSet
EndChar

StartChar: Lslash
Encoding: 321 321 213
Width: 700
GlyphClass: 1
Flags: W
LayerCount: 2
Fore
SplineSet
0 300 m 1,0,-1
 0 400 l 1,1,-1
 100 400 l 1,2,-1
 100 1000 l 1,3,-1
 200 1000 l 1,4,-1
 200 600 l 1,5,-1
 300 600 l 1,6,-1
 300 500 l 1,7,-1
 200 500 l 1,8,-1
 200 100 l 1,9,-1
 700 100 l 1,10,-1
 700 0 l 1,11,-1
 100 0 l 1,12,-1
 100 300 l 1,13,-1
 0 300 l 1,0,-1
300 600 m 1,14,-1
 300 700 l 1,15,-1
 400 700 l 1,16,-1
 400 600 l 1,17,-1
 300 600 l 1,14,-1
EndSplineSet
EndChar

StartChar: lslash
Encoding: 322 322 214
Width: 300
GlyphClass: 1
Flags: W
LayerCount: 2
Fore
SplineSet
0 300 m 1,0,-1
 0 400 l 1,1,-1
 100 400 l 1,2,-1
 100 1000 l 1,3,-1
 200 1000 l 1,4,-1
 200 600 l 1,5,-1
 300 600 l 1,6,-1
 300 500 l 1,7,-1
 200 500 l 1,8,-1
 200 0 l 1,9,-1
 100 0 l 1,10,-1
 100 300 l 1,11,-1
 0 300 l 1,0,-1
EndSplineSet
EndChar

StartChar: Nacute
Encoding: 323 323 215
Width: 1000
GlyphClass: 1
Flags: W
LayerCount: 2
Fore
SplineSet
900 0 m 1,0,-1
 800 0 l 1,1,-1
 800 100 l 1,2,-1
 700 100 l 1,3,-1
 700 200 l 1,4,-1
 800 200 l 1,5,-1
 800 1000 l 1,6,-1
 900 1000 l 1,7,-1
 900 0 l 1,0,-1
200 0 m 1,8,-1
 100 0 l 1,9,-1
 100 1000 l 1,10,-1
 200 1000 l 1,11,-1
 200 900 l 1,12,-1
 300 900 l 1,13,-1
 300 800 l 1,14,-1
 200 800 l 1,15,-1
 200 0 l 1,8,-1
400 500 m 1,16,-1
 400 600 l 1,17,-1
 500 600 l 1,18,-1
 500 500 l 1,19,-1
 400 500 l 1,16,-1
400 600 m 1,20,-1
 300 600 l 1,21,-1
 300 800 l 1,22,-1
 400 800 l 1,23,-1
 400 600 l 1,20,-1
400 1100 m 1,24,-1
 400 1200 l 1,25,-1
 500 1200 l 1,26,-1
 500 1100 l 1,27,-1
 400 1100 l 1,24,-1
600 200 m 1,28,-1
 600 400 l 1,29,-1
 700 400 l 1,30,-1
 700 200 l 1,31,-1
 600 200 l 1,28,-1
600 500 m 1,32,-1
 600 400 l 1,33,-1
 500 400 l 1,34,-1
 500 500 l 1,35,-1
 600 500 l 1,32,-1
600 1200 m 1,36,-1
 500 1200 l 1,37,-1
 500 1300 l 1,38,-1
 600 1300 l 1,39,-1
 600 1200 l 1,36,-1
EndSplineSet
EndChar

StartChar: nacute
Encoding: 324 324 216
Width: 700
GlyphClass: 1
Flags: W
LayerCount: 2
Fore
SplineSet
100 0 m 1,0,-1
 100 700 l 1,1,-1
 200 700 l 1,2,-1
 200 600 l 1,3,-1
 300 600 l 1,4,-1
 300 500 l 1,5,-1
 200 500 l 1,6,-1
 200 0 l 1,7,-1
 100 0 l 1,0,-1
300 600 m 1,8,-1
 300 700 l 1,9,-1
 500 700 l 1,10,-1
 500 600 l 1,11,-1
 300 600 l 1,8,-1
300 800 m 1,12,-1
 300 900 l 1,13,-1
 400 900 l 1,14,-1
 400 800 l 1,15,-1
 300 800 l 1,12,-1
400 900 m 1,16,-1
 400 1000 l 1,17,-1
 500 1000 l 1,18,-1
 500 900 l 1,19,-1
 400 900 l 1,16,-1
500 0 m 1,20,-1
 500 600 l 1,21,-1
 600 600 l 1,22,-1
 600 0 l 1,23,-1
 500 0 l 1,20,-1
EndSplineSet
EndChar

StartChar: Ncaron
Encoding: 327 327 217
Width: 1000
GlyphClass: 1
Flags: W
LayerCount: 2
Fore
SplineSet
900 0 m 1,0,-1
 800 0 l 1,1,-1
 800 100 l 1,2,-1
 700 100 l 1,3,-1
 700 200 l 1,4,-1
 800 200 l 1,5,-1
 800 1000 l 1,6,-1
 900 1000 l 1,7,-1
 900 0 l 1,0,-1
200 0 m 1,8,-1
 100 0 l 1,9,-1
 100 1000 l 1,10,-1
 200 1000 l 1,11,-1
 200 900 l 1,12,-1
 300 900 l 1,13,-1
 300 800 l 1,14,-1
 200 800 l 1,15,-1
 200 0 l 1,8,-1
400 500 m 1,16,-1
 400 600 l 1,17,-1
 500 600 l 1,18,-1
 500 500 l 1,19,-1
 400 500 l 1,16,-1
400 600 m 1,20,-1
 300 600 l 1,21,-1
 300 800 l 1,22,-1
 400 800 l 1,23,-1
 400 600 l 1,20,-1
400 1200 m 1,24,-1
 300 1200 l 1,25,-1
 300 1300 l 1,26,-1
 400 1300 l 1,27,-1
 400 1200 l 1,24,-1
400 1100 m 1,28,-1
 400 1200 l 1,29,-1
 600 1200 l 1,30,-1
 600 1100 l 1,31,-1
 400 1100 l 1,28,-1
600 200 m 1,32,-1
 600 400 l 1,33,-1
 700 400 l 1,34,-1
 700 200 l 1,35,-1
 600 200 l 1,32,-1
600 500 m 1,36,-1
 600 400 l 1,37,-1
 500 400 l 1,38,-1
 500 500 l 1,39,-1
 600 500 l 1,36,-1
600 1200 m 1,40,-1
 600 1300 l 1,41,-1
 700 1300 l 1,42,-1
 700 1200 l 1,43,-1
 600 1200 l 1,40,-1
EndSplineSet
EndChar

StartChar: ncaron
Encoding: 328 328 218
Width: 700
GlyphClass: 1
Flags: W
LayerCount: 2
Fore
SplineSet
100 0 m 1,0,-1
 100 700 l 1,1,-1
 200 700 l 1,2,-1
 200 600 l 1,3,-1
 300 600 l 1,4,-1
 300 500 l 1,5,-1
 200 500 l 1,6,-1
 200 0 l 1,7,-1
 100 0 l 1,0,-1
200 900 m 1,8,-1
 200 1000 l 1,9,-1
 300 1000 l 1,10,-1
 300 900 l 1,11,-1
 200 900 l 1,8,-1
300 600 m 1,12,-1
 300 700 l 1,13,-1
 500 700 l 1,14,-1
 500 600 l 1,15,-1
 300 600 l 1,12,-1
300 900 m 1,16,-1
 500 900 l 1,17,-1
 500 800 l 1,18,-1
 300 800 l 1,19,-1
 300 900 l 1,16,-1
500 0 m 1,20,-1
 500 600 l 1,21,-1
 600 600 l 1,22,-1
 600 0 l 1,23,-1
 500 0 l 1,20,-1
500 900 m 1,24,-1
 500 1000 l 1,25,-1
 600 1000 l 1,26,-1
 600 900 l 1,27,-1
 500 900 l 1,24,-1
EndSplineSet
EndChar

StartChar: Ohungarumlaut
Encoding: 336 336 219
Width: 1000
GlyphClass: 1
Flags: W
LayerCount: 2
Fore
SplineSet
900 200 m 1,0,-1
 800 200 l 1,1,-1
 800 800 l 1,2,-1
 900 800 l 1,3,-1
 900 200 l 1,0,-1
200 200 m 1,4,-1
 100 200 l 1,5,-1
 100 800 l 1,6,-1
 200 800 l 1,7,-1
 200 200 l 1,4,-1
200 100 m 1,8,-1
 200 200 l 1,9,-1
 300 200 l 1,10,-1
 300 100 l 1,11,-1
 200 100 l 1,8,-1
200 800 m 1,12,-1
 200 900 l 1,13,-1
 300 900 l 1,14,-1
 300 800 l 1,15,-1
 200 800 l 1,12,-1
400 1200 m 1,16,-1
 400 1100 l 1,17,-1
 300 1100 l 1,18,-1
 300 1200 l 1,19,-1
 400 1200 l 1,16,-1
400 1300 m 1,20,-1
 500 1300 l 1,21,-1
 500 1200 l 1,22,-1
 400 1200 l 1,23,-1
 400 1300 l 1,20,-1
600 1100 m 1,24,-1
 600 1200 l 1,25,-1
 700 1200 l 1,26,-1
 700 1100 l 1,27,-1
 600 1100 l 1,24,-1
800 200 m 1,28,-1
 800 100 l 1,29,-1
 700 100 l 1,30,-1
 700 200 l 1,31,-1
 800 200 l 1,28,-1
800 900 m 1,32,-1
 800 800 l 1,33,-1
 700 800 l 1,34,-1
 700 900 l 1,35,-1
 800 900 l 1,32,-1
800 1200 m 1,36,-1
 700 1200 l 1,37,-1
 700 1300 l 1,38,-1
 800 1300 l 1,39,-1
 800 1200 l 1,36,-1
300 100 m 1,40,-1
 700 100 l 1,41,-1
 700 0 l 1,42,-1
 300 0 l 1,43,-1
 300 100 l 1,40,-1
300 900 m 1,44,-1
 300 1000 l 1,45,-1
 700 1000 l 1,46,-1
 700 900 l 1,47,-1
 300 900 l 1,44,-1
EndSplineSet
EndChar

StartChar: ohungarumlaut
Encoding: 337 337 220
Width: 800
GlyphClass: 1
Flags: W
LayerCount: 2
Fore
SplineSet
200 100 m 1,0,-1
 100 100 l 1,1,-1
 100 600 l 1,2,-1
 200 600 l 1,3,-1
 200 100 l 1,0,-1
200 0 m 1,4,-1
 200 100 l 1,5,-1
 600 100 l 1,6,-1
 600 0 l 1,7,-1
 200 0 l 1,4,-1
200 600 m 1,8,-1
 200 700 l 1,9,-1
 600 700 l 1,10,-1
 600 600 l 1,11,-1
 200 600 l 1,8,-1
200 800 m 1,12,-1
 200 900 l 1,13,-1
 300 900 l 1,14,-1
 300 800 l 1,15,-1
 200 800 l 1,12,-1
400 1000 m 1,16,-1
 400 900 l 1,17,-1
 300 900 l 1,18,-1
 300 1000 l 1,19,-1
 400 1000 l 1,16,-1
600 100 m 1,20,-1
 600 600 l 1,21,-1
 700 600 l 1,22,-1
 700 100 l 1,23,-1
 600 100 l 1,20,-1
600 900 m 1,24,-1
 600 1000 l 1,25,-1
 700 1000 l 1,26,-1
 700 900 l 1,27,-1
 600 900 l 1,24,-1
600 800 m 1,28,-1
 500 800 l 1,29,-1
 500 900 l 1,30,-1
 600 900 l 1,31,-1
 600 800 l 1,28,-1
EndSplineSet
EndChar

StartChar: Racute
Encoding: 340 340 221
Width: 1000
GlyphClass: 1
Flags: W
LayerCount: 2
Fore
SplineSet
900 100 m 1,0,-1
 800 100 l 1,1,-1
 800 400 l 1,2,-1
 900 400 l 1,3,-1
 900 100 l 1,0,-1
900 0 m 1,4,-1
 900 100 l 1,5,-1
 1000 100 l 1,6,-1
 1000 0 l 1,7,-1
 900 0 l 1,4,-1
900 600 m 1,8,-1
 800 600 l 1,9,-1
 800 800 l 1,10,-1
 900 800 l 1,11,-1
 900 600 l 1,8,-1
200 0 m 1,12,-1
 100 0 l 1,13,-1
 100 1000 l 1,14,-1
 700 1000 l 1,15,-1
 700 900 l 1,16,-1
 200 900 l 1,17,-1
 200 500 l 1,18,-1
 700 500 l 1,19,-1
 700 600 l 1,20,-1
 800 600 l 1,21,-1
 800 400 l 1,22,-1
 200 400 l 1,23,-1
 200 0 l 1,12,-1
400 1100 m 1,24,-1
 400 1200 l 1,25,-1
 500 1200 l 1,26,-1
 500 1100 l 1,27,-1
 400 1100 l 1,24,-1
600 1200 m 1,28,-1
 500 1200 l 1,29,-1
 500 1300 l 1,30,-1
 600 1300 l 1,31,-1
 600 1200 l 1,28,-1
800 900 m 1,32,-1
 800 800 l 1,33,-1
 700 800 l 1,34,-1
 700 900 l 1,35,-1
 800 900 l 1,32,-1
EndSplineSet
EndChar

StartChar: racute
Encoding: 341 341 222
Width: 400
GlyphClass: 1
Flags: W
LayerCount: 2
Fore
SplineSet
100 0 m 1,0,-1
 100 700 l 1,1,-1
 200 700 l 1,2,-1
 200 600 l 1,3,-1
 300 600 l 1,4,-1
 300 500 l 1,5,-1
 200 500 l 1,6,-1
 200 0 l 1,7,-1
 100 0 l 1,0,-1
200 800 m 1,8,-1
 200 900 l 1,9,-1
 300 900 l 1,10,-1
 300 800 l 1,11,-1
 200 800 l 1,8,-1
300 600 m 1,12,-1
 300 700 l 1,13,-1
 400 700 l 1,14,-1
 400 600 l 1,15,-1
 300 600 l 1,12,-1
300 900 m 1,16,-1
 300 1000 l 1,17,-1
 400 1000 l 1,18,-1
 400 900 l 1,19,-1
 300 900 l 1,16,-1
EndSplineSet
EndChar

StartChar: Rcaron
Encoding: 344 344 223
Width: 1000
GlyphClass: 1
Flags: W
LayerCount: 2
Fore
SplineSet
900 100 m 1,0,-1
 800 100 l 1,1,-1
 800 400 l 1,2,-1
 900 400 l 1,3,-1
 900 100 l 1,0,-1
900 0 m 1,4,-1
 900 100 l 1,5,-1
 1000 100 l 1,6,-1
 1000 0 l 1,7,-1
 900 0 l 1,4,-1
900 600 m 1,8,-1
 800 600 l 1,9,-1
 800 800 l 1,10,-1
 900 800 l 1,11,-1
 900 600 l 1,8,-1
200 0 m 1,12,-1
 100 0 l 1,13,-1
 100 1000 l 1,14,-1
 700 1000 l 1,15,-1
 700 900 l 1,16,-1
 200 900 l 1,17,-1
 200 500 l 1,18,-1
 700 500 l 1,19,-1
 700 600 l 1,20,-1
 800 600 l 1,21,-1
 800 400 l 1,22,-1
 200 400 l 1,23,-1
 200 0 l 1,12,-1
200 1200 m 1,24,-1
 200 1300 l 1,25,-1
 300 1300 l 1,26,-1
 300 1200 l 1,27,-1
 200 1200 l 1,24,-1
600 1200 m 1,28,-1
 500 1200 l 1,29,-1
 500 1300 l 1,30,-1
 600 1300 l 1,31,-1
 600 1200 l 1,28,-1
800 900 m 1,32,-1
 800 800 l 1,33,-1
 700 800 l 1,34,-1
 700 900 l 1,35,-1
 800 900 l 1,32,-1
300 1200 m 1,36,-1
 500 1200 l 1,37,-1
 500 1100 l 1,38,-1
 300 1100 l 1,39,-1
 300 1200 l 1,36,-1
EndSplineSet
EndChar

StartChar: rcaron
Encoding: 345 345 224
Width: 400
GlyphClass: 1
Flags: W
LayerCount: 2
Fore
SplineSet
0 900 m 1,0,-1
 0 1000 l 1,1,-1
 100 1000 l 1,2,-1
 100 900 l 1,3,-1
 0 900 l 1,0,-1
100 0 m 1,4,-1
 100 700 l 1,5,-1
 200 700 l 1,6,-1
 200 600 l 1,7,-1
 300 600 l 1,8,-1
 300 500 l 1,9,-1
 200 500 l 1,10,-1
 200 0 l 1,11,-1
 100 0 l 1,4,-1
100 900 m 1,12,-1
 300 900 l 1,13,-1
 300 800 l 1,14,-1
 100 800 l 1,15,-1
 100 900 l 1,12,-1
300 600 m 1,16,-1
 300 700 l 1,17,-1
 400 700 l 1,18,-1
 400 600 l 1,19,-1
 300 600 l 1,16,-1
300 900 m 1,20,-1
 300 1000 l 1,21,-1
 400 1000 l 1,22,-1
 400 900 l 1,23,-1
 300 900 l 1,20,-1
EndSplineSet
EndChar

StartChar: Sacute
Encoding: 346 346 225
Width: 900
GlyphClass: 1
Flags: W
LayerCount: 2
Fore
SplineSet
200 100 m 1,0,-1
 100 100 l 1,1,-1
 100 300 l 1,2,-1
 200 300 l 1,3,-1
 200 100 l 1,0,-1
200 0 m 1,4,-1
 200 100 l 1,5,-1
 700 100 l 1,6,-1
 700 0 l 1,7,-1
 200 0 l 1,4,-1
200 500 m 1,8,-1
 200 600 l 1,9,-1
 500 600 l 1,10,-1
 500 500 l 1,11,-1
 200 500 l 1,8,-1
200 600 m 1,12,-1
 100 600 l 1,13,-1
 100 900 l 1,14,-1
 200 900 l 1,15,-1
 200 600 l 1,12,-1
200 900 m 1,16,-1
 200 1000 l 1,17,-1
 700 1000 l 1,18,-1
 700 900 l 1,19,-1
 200 900 l 1,16,-1
400 1100 m 1,20,-1
 400 1200 l 1,21,-1
 500 1200 l 1,22,-1
 500 1100 l 1,23,-1
 400 1100 l 1,20,-1
600 1200 m 1,24,-1
 500 1200 l 1,25,-1
 500 1300 l 1,26,-1
 600 1300 l 1,27,-1
 600 1200 l 1,24,-1
800 100 m 1,28,-1
 700 100 l 1,29,-1
 700 400 l 1,30,-1
 800 400 l 1,31,-1
 800 100 l 1,28,-1
800 700 m 1,32,-1
 700 700 l 1,33,-1
 700 900 l 1,34,-1
 800 900 l 1,35,-1
 800 700 l 1,32,-1
500 500 m 1,36,-1
 700 500 l 1,37,-1
 700 400 l 1,38,-1
 500 400 l 1,39,-1
 500 500 l 1,36,-1
EndSplineSet
EndChar

StartChar: sacute
Encoding: 347 347 226
Width: 700
GlyphClass: 1
Flags: W
LayerCount: 2
Fore
SplineSet
200 200 m 1,0,-1
 200 100 l 1,1,-1
 100 100 l 1,2,-1
 100 200 l 1,3,-1
 200 200 l 1,0,-1
200 100 m 1,4,-1
 500 100 l 1,5,-1
 500 0 l 1,6,-1
 200 0 l 1,7,-1
 200 100 l 1,4,-1
200 400 m 1,8,-1
 100 400 l 1,9,-1
 100 600 l 1,10,-1
 200 600 l 1,11,-1
 200 400 l 1,8,-1
200 300 m 1,12,-1
 200 400 l 1,13,-1
 500 400 l 1,14,-1
 500 300 l 1,15,-1
 200 300 l 1,12,-1
200 600 m 1,16,-1
 200 700 l 1,17,-1
 500 700 l 1,18,-1
 500 600 l 1,19,-1
 200 600 l 1,16,-1
400 900 m 1,20,-1
 400 1000 l 1,21,-1
 500 1000 l 1,22,-1
 500 900 l 1,23,-1
 400 900 l 1,20,-1
400 800 m 1,24,-1
 300 800 l 1,25,-1
 300 900 l 1,26,-1
 400 900 l 1,27,-1
 400 800 l 1,24,-1
600 100 m 1,28,-1
 500 100 l 1,29,-1
 500 300 l 1,30,-1
 600 300 l 1,31,-1
 600 100 l 1,28,-1
600 500 m 1,32,-1
 500 500 l 1,33,-1
 500 600 l 1,34,-1
 600 600 l 1,35,-1
 600 500 l 1,32,-1
EndSplineSet
EndChar

StartChar: Scedilla
Encoding: 350 350 227
Width: 900
GlyphClass: 1
Flags: W
LayerCount: 2
Fore
SplineSet
200 100 m 1,0,-1
 100 100 l 1,1,-1
 100 300 l 1,2,-1
 200 300 l 1,3,-1
 200 100 l 1,0,-1
200 0 m 1,4,-1
 200 100 l 1,5,-1
 700 100 l 1,6,-1
 700 0 l 1,7,-1
 500 0 l 1,8,-1
 500 -100 l 1,9,-1
 400 -100 l 1,10,-1
 400 0 l 1,11,-1
 200 0 l 1,4,-1
200 500 m 1,12,-1
 200 600 l 1,13,-1
 500 600 l 1,14,-1
 500 500 l 1,15,-1
 200 500 l 1,12,-1
200 600 m 1,16,-1
 100 600 l 1,17,-1
 100 900 l 1,18,-1
 200 900 l 1,19,-1
 200 600 l 1,16,-1
200 900 m 1,20,-1
 200 1000 l 1,21,-1
 700 1000 l 1,22,-1
 700 900 l 1,23,-1
 200 900 l 1,20,-1
600 -100 m 1,24,-1
 600 -200 l 1,25,-1
 500 -200 l 1,26,-1
 500 -100 l 1,27,-1
 600 -100 l 1,24,-1
800 100 m 1,28,-1
 700 100 l 1,29,-1
 700 400 l 1,30,-1
 800 400 l 1,31,-1
 800 100 l 1,28,-1
800 700 m 1,32,-1
 700 700 l 1,33,-1
 700 900 l 1,34,-1
 800 900 l 1,35,-1
 800 700 l 1,32,-1
300 -200 m 1,36,-1
 500 -200 l 1,37,-1
 500 -300 l 1,38,-1
 300 -300 l 1,39,-1
 300 -200 l 1,36,-1
500 500 m 1,40,-1
 700 500 l 1,41,-1
 700 400 l 1,42,-1
 500 400 l 1,43,-1
 500 500 l 1,40,-1
EndSplineSet
EndChar

StartChar: scedilla
Encoding: 351 351 228
Width: 700
GlyphClass: 1
Flags: W
LayerCount: 2
Fore
SplineSet
200 200 m 1,0,-1
 200 100 l 1,1,-1
 100 100 l 1,2,-1
 100 200 l 1,3,-1
 200 200 l 1,0,-1
200 100 m 1,4,-1
 500 100 l 1,5,-1
 500 0 l 1,6,-1
 400 0 l 1,7,-1
 400 -100 l 1,8,-1
 300 -100 l 1,9,-1
 300 0 l 1,10,-1
 200 0 l 1,11,-1
 200 100 l 1,4,-1
200 -200 m 1,12,-1
 400 -200 l 1,13,-1
 400 -300 l 1,14,-1
 200 -300 l 1,15,-1
 200 -200 l 1,12,-1
200 400 m 1,16,-1
 100 400 l 1,17,-1
 100 600 l 1,18,-1
 200 600 l 1,19,-1
 200 400 l 1,16,-1
200 300 m 1,20,-1
 200 400 l 1,21,-1
 500 400 l 1,22,-1
 500 300 l 1,23,-1
 200 300 l 1,20,-1
200 600 m 1,24,-1
 200 700 l 1,25,-1
 500 700 l 1,26,-1
 500 600 l 1,27,-1
 200 600 l 1,24,-1
400 -100 m 1,28,-1
 500 -100 l 1,29,-1
 500 -200 l 1,30,-1
 400 -200 l 1,31,-1
 400 -100 l 1,28,-1
600 100 m 1,32,-1
 500 100 l 1,33,-1
 500 300 l 1,34,-1
 600 300 l 1,35,-1
 600 100 l 1,32,-1
600 500 m 1,36,-1
 500 500 l 1,37,-1
 500 600 l 1,38,-1
 600 600 l 1,39,-1
 600 500 l 1,36,-1
EndSplineSet
EndChar

StartChar: Tcommaaccent
Encoding: 354 354 229
Width: 900
GlyphClass: 1
Flags: W
LayerCount: 2
Fore
SplineSet
0 900 m 1,0,-1
 0 1000 l 1,1,-1
 900 1000 l 1,2,-1
 900 900 l 1,3,-1
 500 900 l 1,4,-1
 500 -100 l 1,5,-1
 400 -100 l 1,6,-1
 400 900 l 1,7,-1
 0 900 l 1,0,-1
300 -200 m 1,8,-1
 500 -200 l 1,9,-1
 500 -300 l 1,10,-1
 300 -300 l 1,11,-1
 300 -200 l 1,8,-1
500 -100 m 1,12,-1
 600 -100 l 1,13,-1
 600 -200 l 1,14,-1
 500 -200 l 1,15,-1
 500 -100 l 1,12,-1
EndSplineSet
EndChar

StartChar: tcommaaccent
Encoding: 355 355 230
Width: 300
GlyphClass: 1
Flags: W
LayerCount: 2
Fore
SplineSet
0 -200 m 1,0,-1
 200 -200 l 1,1,-1
 200 -300 l 1,2,-1
 0 -300 l 1,3,-1
 0 -200 l 1,0,-1
0 600 m 1,4,-1
 0 700 l 1,5,-1
 100 700 l 1,6,-1
 100 900 l 1,7,-1
 200 900 l 1,8,-1
 200 700 l 1,9,-1
 300 700 l 1,10,-1
 300 600 l 1,11,-1
 200 600 l 1,12,-1
 200 100 l 1,13,-1
 100 100 l 1,14,-1
 100 600 l 1,15,-1
 0 600 l 1,4,-1
100 -100 m 1,16,-1
 100 0 l 1,17,-1
 200 0 l 1,18,-1
 200 -100 l 1,19,-1
 100 -100 l 1,16,-1
200 100 m 1,20,-1
 300 100 l 1,21,-1
 300 0 l 1,22,-1
 200 0 l 1,23,-1
 200 100 l 1,20,-1
200 -100 m 1,24,-1
 300 -100 l 1,25,-1
 300 -200 l 1,26,-1
 200 -200 l 1,27,-1
 200 -100 l 1,24,-1
EndSplineSet
EndChar

StartChar: Tcaron
Encoding: 356 356 231
Width: 900
GlyphClass: 1
Flags: W
LayerCount: 2
Fore
SplineSet
0 900 m 1,0,-1
 0 1000 l 1,1,-1
 900 1000 l 1,2,-1
 900 900 l 1,3,-1
 500 900 l 1,4,-1
 500 0 l 1,5,-1
 400 0 l 1,6,-1
 400 900 l 1,7,-1
 0 900 l 1,0,-1
300 1200 m 1,8,-1
 300 1300 l 1,9,-1
 400 1300 l 1,10,-1
 400 1200 l 1,11,-1
 300 1200 l 1,8,-1
400 1200 m 1,12,-1
 600 1200 l 1,13,-1
 600 1100 l 1,14,-1
 400 1100 l 1,15,-1
 400 1200 l 1,12,-1
700 1200 m 1,16,-1
 600 1200 l 1,17,-1
 600 1300 l 1,18,-1
 700 1300 l 1,19,-1
 700 1200 l 1,16,-1
EndSplineSet
EndChar

StartChar: tcaron
Encoding: 357 357 232
Width: 400
GlyphClass: 1
Flags: W
LayerCount: 2
Fore
SplineSet
0 600 m 1,0,-1
 0 700 l 1,1,-1
 100 700 l 1,2,-1
 100 900 l 1,3,-1
 200 900 l 1,4,-1
 200 700 l 1,5,-1
 300 700 l 1,6,-1
 300 600 l 1,7,-1
 200 600 l 1,8,-1
 200 100 l 1,9,-1
 100 100 l 1,10,-1
 100 600 l 1,11,-1
 0 600 l 1,0,-1
200 100 m 1,12,-1
 300 100 l 1,13,-1
 300 0 l 1,14,-1
 200 0 l 1,15,-1
 200 100 l 1,12,-1
300 1000 m 1,16,-1
 400 1000 l 1,17,-1
 400 800 l 1,18,-1
 300 800 l 1,19,-1
 300 1000 l 1,16,-1
EndSplineSet
EndChar

StartChar: Uring
Encoding: 366 366 233
Width: 1000
GlyphClass: 1
Flags: W
LayerCount: 2
Fore
SplineSet
900 200 m 1,0,-1
 800 200 l 1,1,-1
 800 1000 l 1,2,-1
 900 1000 l 1,3,-1
 900 200 l 1,0,-1
200 200 m 1,4,-1
 100 200 l 1,5,-1
 100 1000 l 1,6,-1
 200 1000 l 1,7,-1
 200 200 l 1,4,-1
200 100 m 1,8,-1
 200 200 l 1,9,-1
 300 200 l 1,10,-1
 300 100 l 1,11,-1
 200 100 l 1,8,-1
400 1000 m 1,12,-1
 400 1100 l 1,13,-1
 600 1100 l 1,14,-1
 600 1000 l 1,15,-1
 400 1000 l 1,12,-1
400 1200 m 1,16,-1
 400 1100 l 1,17,-1
 300 1100 l 1,18,-1
 300 1200 l 1,19,-1
 400 1200 l 1,16,-1
400 1300 m 1,20,-1
 600 1300 l 1,21,-1
 600 1200 l 1,22,-1
 400 1200 l 1,23,-1
 400 1300 l 1,20,-1
600 1200 m 1,24,-1
 700 1200 l 1,25,-1
 700 1100 l 1,26,-1
 600 1100 l 1,27,-1
 600 1200 l 1,24,-1
800 200 m 1,28,-1
 800 100 l 1,29,-1
 700 100 l 1,30,-1
 700 200 l 1,31,-1
 800 200 l 1,28,-1
300 100 m 1,32,-1
 700 100 l 1,33,-1
 700 0 l 1,34,-1
 300 0 l 1,35,-1
 300 100 l 1,32,-1
EndSplineSet
EndChar

StartChar: uring
Encoding: 367 367 234
Width: 700
GlyphClass: 1
Flags: W
LayerCount: 2
Fore
SplineSet
200 100 m 1,0,-1
 400 100 l 1,1,-1
 400 0 l 1,2,-1
 200 0 l 1,3,-1
 200 100 l 1,0,-1
200 700 m 1,4,-1
 200 100 l 1,5,-1
 100 100 l 1,6,-1
 100 700 l 1,7,-1
 200 700 l 1,4,-1
200 800 m 1,8,-1
 200 900 l 1,9,-1
 300 900 l 1,10,-1
 300 800 l 1,11,-1
 200 800 l 1,8,-1
400 100 m 1,12,-1
 400 200 l 1,13,-1
 500 200 l 1,14,-1
 500 700 l 1,15,-1
 600 700 l 1,16,-1
 600 0 l 1,17,-1
 500 0 l 1,18,-1
 500 100 l 1,19,-1
 400 100 l 1,12,-1
600 900 m 1,20,-1
 600 800 l 1,21,-1
 500 800 l 1,22,-1
 500 900 l 1,23,-1
 600 900 l 1,20,-1
300 700 m 1,24,-1
 300 800 l 1,25,-1
 500 800 l 1,26,-1
 500 700 l 1,27,-1
 300 700 l 1,24,-1
300 900 m 1,28,-1
 300 1000 l 1,29,-1
 500 1000 l 1,30,-1
 500 900 l 1,31,-1
 300 900 l 1,28,-1
EndSplineSet
EndChar

StartChar: Uhungarumlaut
Encoding: 368 368 235
Width: 1000
GlyphClass: 1
Flags: W
LayerCount: 2
Fore
SplineSet
900 200 m 1,0,-1
 800 200 l 1,1,-1
 800 1000 l 1,2,-1
 900 1000 l 1,3,-1
 900 200 l 1,0,-1
200 200 m 1,4,-1
 100 200 l 1,5,-1
 100 1000 l 1,6,-1
 200 1000 l 1,7,-1
 200 200 l 1,4,-1
200 100 m 1,8,-1
 200 200 l 1,9,-1
 300 200 l 1,10,-1
 300 100 l 1,11,-1
 200 100 l 1,8,-1
400 1200 m 1,12,-1
 400 1100 l 1,13,-1
 300 1100 l 1,14,-1
 300 1200 l 1,15,-1
 400 1200 l 1,12,-1
400 1300 m 1,16,-1
 500 1300 l 1,17,-1
 500 1200 l 1,18,-1
 400 1200 l 1,19,-1
 400 1300 l 1,16,-1
600 1100 m 1,20,-1
 600 1200 l 1,21,-1
 700 1200 l 1,22,-1
 700 1100 l 1,23,-1
 600 1100 l 1,20,-1
800 200 m 1,24,-1
 800 100 l 1,25,-1
 700 100 l 1,26,-1
 700 200 l 1,27,-1
 800 200 l 1,24,-1
800 1200 m 1,28,-1
 700 1200 l 1,29,-1
 700 1300 l 1,30,-1
 800 1300 l 1,31,-1
 800 1200 l 1,28,-1
300 100 m 1,32,-1
 700 100 l 1,33,-1
 700 0 l 1,34,-1
 300 0 l 1,35,-1
 300 100 l 1,32,-1
EndSplineSet
EndChar

StartChar: uhungarumlaut
Encoding: 369 369 236
Width: 700
GlyphClass: 1
Flags: W
LayerCount: 2
Fore
SplineSet
200 100 m 1,0,-1
 400 100 l 1,1,-1
 400 0 l 1,2,-1
 200 0 l 1,3,-1
 200 100 l 1,0,-1
200 700 m 1,4,-1
 200 100 l 1,5,-1
 100 100 l 1,6,-1
 100 700 l 1,7,-1
 200 700 l 1,4,-1
200 900 m 1,8,-1
 200 1000 l 1,9,-1
 300 1000 l 1,10,-1
 300 900 l 1,11,-1
 200 900 l 1,8,-1
200 800 m 1,12,-1
 100 800 l 1,13,-1
 100 900 l 1,14,-1
 200 900 l 1,15,-1
 200 800 l 1,12,-1
400 100 m 1,16,-1
 400 200 l 1,17,-1
 500 200 l 1,18,-1
 500 700 l 1,19,-1
 600 700 l 1,20,-1
 600 0 l 1,21,-1
 500 0 l 1,22,-1
 500 100 l 1,23,-1
 400 100 l 1,16,-1
400 800 m 1,24,-1
 400 900 l 1,25,-1
 500 900 l 1,26,-1
 500 800 l 1,27,-1
 400 800 l 1,24,-1
600 1000 m 1,28,-1
 600 900 l 1,29,-1
 500 900 l 1,30,-1
 500 1000 l 1,31,-1
 600 1000 l 1,28,-1
EndSplineSet
EndChar

StartChar: Zacute
Encoding: 377 377 237
Width: 800
GlyphClass: 1
Flags: W
LayerCount: 2
Fore
SplineSet
200 200 m 1,0,-1
 200 100 l 1,1,-1
 700 100 l 1,2,-1
 700 0 l 1,3,-1
 100 0 l 1,4,-1
 100 200 l 1,5,-1
 200 200 l 1,0,-1
200 400 m 1,6,-1
 300 400 l 1,7,-1
 300 200 l 1,8,-1
 200 200 l 1,9,-1
 200 400 l 1,6,-1
400 500 m 1,10,-1
 400 400 l 1,11,-1
 300 400 l 1,12,-1
 300 500 l 1,13,-1
 400 500 l 1,10,-1
400 600 m 1,14,-1
 500 600 l 1,15,-1
 500 500 l 1,16,-1
 400 500 l 1,17,-1
 400 600 l 1,14,-1
400 1100 m 1,18,-1
 400 1200 l 1,19,-1
 500 1200 l 1,20,-1
 500 1100 l 1,21,-1
 400 1100 l 1,18,-1
600 600 m 1,22,-1
 500 600 l 1,23,-1
 500 800 l 1,24,-1
 600 800 l 1,25,-1
 600 600 l 1,22,-1
600 800 m 1,26,-1
 600 900 l 1,27,-1
 100 900 l 1,28,-1
 100 1000 l 1,29,-1
 700 1000 l 1,30,-1
 700 800 l 1,31,-1
 600 800 l 1,26,-1
600 1200 m 1,32,-1
 500 1200 l 1,33,-1
 500 1300 l 1,34,-1
 600 1300 l 1,35,-1
 600 1200 l 1,32,-1
EndSplineSet
EndChar

StartChar: zacute
Encoding: 378 378 238
Width: 600
GlyphClass: 1
Flags: W
LayerCount: 2
Fore
SplineSet
100 200 m 1,0,-1
 200 200 l 1,1,-1
 200 100 l 1,2,-1
 500 100 l 1,3,-1
 500 0 l 1,4,-1
 100 0 l 1,5,-1
 100 200 l 1,0,-1
100 600 m 1,6,-1
 100 700 l 1,7,-1
 500 700 l 1,8,-1
 500 500 l 1,9,-1
 400 500 l 1,10,-1
 400 600 l 1,11,-1
 100 600 l 1,6,-1
200 200 m 1,12,-1
 200 400 l 1,13,-1
 300 400 l 1,14,-1
 300 200 l 1,15,-1
 200 200 l 1,12,-1
200 800 m 1,16,-1
 200 900 l 1,17,-1
 300 900 l 1,18,-1
 300 800 l 1,19,-1
 200 800 l 1,16,-1
300 400 m 1,20,-1
 300 500 l 1,21,-1
 400 500 l 1,22,-1
 400 400 l 1,23,-1
 300 400 l 1,20,-1
300 900 m 1,24,-1
 300 1000 l 1,25,-1
 400 1000 l 1,26,-1
 400 900 l 1,27,-1
 300 900 l 1,24,-1
EndSplineSet
EndChar

StartChar: Zdotaccent
Encoding: 379 379 239
Width: 800
GlyphClass: 1
Flags: W
LayerCount: 2
Fore
SplineSet
200 200 m 1,0,-1
 200 100 l 1,1,-1
 700 100 l 1,2,-1
 700 0 l 1,3,-1
 100 0 l 1,4,-1
 100 200 l 1,5,-1
 200 200 l 1,0,-1
200 400 m 1,6,-1
 300 400 l 1,7,-1
 300 200 l 1,8,-1
 200 200 l 1,9,-1
 200 400 l 1,6,-1
400 500 m 1,10,-1
 400 400 l 1,11,-1
 300 400 l 1,12,-1
 300 500 l 1,13,-1
 400 500 l 1,10,-1
400 600 m 1,14,-1
 500 600 l 1,15,-1
 500 500 l 1,16,-1
 400 500 l 1,17,-1
 400 600 l 1,14,-1
400 1200 m 1,18,-1
 400 1300 l 1,19,-1
 500 1300 l 1,20,-1
 500 1200 l 1,21,-1
 400 1200 l 1,18,-1
600 600 m 1,22,-1
 500 600 l 1,23,-1
 500 800 l 1,24,-1
 600 800 l 1,25,-1
 600 600 l 1,22,-1
600 800 m 1,26,-1
 600 900 l 1,27,-1
 100 900 l 1,28,-1
 100 1000 l 1,29,-1
 700 1000 l 1,30,-1
 700 800 l 1,31,-1
 600 800 l 1,26,-1
EndSplineSet
EndChar

StartChar: zdotaccent
Encoding: 380 380 240
Width: 600
GlyphClass: 1
Flags: W
LayerCount: 2
Fore
SplineSet
100 200 m 1,0,-1
 200 200 l 1,1,-1
 200 100 l 1,2,-1
 500 100 l 1,3,-1
 500 0 l 1,4,-1
 100 0 l 1,5,-1
 100 200 l 1,0,-1
100 600 m 1,6,-1
 100 700 l 1,7,-1
 500 700 l 1,8,-1
 500 500 l 1,9,-1
 400 500 l 1,10,-1
 400 600 l 1,11,-1
 100 600 l 1,6,-1
200 200 m 1,12,-1
 200 400 l 1,13,-1
 300 400 l 1,14,-1
 300 200 l 1,15,-1
 200 200 l 1,12,-1
300 400 m 1,16,-1
 300 500 l 1,17,-1
 400 500 l 1,18,-1
 400 400 l 1,19,-1
 300 400 l 1,16,-1
300 900 m 1,20,-1
 300 1000 l 1,21,-1
 400 1000 l 1,22,-1
 400 900 l 1,23,-1
 300 900 l 1,20,-1
EndSplineSet
EndChar

StartChar: caron
Encoding: 711 711 241
Width: 500
GlyphClass: 1
Flags: W
LayerCount: 2
Fore
SplineSet
100 1200 m 1,0,-1
 0 1200 l 1,1,-1
 0 1300 l 1,2,-1
 100 1300 l 1,3,-1
 100 1200 l 1,0,-1
100 1100 m 1,4,-1
 100 1200 l 1,5,-1
 300 1200 l 1,6,-1
 300 1100 l 1,7,-1
 100 1100 l 1,4,-1
400 1200 m 1,8,-1
 300 1200 l 1,9,-1
 300 1300 l 1,10,-1
 400 1300 l 1,11,-1
 400 1200 l 1,8,-1
EndSplineSet
EndChar

StartChar: breve
Encoding: 728 728 242
Width: 500
GlyphClass: 1
Flags: W
LayerCount: 2
Fore
SplineSet
100 1200 m 1,0,-1
 0 1200 l 1,1,-1
 0 1300 l 1,2,-1
 100 1300 l 1,3,-1
 100 1200 l 1,0,-1
100 1100 m 1,4,-1
 100 1200 l 1,5,-1
 400 1200 l 1,6,-1
 400 1100 l 1,7,-1
 100 1100 l 1,4,-1
500 1200 m 1,8,-1
 400 1200 l 1,9,-1
 400 1300 l 1,10,-1
 500 1300 l 1,11,-1
 500 1200 l 1,8,-1
EndSplineSet
EndChar

StartChar: dotaccent
Encoding: 729 729 243
Width: 300
GlyphClass: 1
Flags: W
LayerCount: 2
Fore
SplineSet
100 1200 m 1,0,-1
 100 1300 l 1,1,-1
 200 1300 l 1,2,-1
 200 1200 l 1,3,-1
 100 1200 l 1,0,-1
EndSplineSet
EndChar

StartChar: ogonek
Encoding: 731 731 244
Width: 300
GlyphClass: 1
Flags: W
LayerCount: 2
Fore
SplineSet
0 -200 m 1,0,-1
 0 -100 l 1,1,-1
 100 -100 l 1,2,-1
 100 -200 l 1,3,-1
 0 -200 l 1,0,-1
100 -100 m 1,4,-1
 100 0 l 1,5,-1
 200 0 l 1,6,-1
 200 -100 l 1,7,-1
 100 -100 l 1,4,-1
100 -200 m 1,8,-1
 300 -200 l 1,9,-1
 300 -300 l 1,10,-1
 100 -300 l 1,11,-1
 100 -200 l 1,8,-1
EndSplineSet
EndChar

StartChar: hungarumlaut
Encoding: 733 733 245
Width: 700
GlyphClass: 1
Flags: W
LayerCount: 2
Fore
SplineSet
100 800 m 1,0,-1
 100 900 l 1,1,-1
 200 900 l 1,2,-1
 200 800 l 1,3,-1
 100 800 l 1,0,-1
200 900 m 1,4,-1
 200 1000 l 1,5,-1
 300 1000 l 1,6,-1
 300 900 l 1,7,-1
 200 900 l 1,4,-1
400 800 m 1,8,-1
 400 900 l 1,9,-1
 500 900 l 1,10,-1
 500 800 l 1,11,-1
 400 800 l 1,8,-1
500 900 m 1,12,-1
 500 1000 l 1,13,-1
 600 1000 l 1,14,-1
 600 900 l 1,15,-1
 500 900 l 1,12,-1
EndSplineSet
EndChar

StartChar: afii10023
Encoding: 1025 1025 246
Width: 900
GlyphClass: 1
Flags: W
LayerCount: 2
Fore
SplineSet
800 100 m 1,0,-1
 800 0 l 1,1,-1
 100 0 l 1,2,-1
 100 1000 l 1,3,-1
 800 1000 l 1,4,-1
 800 900 l 1,5,-1
 200 900 l 1,6,-1
 200 600 l 1,7,-1
 700 600 l 1,8,-1
 700 500 l 1,9,-1
 200 500 l 1,10,-1
 200 100 l 1,11,-1
 800 100 l 1,0,-1
300 1200 m 1,12,-1
 200 1200 l 1,13,-1
 200 1300 l 1,14,-1
 300 1300 l 1,15,-1
 300 1200 l 1,12,-1
700 1200 m 1,16,-1
 600 1200 l 1,17,-1
 600 1300 l 1,18,-1
 700 1300 l 1,19,-1
 700 1200 l 1,16,-1
EndSplineSet
EndChar

StartChar: afii10051
Encoding: 1026 1026 247
Width: 1200
GlyphClass: 1
Flags: W
LayerCount: 2
Fore
SplineSet
800 100 m 1,0,-1
 700 100 l 1,1,-1
 700 200 l 1,2,-1
 900 200 l 1,3,-1
 900 100 l 1,4,-1
 1000 100 l 1,5,-1
 1000 0 l 1,6,-1
 800 0 l 1,7,-1
 800 100 l 1,0,-1
100 900 m 1,8,-1
 100 1000 l 1,9,-1
 1000 1000 l 1,10,-1
 1000 900 l 1,11,-1
 600 900 l 1,12,-1
 600 600 l 1,13,-1
 1000 600 l 1,14,-1
 1000 500 l 1,15,-1
 600 500 l 1,16,-1
 600 0 l 1,17,-1
 500 0 l 1,18,-1
 500 900 l 1,19,-1
 100 900 l 1,8,-1
1000 100 m 1,20,-1
 1000 500 l 1,21,-1
 1100 500 l 1,22,-1
 1100 100 l 1,23,-1
 1000 100 l 1,20,-1
EndSplineSet
EndChar

StartChar: afii10052
Encoding: 1027 1027 248
Width: 700
GlyphClass: 1
Flags: W
LayerCount: 2
Fore
SplineSet
100 0 m 1,0,-1
 100 1000 l 1,1,-1
 700 1000 l 1,2,-1
 700 900 l 1,3,-1
 200 900 l 1,4,-1
 200 0 l 1,5,-1
 100 0 l 1,0,-1
500 1200 m 1,6,-1
 500 1100 l 1,7,-1
 400 1100 l 1,8,-1
 400 1200 l 1,9,-1
 500 1200 l 1,6,-1
500 1300 m 1,10,-1
 600 1300 l 1,11,-1
 600 1200 l 1,12,-1
 500 1200 l 1,13,-1
 500 1300 l 1,10,-1
EndSplineSet
EndChar

StartChar: afii10053
Encoding: 1028 1028 249
Width: 1000
GlyphClass: 1
Flags: W
LayerCount: 2
Fore
SplineSet
900 200 m 1,0,-1
 800 200 l 1,1,-1
 800 300 l 1,2,-1
 900 300 l 1,3,-1
 900 200 l 1,0,-1
900 700 m 1,4,-1
 800 700 l 1,5,-1
 800 800 l 1,6,-1
 900 800 l 1,7,-1
 900 700 l 1,4,-1
200 200 m 1,8,-1
 100 200 l 1,9,-1
 100 800 l 1,10,-1
 200 800 l 1,11,-1
 200 600 l 1,12,-1
 600 600 l 1,13,-1
 600 500 l 1,14,-1
 200 500 l 1,15,-1
 200 200 l 1,8,-1
200 100 m 1,16,-1
 200 200 l 1,17,-1
 300 200 l 1,18,-1
 300 100 l 1,19,-1
 200 100 l 1,16,-1
200 800 m 1,20,-1
 200 900 l 1,21,-1
 300 900 l 1,22,-1
 300 800 l 1,23,-1
 200 800 l 1,20,-1
800 200 m 1,24,-1
 800 100 l 1,25,-1
 700 100 l 1,26,-1
 700 200 l 1,27,-1
 800 200 l 1,24,-1
800 900 m 1,28,-1
 800 800 l 1,29,-1
 700 800 l 1,30,-1
 700 900 l 1,31,-1
 800 900 l 1,28,-1
300 100 m 1,32,-1
 700 100 l 1,33,-1
 700 0 l 1,34,-1
 300 0 l 1,35,-1
 300 100 l 1,32,-1
300 900 m 1,36,-1
 300 1000 l 1,37,-1
 700 1000 l 1,38,-1
 700 900 l 1,39,-1
 300 900 l 1,36,-1
EndSplineSet
EndChar

StartChar: afii10054
Encoding: 1029 1029 250
Width: 900
GlyphClass: 1
Flags: W
LayerCount: 2
Fore
SplineSet
200 100 m 1,0,-1
 100 100 l 1,1,-1
 100 300 l 1,2,-1
 200 300 l 1,3,-1
 200 100 l 1,0,-1
200 0 m 1,4,-1
 200 100 l 1,5,-1
 700 100 l 1,6,-1
 700 0 l 1,7,-1
 200 0 l 1,4,-1
200 500 m 1,8,-1
 200 600 l 1,9,-1
 500 600 l 1,10,-1
 500 500 l 1,11,-1
 200 500 l 1,8,-1
200 600 m 1,12,-1
 100 600 l 1,13,-1
 100 900 l 1,14,-1
 200 900 l 1,15,-1
 200 600 l 1,12,-1
200 900 m 1,16,-1
 200 1000 l 1,17,-1
 700 1000 l 1,18,-1
 700 900 l 1,19,-1
 200 900 l 1,16,-1
800 100 m 1,20,-1
 700 100 l 1,21,-1
 700 400 l 1,22,-1
 800 400 l 1,23,-1
 800 100 l 1,20,-1
800 700 m 1,24,-1
 700 700 l 1,25,-1
 700 900 l 1,26,-1
 800 900 l 1,27,-1
 800 700 l 1,24,-1
500 500 m 1,28,-1
 700 500 l 1,29,-1
 700 400 l 1,30,-1
 500 400 l 1,31,-1
 500 500 l 1,28,-1
EndSplineSet
EndChar

StartChar: afii10055
Encoding: 1030 1030 251
Width: 300
GlyphClass: 1
Flags: W
LayerCount: 2
Fore
SplineSet
100 0 m 1,0,-1
 100 1000 l 1,1,-1
 200 1000 l 1,2,-1
 200 0 l 1,3,-1
 100 0 l 1,0,-1
EndSplineSet
EndChar

StartChar: afii10056
Encoding: 1031 1031 252
Width: 300
GlyphClass: 1
Flags: W
LayerCount: 2
Fore
SplineSet
100 1200 m 1,0,-1
 0 1200 l 1,1,-1
 0 1300 l 1,2,-1
 100 1300 l 1,3,-1
 100 1200 l 1,0,-1
100 0 m 1,4,-1
 100 1000 l 1,5,-1
 200 1000 l 1,6,-1
 200 0 l 1,7,-1
 100 0 l 1,4,-1
300 1200 m 1,8,-1
 200 1200 l 1,9,-1
 200 1300 l 1,10,-1
 300 1300 l 1,11,-1
 300 1200 l 1,8,-1
EndSplineSet
EndChar

StartChar: afii10057
Encoding: 1032 1032 253
Width: 700
GlyphClass: 1
Flags: W
LayerCount: 2
Fore
SplineSet
100 100 m 1,0,-1
 100 300 l 1,1,-1
 200 300 l 1,2,-1
 200 100 l 1,3,-1
 100 100 l 1,0,-1
500 100 m 1,4,-1
 500 0 l 1,5,-1
 200 0 l 1,6,-1
 200 100 l 1,7,-1
 500 100 l 1,4,-1
500 1000 m 1,8,-1
 600 1000 l 1,9,-1
 600 100 l 1,10,-1
 500 100 l 1,11,-1
 500 1000 l 1,8,-1
EndSplineSet
EndChar

StartChar: afii10058
Encoding: 1033 1033 254
Width: 1200
GlyphClass: 1
Flags: W
LayerCount: 2
Fore
SplineSet
100 0 m 1,0,-1
 100 100 l 1,1,-1
 200 100 l 1,2,-1
 200 0 l 1,3,-1
 100 0 l 1,0,-1
200 100 m 1,4,-1
 200 900 l 1,5,-1
 300 900 l 1,6,-1
 300 100 l 1,7,-1
 200 100 l 1,4,-1
1100 100 m 1,8,-1
 1100 0 l 1,9,-1
 600 0 l 1,10,-1
 600 900 l 1,11,-1
 300 900 l 1,12,-1
 300 1000 l 1,13,-1
 700 1000 l 1,14,-1
 700 600 l 1,15,-1
 1100 600 l 1,16,-1
 1100 500 l 1,17,-1
 700 500 l 1,18,-1
 700 100 l 1,19,-1
 1100 100 l 1,8,-1
1100 500 m 1,20,-1
 1200 500 l 1,21,-1
 1200 100 l 1,22,-1
 1100 100 l 1,23,-1
 1100 500 l 1,20,-1
EndSplineSet
EndChar

StartChar: afii10059
Encoding: 1034 1034 255
Width: 1300
GlyphClass: 1
Flags: W
LayerCount: 2
Fore
SplineSet
800 100 m 1,0,-1
 1200 100 l 1,1,-1
 1200 0 l 1,2,-1
 700 0 l 1,3,-1
 700 500 l 1,4,-1
 200 500 l 1,5,-1
 200 0 l 1,6,-1
 100 0 l 1,7,-1
 100 1000 l 1,8,-1
 200 1000 l 1,9,-1
 200 600 l 1,10,-1
 700 600 l 1,11,-1
 700 1000 l 1,12,-1
 800 1000 l 1,13,-1
 800 600 l 1,14,-1
 1200 600 l 1,15,-1
 1200 500 l 1,16,-1
 800 500 l 1,17,-1
 800 100 l 1,0,-1
1200 100 m 1,18,-1
 1200 500 l 1,19,-1
 1300 500 l 1,20,-1
 1300 100 l 1,21,-1
 1200 100 l 1,18,-1
EndSplineSet
EndChar

StartChar: afii10060
Encoding: 1035 1035 256
Width: 1200
GlyphClass: 1
Flags: W
LayerCount: 2
Fore
SplineSet
100 900 m 1,0,-1
 100 1000 l 1,1,-1
 1000 1000 l 1,2,-1
 1000 900 l 1,3,-1
 600 900 l 1,4,-1
 600 500 l 1,5,-1
 700 500 l 1,6,-1
 700 400 l 1,7,-1
 600 400 l 1,8,-1
 600 0 l 1,9,-1
 500 0 l 1,10,-1
 500 900 l 1,11,-1
 100 900 l 1,0,-1
1000 0 m 1,12,-1
 1000 500 l 1,13,-1
 1100 500 l 1,14,-1
 1100 0 l 1,15,-1
 1000 0 l 1,12,-1
1000 500 m 1,16,-1
 700 500 l 1,17,-1
 700 600 l 1,18,-1
 1000 600 l 1,19,-1
 1000 500 l 1,16,-1
EndSplineSet
EndChar

StartChar: afii10061
Encoding: 1036 1036 257
Width: 800
GlyphClass: 1
Flags: W
LayerCount: 2
Fore
SplineSet
200 0 m 1,0,-1
 100 0 l 1,1,-1
 100 1000 l 1,2,-1
 200 1000 l 1,3,-1
 200 600 l 1,4,-1
 300 600 l 1,5,-1
 300 500 l 1,6,-1
 200 500 l 1,7,-1
 200 0 l 1,0,-1
400 500 m 1,8,-1
 400 400 l 1,9,-1
 300 400 l 1,10,-1
 300 500 l 1,11,-1
 400 500 l 1,8,-1
400 400 m 1,12,-1
 500 400 l 1,13,-1
 500 300 l 1,14,-1
 400 300 l 1,15,-1
 400 400 l 1,12,-1
400 700 m 1,16,-1
 400 600 l 1,17,-1
 300 600 l 1,18,-1
 300 700 l 1,19,-1
 400 700 l 1,16,-1
400 1000 m 1,20,-1
 300 1000 l 1,21,-1
 300 1100 l 1,22,-1
 400 1100 l 1,23,-1
 400 1000 l 1,20,-1
400 800 m 1,24,-1
 500 800 l 1,25,-1
 500 700 l 1,26,-1
 400 700 l 1,27,-1
 400 800 l 1,24,-1
400 1100 m 1,28,-1
 400 1200 l 1,29,-1
 500 1200 l 1,30,-1
 500 1100 l 1,31,-1
 400 1100 l 1,28,-1
600 200 m 1,32,-1
 500 200 l 1,33,-1
 500 300 l 1,34,-1
 600 300 l 1,35,-1
 600 200 l 1,32,-1
600 100 m 1,36,-1
 600 200 l 1,37,-1
 700 200 l 1,38,-1
 700 100 l 1,39,-1
 600 100 l 1,36,-1
600 900 m 1,40,-1
 600 1000 l 1,41,-1
 700 1000 l 1,42,-1
 700 900 l 1,43,-1
 600 900 l 1,40,-1
600 800 m 1,44,-1
 500 800 l 1,45,-1
 500 900 l 1,46,-1
 600 900 l 1,47,-1
 600 800 l 1,44,-1
800 100 m 1,48,-1
 800 0 l 1,49,-1
 700 0 l 1,50,-1
 700 100 l 1,51,-1
 800 100 l 1,48,-1
EndSplineSet
EndChar

StartChar: afii10062
Encoding: 1038 1038 258
Width: 900
GlyphClass: 1
Flags: W
LayerCount: 2
Fore
SplineSet
200 200 m 1,0,-1
 200 100 l 1,1,-1
 100 100 l 1,2,-1
 100 200 l 1,3,-1
 200 200 l 1,0,-1
200 100 m 1,4,-1
 700 100 l 1,5,-1
 700 0 l 1,6,-1
 200 0 l 1,7,-1
 200 100 l 1,4,-1
200 500 m 1,8,-1
 100 500 l 1,9,-1
 100 1000 l 1,10,-1
 200 1000 l 1,11,-1
 200 500 l 1,8,-1
200 400 m 1,12,-1
 200 500 l 1,13,-1
 700 500 l 1,14,-1
 700 1000 l 1,15,-1
 800 1000 l 1,16,-1
 800 100 l 1,17,-1
 700 100 l 1,18,-1
 700 400 l 1,19,-1
 200 400 l 1,12,-1
400 1000 m 1,20,-1
 400 1100 l 1,21,-1
 600 1100 l 1,22,-1
 600 1000 l 1,23,-1
 400 1000 l 1,20,-1
400 1200 m 1,24,-1
 400 1100 l 1,25,-1
 300 1100 l 1,26,-1
 300 1200 l 1,27,-1
 400 1200 l 1,24,-1
600 1100 m 1,28,-1
 600 1200 l 1,29,-1
 700 1200 l 1,30,-1
 700 1100 l 1,31,-1
 600 1100 l 1,28,-1
EndSplineSet
EndChar

StartChar: afii10145
Encoding: 1039 1039 259
Width: 900
GlyphClass: 1
Flags: W
LayerCount: 2
Fore
SplineSet
400 0 m 1,0,-1
 100 0 l 1,1,-1
 100 1000 l 1,2,-1
 200 1000 l 1,3,-1
 200 100 l 1,4,-1
 700 100 l 1,5,-1
 700 1000 l 1,6,-1
 800 1000 l 1,7,-1
 800 0 l 1,8,-1
 500 0 l 1,9,-1
 500 -200 l 1,10,-1
 400 -200 l 1,11,-1
 400 0 l 1,0,-1
EndSplineSet
EndChar

StartChar: afii10017
Encoding: 1040 1040 260
Width: 900
GlyphClass: 1
Flags: W
LayerCount: 2
Fore
SplineSet
0 200 m 1,0,-1
 100 200 l 1,1,-1
 100 0 l 1,2,-1
 0 0 l 1,3,-1
 0 200 l 1,0,-1
900 0 m 1,4,-1
 800 0 l 1,5,-1
 800 200 l 1,6,-1
 900 200 l 1,7,-1
 900 0 l 1,4,-1
200 200 m 1,8,-1
 100 200 l 1,9,-1
 100 400 l 1,10,-1
 200 400 l 1,11,-1
 200 600 l 1,12,-1
 300 600 l 1,13,-1
 300 400 l 1,14,-1
 600 400 l 1,15,-1
 600 600 l 1,16,-1
 700 600 l 1,17,-1
 700 400 l 1,18,-1
 800 400 l 1,19,-1
 800 200 l 1,20,-1
 700 200 l 1,21,-1
 700 300 l 1,22,-1
 200 300 l 1,23,-1
 200 200 l 1,8,-1
400 600 m 1,24,-1
 300 600 l 1,25,-1
 300 800 l 1,26,-1
 400 800 l 1,27,-1
 400 600 l 1,24,-1
400 1000 m 1,28,-1
 500 1000 l 1,29,-1
 500 800 l 1,30,-1
 400 800 l 1,31,-1
 400 1000 l 1,28,-1
600 600 m 1,32,-1
 500 600 l 1,33,-1
 500 800 l 1,34,-1
 600 800 l 1,35,-1
 600 600 l 1,32,-1
EndSplineSet
EndChar

StartChar: afii10018
Encoding: 1041 1041 261
Width: 900
GlyphClass: 1
Flags: W
LayerCount: 2
Fore
SplineSet
800 100 m 1,0,-1
 700 100 l 1,1,-1
 700 500 l 1,2,-1
 800 500 l 1,3,-1
 800 100 l 1,0,-1
100 0 m 1,4,-1
 100 1000 l 1,5,-1
 700 1000 l 1,6,-1
 700 900 l 1,7,-1
 200 900 l 1,8,-1
 200 600 l 1,9,-1
 700 600 l 1,10,-1
 700 500 l 1,11,-1
 200 500 l 1,12,-1
 200 100 l 1,13,-1
 700 100 l 1,14,-1
 700 0 l 1,15,-1
 100 0 l 1,4,-1
EndSplineSet
EndChar

StartChar: afii10019
Encoding: 1042 1042 262
Width: 900
GlyphClass: 1
Flags: W
LayerCount: 2
Fore
SplineSet
800 100 m 1,0,-1
 700 100 l 1,1,-1
 700 500 l 1,2,-1
 800 500 l 1,3,-1
 800 100 l 1,0,-1
800 600 m 1,4,-1
 700 600 l 1,5,-1
 700 900 l 1,6,-1
 800 900 l 1,7,-1
 800 600 l 1,4,-1
100 0 m 1,8,-1
 100 1000 l 1,9,-1
 700 1000 l 1,10,-1
 700 900 l 1,11,-1
 200 900 l 1,12,-1
 200 600 l 1,13,-1
 700 600 l 1,14,-1
 700 500 l 1,15,-1
 200 500 l 1,16,-1
 200 100 l 1,17,-1
 700 100 l 1,18,-1
 700 0 l 1,19,-1
 100 0 l 1,8,-1
EndSplineSet
EndChar

StartChar: afii10020
Encoding: 1043 1043 263
Width: 700
GlyphClass: 1
Flags: W
LayerCount: 2
Fore
SplineSet
100 0 m 1,0,-1
 100 1000 l 1,1,-1
 700 1000 l 1,2,-1
 700 900 l 1,3,-1
 200 900 l 1,4,-1
 200 0 l 1,5,-1
 100 0 l 1,0,-1
EndSplineSet
EndChar

StartChar: afii10021
Encoding: 1044 1044 264
Width: 900
GlyphClass: 1
Flags: W
LayerCount: 2
Fore
SplineSet
0 100 m 1,0,-1
 100 100 l 1,1,-1
 100 200 l 1,2,-1
 200 200 l 1,3,-1
 200 100 l 1,4,-1
 700 100 l 1,5,-1
 700 900 l 1,6,-1
 300 900 l 1,7,-1
 300 200 l 1,8,-1
 200 200 l 1,9,-1
 200 1000 l 1,10,-1
 800 1000 l 1,11,-1
 800 100 l 1,12,-1
 900 100 l 1,13,-1
 900 -100 l 1,14,-1
 800 -100 l 1,15,-1
 800 0 l 1,16,-1
 100 0 l 1,17,-1
 100 -100 l 1,18,-1
 0 -100 l 1,19,-1
 0 100 l 1,0,-1
EndSplineSet
EndChar

StartChar: afii10022
Encoding: 1045 1045 265
Width: 1100
GlyphClass: 1
Flags: W
LayerCount: 2
Fore
SplineSet
900 500 m 1,0,-1
 300 500 l 1,1,-1
 300 100 l 1,2,-1
 1000 100 l 1,3,-1
 1000 0 l 1,4,-1
 200 0 l 1,5,-1
 200 1000 l 1,6,-1
 1000 1000 l 1,7,-1
 1000 900 l 1,8,-1
 300 900 l 1,9,-1
 300 600 l 1,10,-1
 900 600 l 1,11,-1
 900 500 l 1,0,-1
EndSplineSet
EndChar

StartChar: afii10024
Encoding: 1046 1046 266
Width: 1300
GlyphClass: 1
Flags: W
LayerCount: 2
Fore
SplineSet
900 200 m 1,0,-1
 900 300 l 1,1,-1
 1000 300 l 1,2,-1
 1000 200 l 1,3,-1
 900 200 l 1,0,-1
900 400 m 1,4,-1
 900 300 l 1,5,-1
 800 300 l 1,6,-1
 800 400 l 1,7,-1
 900 400 l 1,4,-1
900 700 m 1,8,-1
 900 600 l 1,9,-1
 800 600 l 1,10,-1
 800 700 l 1,11,-1
 900 700 l 1,8,-1
900 800 m 1,12,-1
 1000 800 l 1,13,-1
 1000 700 l 1,14,-1
 900 700 l 1,15,-1
 900 800 l 1,12,-1
400 200 m 1,16,-1
 300 200 l 1,17,-1
 300 300 l 1,18,-1
 400 300 l 1,19,-1
 400 200 l 1,16,-1
400 300 m 1,20,-1
 400 400 l 1,21,-1
 500 400 l 1,22,-1
 500 300 l 1,23,-1
 400 300 l 1,20,-1
400 700 m 1,24,-1
 500 700 l 1,25,-1
 500 600 l 1,26,-1
 400 600 l 1,27,-1
 400 700 l 1,24,-1
400 800 m 1,28,-1
 400 700 l 1,29,-1
 300 700 l 1,30,-1
 300 800 l 1,31,-1
 400 800 l 1,28,-1
800 400 m 1,32,-1
 700 400 l 1,33,-1
 700 0 l 1,34,-1
 600 0 l 1,35,-1
 600 400 l 1,36,-1
 500 400 l 1,37,-1
 500 600 l 1,38,-1
 600 600 l 1,39,-1
 600 1000 l 1,40,-1
 700 1000 l 1,41,-1
 700 600 l 1,42,-1
 800 600 l 1,43,-1
 800 400 l 1,32,-1
300 200 m 1,44,-1
 300 100 l 1,45,-1
 200 100 l 1,46,-1
 200 200 l 1,47,-1
 300 200 l 1,44,-1
300 900 m 1,48,-1
 300 800 l 1,49,-1
 200 800 l 1,50,-1
 200 900 l 1,51,-1
 300 900 l 1,48,-1
1200 100 m 1,52,-1
 1200 0 l 1,53,-1
 1100 0 l 1,54,-1
 1100 100 l 1,55,-1
 1200 100 l 1,52,-1
1200 1000 m 1,56,-1
 1200 900 l 1,57,-1
 1100 900 l 1,58,-1
 1100 1000 l 1,59,-1
 1200 1000 l 1,56,-1
200 100 m 1,60,-1
 200 0 l 1,61,-1
 100 0 l 1,62,-1
 100 100 l 1,63,-1
 200 100 l 1,60,-1
200 1000 m 1,64,-1
 200 900 l 1,65,-1
 100 900 l 1,66,-1
 100 1000 l 1,67,-1
 200 1000 l 1,64,-1
1100 200 m 1,68,-1
 1100 100 l 1,69,-1
 1000 100 l 1,70,-1
 1000 200 l 1,71,-1
 1100 200 l 1,68,-1
1100 900 m 1,72,-1
 1100 800 l 1,73,-1
 1000 800 l 1,74,-1
 1000 900 l 1,75,-1
 1100 900 l 1,72,-1
EndSplineSet
EndChar

StartChar: afii10025
Encoding: 1047 1047 267
Width: 900
GlyphClass: 1
Flags: W
LayerCount: 2
Fore
SplineSet
800 100 m 1,0,-1
 700 100 l 1,1,-1
 700 500 l 1,2,-1
 800 500 l 1,3,-1
 800 100 l 1,0,-1
800 600 m 1,4,-1
 700 600 l 1,5,-1
 700 900 l 1,6,-1
 800 900 l 1,7,-1
 800 600 l 1,4,-1
100 100 m 1,8,-1
 100 200 l 1,9,-1
 200 200 l 1,10,-1
 200 100 l 1,11,-1
 100 100 l 1,8,-1
100 800 m 1,12,-1
 100 900 l 1,13,-1
 200 900 l 1,14,-1
 200 800 l 1,15,-1
 100 800 l 1,12,-1
200 100 m 1,16,-1
 700 100 l 1,17,-1
 700 0 l 1,18,-1
 200 0 l 1,19,-1
 200 100 l 1,16,-1
200 900 m 1,20,-1
 200 1000 l 1,21,-1
 700 1000 l 1,22,-1
 700 900 l 1,23,-1
 200 900 l 1,20,-1
300 500 m 1,24,-1
 300 600 l 1,25,-1
 700 600 l 1,26,-1
 700 500 l 1,27,-1
 300 500 l 1,24,-1
EndSplineSet
EndChar

StartChar: afii10026
Encoding: 1048 1048 268
Width: 1000
GlyphClass: 1
Flags: W
LayerCount: 2
Fore
SplineSet
900 0 m 1,0,-1
 800 0 l 1,1,-1
 800 800 l 1,2,-1
 700 800 l 1,3,-1
 700 900 l 1,4,-1
 800 900 l 1,5,-1
 800 1000 l 1,6,-1
 900 1000 l 1,7,-1
 900 0 l 1,0,-1
200 200 m 1,8,-1
 300 200 l 1,9,-1
 300 100 l 1,10,-1
 200 100 l 1,11,-1
 200 0 l 1,12,-1
 100 0 l 1,13,-1
 100 1000 l 1,14,-1
 200 1000 l 1,15,-1
 200 200 l 1,8,-1
400 200 m 1,16,-1
 300 200 l 1,17,-1
 300 400 l 1,18,-1
 400 400 l 1,19,-1
 400 200 l 1,16,-1
400 400 m 1,20,-1
 400 500 l 1,21,-1
 500 500 l 1,22,-1
 500 400 l 1,23,-1
 400 400 l 1,20,-1
600 500 m 1,24,-1
 500 500 l 1,25,-1
 500 600 l 1,26,-1
 600 600 l 1,27,-1
 600 500 l 1,24,-1
600 600 m 1,28,-1
 600 800 l 1,29,-1
 700 800 l 1,30,-1
 700 600 l 1,31,-1
 600 600 l 1,28,-1
EndSplineSet
EndChar

StartChar: afii10027
Encoding: 1049 1049 269
Width: 1000
GlyphClass: 1
Flags: W
LayerCount: 2
Fore
SplineSet
900 0 m 1,0,-1
 800 0 l 1,1,-1
 800 800 l 1,2,-1
 700 800 l 1,3,-1
 700 900 l 1,4,-1
 800 900 l 1,5,-1
 800 1000 l 1,6,-1
 900 1000 l 1,7,-1
 900 0 l 1,0,-1
200 200 m 1,8,-1
 300 200 l 1,9,-1
 300 100 l 1,10,-1
 200 100 l 1,11,-1
 200 0 l 1,12,-1
 100 0 l 1,13,-1
 100 1000 l 1,14,-1
 200 1000 l 1,15,-1
 200 200 l 1,8,-1
400 200 m 1,16,-1
 300 200 l 1,17,-1
 300 400 l 1,18,-1
 400 400 l 1,19,-1
 400 200 l 1,16,-1
400 400 m 1,20,-1
 400 500 l 1,21,-1
 500 500 l 1,22,-1
 500 400 l 1,23,-1
 400 400 l 1,20,-1
600 500 m 1,24,-1
 500 500 l 1,25,-1
 500 600 l 1,26,-1
 600 600 l 1,27,-1
 600 500 l 1,24,-1
600 600 m 1,28,-1
 600 800 l 1,29,-1
 700 800 l 1,30,-1
 700 600 l 1,31,-1
 600 600 l 1,28,-1
300 1100 m 1,32,-1
 700 1100 l 1,33,-1
 700 1000 l 1,34,-1
 300 1000 l 1,35,-1
 300 1100 l 1,32,-1
EndSplineSet
EndChar

StartChar: afii10028
Encoding: 1050 1050 270
Width: 800
GlyphClass: 1
Flags: W
LayerCount: 2
Fore
SplineSet
200 0 m 1,0,-1
 100 0 l 1,1,-1
 100 1000 l 1,2,-1
 200 1000 l 1,3,-1
 200 600 l 1,4,-1
 300 600 l 1,5,-1
 300 500 l 1,6,-1
 200 500 l 1,7,-1
 200 0 l 1,0,-1
400 500 m 1,8,-1
 400 400 l 1,9,-1
 300 400 l 1,10,-1
 300 500 l 1,11,-1
 400 500 l 1,8,-1
400 400 m 1,12,-1
 500 400 l 1,13,-1
 500 300 l 1,14,-1
 400 300 l 1,15,-1
 400 400 l 1,12,-1
400 700 m 1,16,-1
 400 600 l 1,17,-1
 300 600 l 1,18,-1
 300 700 l 1,19,-1
 400 700 l 1,16,-1
400 800 m 1,20,-1
 500 800 l 1,21,-1
 500 700 l 1,22,-1
 400 700 l 1,23,-1
 400 800 l 1,20,-1
600 200 m 1,24,-1
 500 200 l 1,25,-1
 500 300 l 1,26,-1
 600 300 l 1,27,-1
 600 200 l 1,24,-1
600 100 m 1,28,-1
 600 200 l 1,29,-1
 700 200 l 1,30,-1
 700 100 l 1,31,-1
 600 100 l 1,28,-1
600 900 m 1,32,-1
 600 1000 l 1,33,-1
 700 1000 l 1,34,-1
 700 900 l 1,35,-1
 600 900 l 1,32,-1
600 800 m 1,36,-1
 500 800 l 1,37,-1
 500 900 l 1,38,-1
 600 900 l 1,39,-1
 600 800 l 1,36,-1
800 100 m 1,40,-1
 800 0 l 1,41,-1
 700 0 l 1,42,-1
 700 100 l 1,43,-1
 800 100 l 1,40,-1
EndSplineSet
EndChar

StartChar: afii10029
Encoding: 1051 1051 271
Width: 900
GlyphClass: 1
Flags: W
LayerCount: 2
Fore
SplineSet
800 0 m 1,0,-1
 700 0 l 1,1,-1
 700 900 l 1,2,-1
 300 900 l 1,3,-1
 300 1000 l 1,4,-1
 800 1000 l 1,5,-1
 800 0 l 1,0,-1
100 0 m 1,6,-1
 100 100 l 1,7,-1
 200 100 l 1,8,-1
 200 0 l 1,9,-1
 100 0 l 1,6,-1
200 100 m 1,10,-1
 200 900 l 1,11,-1
 300 900 l 1,12,-1
 300 100 l 1,13,-1
 200 100 l 1,10,-1
EndSplineSet
EndChar

StartChar: afii10030
Encoding: 1052 1052 272
Width: 1100
GlyphClass: 1
Flags: W
LayerCount: 2
Fore
SplineSet
900 0 m 1,0,-1
 900 600 l 1,1,-1
 800 600 l 1,2,-1
 800 800 l 1,3,-1
 900 800 l 1,4,-1
 900 1000 l 1,5,-1
 1000 1000 l 1,6,-1
 1000 0 l 1,7,-1
 900 0 l 1,0,-1
200 0 m 1,8,-1
 100 0 l 1,9,-1
 100 1000 l 1,10,-1
 200 1000 l 1,11,-1
 200 800 l 1,12,-1
 300 800 l 1,13,-1
 300 600 l 1,14,-1
 200 600 l 1,15,-1
 200 0 l 1,8,-1
400 200 m 1,16,-1
 400 400 l 1,17,-1
 500 400 l 1,18,-1
 500 200 l 1,19,-1
 400 200 l 1,16,-1
400 400 m 1,20,-1
 300 400 l 1,21,-1
 300 600 l 1,22,-1
 400 600 l 1,23,-1
 400 400 l 1,20,-1
600 200 m 1,24,-1
 600 0 l 1,25,-1
 500 0 l 1,26,-1
 500 200 l 1,27,-1
 600 200 l 1,24,-1
600 400 m 1,28,-1
 700 400 l 1,29,-1
 700 200 l 1,30,-1
 600 200 l 1,31,-1
 600 400 l 1,28,-1
800 400 m 1,32,-1
 700 400 l 1,33,-1
 700 600 l 1,34,-1
 800 600 l 1,35,-1
 800 400 l 1,32,-1
EndSplineSet
EndChar

StartChar: afii10031
Encoding: 1053 1053 273
Width: 1000
GlyphClass: 1
Flags: W
LayerCount: 2
Fore
SplineSet
800 0 m 1,0,-1
 800 500 l 1,1,-1
 200 500 l 1,2,-1
 200 0 l 1,3,-1
 100 0 l 1,4,-1
 100 1000 l 1,5,-1
 200 1000 l 1,6,-1
 200 600 l 1,7,-1
 800 600 l 1,8,-1
 800 1000 l 1,9,-1
 900 1000 l 1,10,-1
 900 0 l 1,11,-1
 800 0 l 1,0,-1
EndSplineSet
EndChar

StartChar: afii10032
Encoding: 1054 1054 274
Width: 1000
GlyphClass: 1
Flags: W
LayerCount: 2
Fore
SplineSet
800 200 m 1,0,-1
 800 100 l 1,1,-1
 700 100 l 1,2,-1
 700 200 l 1,3,-1
 800 200 l 1,0,-1
800 900 m 1,4,-1
 800 800 l 1,5,-1
 700 800 l 1,6,-1
 700 900 l 1,7,-1
 800 900 l 1,4,-1
800 800 m 1,8,-1
 900 800 l 1,9,-1
 900 200 l 1,10,-1
 800 200 l 1,11,-1
 800 800 l 1,8,-1
100 200 m 1,12,-1
 100 800 l 1,13,-1
 200 800 l 1,14,-1
 200 200 l 1,15,-1
 100 200 l 1,12,-1
200 200 m 1,16,-1
 300 200 l 1,17,-1
 300 100 l 1,18,-1
 200 100 l 1,19,-1
 200 200 l 1,16,-1
200 800 m 1,20,-1
 200 900 l 1,21,-1
 300 900 l 1,22,-1
 300 800 l 1,23,-1
 200 800 l 1,20,-1
300 100 m 1,24,-1
 700 100 l 1,25,-1
 700 0 l 1,26,-1
 300 0 l 1,27,-1
 300 100 l 1,24,-1
300 900 m 1,28,-1
 300 1000 l 1,29,-1
 700 1000 l 1,30,-1
 700 900 l 1,31,-1
 300 900 l 1,28,-1
EndSplineSet
EndChar

StartChar: afii10033
Encoding: 1055 1055 275
Width: 1000
GlyphClass: 1
Flags: W
LayerCount: 2
Fore
SplineSet
800 0 m 1,0,-1
 800 900 l 1,1,-1
 200 900 l 1,2,-1
 200 0 l 1,3,-1
 100 0 l 1,4,-1
 100 1000 l 1,5,-1
 900 1000 l 1,6,-1
 900 0 l 1,7,-1
 800 0 l 1,0,-1
EndSplineSet
EndChar

StartChar: afii10034
Encoding: 1056 1056 276
Width: 900
GlyphClass: 1
Flags: W
LayerCount: 2
Fore
SplineSet
800 500 m 1,0,-1
 700 500 l 1,1,-1
 700 600 l 1,2,-1
 800 600 l 1,3,-1
 800 500 l 1,0,-1
800 600 m 1,4,-1
 800 800 l 1,5,-1
 900 800 l 1,6,-1
 900 600 l 1,7,-1
 800 600 l 1,4,-1
800 900 m 1,8,-1
 800 800 l 1,9,-1
 700 800 l 1,10,-1
 700 900 l 1,11,-1
 800 900 l 1,8,-1
100 0 m 1,12,-1
 100 1000 l 1,13,-1
 700 1000 l 1,14,-1
 700 900 l 1,15,-1
 200 900 l 1,16,-1
 200 500 l 1,17,-1
 700 500 l 1,18,-1
 700 400 l 1,19,-1
 200 400 l 1,20,-1
 200 0 l 1,21,-1
 100 0 l 1,12,-1
EndSplineSet
EndChar

StartChar: afii10035
Encoding: 1057 1057 277
Width: 900
GlyphClass: 1
Flags: W
LayerCount: 2
Fore
SplineSet
900 200 m 1,0,-1
 800 200 l 1,1,-1
 800 300 l 1,2,-1
 900 300 l 1,3,-1
 900 200 l 1,0,-1
900 700 m 1,4,-1
 800 700 l 1,5,-1
 800 800 l 1,6,-1
 900 800 l 1,7,-1
 900 700 l 1,4,-1
200 200 m 1,8,-1
 100 200 l 1,9,-1
 100 800 l 1,10,-1
 200 800 l 1,11,-1
 200 200 l 1,8,-1
200 100 m 1,12,-1
 200 200 l 1,13,-1
 300 200 l 1,14,-1
 300 100 l 1,15,-1
 200 100 l 1,12,-1
200 800 m 1,16,-1
 200 900 l 1,17,-1
 300 900 l 1,18,-1
 300 800 l 1,19,-1
 200 800 l 1,16,-1
800 200 m 1,20,-1
 800 100 l 1,21,-1
 700 100 l 1,22,-1
 700 200 l 1,23,-1
 800 200 l 1,20,-1
800 900 m 1,24,-1
 800 800 l 1,25,-1
 700 800 l 1,26,-1
 700 900 l 1,27,-1
 800 900 l 1,24,-1
300 100 m 1,28,-1
 700 100 l 1,29,-1
 700 0 l 1,30,-1
 300 0 l 1,31,-1
 300 100 l 1,28,-1
300 900 m 1,32,-1
 300 1000 l 1,33,-1
 700 1000 l 1,34,-1
 700 900 l 1,35,-1
 300 900 l 1,32,-1
EndSplineSet
EndChar

StartChar: afii10036
Encoding: 1058 1058 278
Width: 900
GlyphClass: 1
Flags: W
LayerCount: 2
Fore
SplineSet
400 0 m 1,0,-1
 400 900 l 1,1,-1
 0 900 l 1,2,-1
 0 1000 l 1,3,-1
 900 1000 l 1,4,-1
 900 900 l 1,5,-1
 500 900 l 1,6,-1
 500 0 l 1,7,-1
 400 0 l 1,0,-1
EndSplineSet
EndChar

StartChar: afii10037
Encoding: 1059 1059 279
Width: 900
GlyphClass: 1
Flags: W
LayerCount: 2
Fore
SplineSet
800 100 m 1,0,-1
 700 100 l 1,1,-1
 700 400 l 1,2,-1
 200 400 l 1,3,-1
 200 500 l 1,4,-1
 700 500 l 1,5,-1
 700 1000 l 1,6,-1
 800 1000 l 1,7,-1
 800 100 l 1,0,-1
100 100 m 1,8,-1
 100 200 l 1,9,-1
 200 200 l 1,10,-1
 200 100 l 1,11,-1
 100 100 l 1,8,-1
100 500 m 1,12,-1
 100 1000 l 1,13,-1
 200 1000 l 1,14,-1
 200 500 l 1,15,-1
 100 500 l 1,12,-1
200 100 m 1,16,-1
 700 100 l 1,17,-1
 700 0 l 1,18,-1
 200 0 l 1,19,-1
 200 100 l 1,16,-1
EndSplineSet
EndChar

